<?xml version="1.0" encoding="utf-8"?>
<!-- Generator: Adobe Illustrator 27.5.0, SVG Export Plug-In . SVG Version: 6.00 Build 0)  -->
<svg version="1.1" xmlns="http://www.w3.org/2000/svg" xmlns:xlink="http://www.w3.org/1999/xlink" x="0px" y="0px"
	 viewBox="0 0 750 500" style="enable-background:new 0 0 750 500;" xml:space="preserve">
<g id="Background_complete">
	<g>
		<g>
			<g>
				<g>
					<g>
						<g>
							<path style="fill:#E0E0E0;" d="M673.734,339.783H492.988c-3.232,0-5.862-2.63-5.862-5.862V70.647
								c0-3.232,2.63-5.862,5.862-5.862h180.746c3.232,0,5.862,2.629,5.862,5.862v263.273
								C679.596,337.153,676.966,339.783,673.734,339.783z M492.988,65.035c-3.095,0-5.612,2.518-5.612,5.612v263.273
								c0,3.095,2.518,5.612,5.612,5.612h180.746c3.095,0,5.612-2.518,5.612-5.612V70.647c0-3.094-2.518-5.612-5.612-5.612H492.988z
								"/>
						</g>
					</g>
					<g>
						<g>
							<path style="fill:#E0E0E0;" d="M465.306,339.783H284.56c-3.232,0-5.862-2.63-5.862-5.862V70.647
								c0-3.232,2.629-5.862,5.862-5.862h180.747c3.232,0,5.862,2.629,5.862,5.862v263.273
								C471.168,337.153,468.538,339.783,465.306,339.783z M284.56,65.035c-3.094,0-5.612,2.518-5.612,5.612v263.273
								c0,3.095,2.518,5.612,5.612,5.612h180.747c3.095,0,5.612-2.518,5.612-5.612V70.647c0-3.094-2.518-5.612-5.612-5.612H284.56z"
								/>
						</g>
					</g>
				</g>
				<g>
					<g>
						<g>
							<path style="fill:#E0E0E0;" d="M257.012,339.783H76.266c-3.232,0-5.862-2.63-5.862-5.862V70.647
								c0-3.232,2.629-5.862,5.862-5.862h180.746c3.232,0,5.862,2.629,5.862,5.862v263.273
								C262.875,337.153,260.245,339.783,257.012,339.783z M76.266,65.035c-3.094,0-5.612,2.518-5.612,5.612v263.273
								c0,3.095,2.518,5.612,5.612,5.612h180.746c3.095,0,5.612-2.518,5.612-5.612V70.647c0-3.094-2.518-5.612-5.612-5.612H76.266z"
								/>
						</g>
					</g>
				</g>
			</g>
			<g>
				<g>
					<rect y="400.852" style="fill:#E0E0E0;" width="750" height="0.12"/>
				</g>
			</g>
		</g>
		<g>
			<rect x="653.626" y="430.228" style="fill:#EBEBEB;" width="55.729" height="0.421"/>
			<rect x="495.044" y="434.794" style="fill:#EBEBEB;" width="14.627" height="0.421"/>
			<rect x="40.645" y="417.431" style="fill:#EBEBEB;" width="72.674" height="0.421"/>
			<rect x="128.299" y="417.431" style="fill:#EBEBEB;" width="10.656" height="0.421"/>
			<rect x="173.586" y="424.535" style="fill:#EBEBEB;" width="157.613" height="0.421"/>
		</g>
	</g>
	<g>
		<g>
			<path style="fill:#E6E6E6;" d="M625.865,389.45c2.562-3.158,7.513-5.265,12.949-6.279c-0.426,1.555-0.107,2.989,0.813,3.342
				c1.025,0.393,2.4-0.708,3.071-2.459c0.189-0.494,0.294-0.984,0.336-1.446c5.481-0.446,10.961,0.185,14.619,1.94
				c0,0-3.581,3.228-7.637,11.715c-0.124-0.005-0.249-0.009-0.376-0.007c-2.625,0.027-4.741,1.294-4.725,2.831
				c0.011,1.123,1.159,2.076,2.799,2.5c-0.213,0.544-0.426,1.097-0.638,1.67c-3.864,10.458-14.172,2.898-14.08-4.26
				C632.996,398.998,620.124,396.526,625.865,389.45z"/>
			<g>
				<path style="fill:#E6E6E6;" d="M613.165,375.951c-3.157-3.408-8.959-5.44-15.232-6.189c0.602,1.741,0.345,3.4-0.676,3.87
					c-1.14,0.525-2.79-0.628-3.686-2.574c-0.253-0.549-0.409-1.099-0.491-1.623c-6.281-0.098-12.482,1.031-16.521,3.306
					c0,0,4.324,3.412,9.583,12.784c0.142-0.014,0.284-0.028,0.428-0.036c2.995-0.166,5.501,1.121,5.599,2.874
					c0.071,1.281-1.166,2.454-3.004,3.059c0.284,0.604,0.568,1.218,0.852,1.857c5.188,11.633,16.374,2.243,15.733-5.91
					C605.75,387.369,620.239,383.588,613.165,375.951z"/>
				<g>
					<g>
						<g>
							<path style="fill:#EBEBEB;" d="M605.499,373.397c1.341-6.543,6.96-13.367,14.113-18.964c0.557,2.589,2.11,4.437,3.717,4.254
								c1.792-0.204,2.962-2.851,2.613-5.912c-0.099-0.864-0.316-1.657-0.606-2.362c7.65-4.803,16.115-8.038,22.777-8.252
								c0,0-2.773,7.418-2.252,22.862c-0.185,0.088-0.37,0.176-0.554,0.275c-3.806,2.028-5.928,5.479-4.741,7.707
								c0.867,1.628,3.263,2.148,5.974,1.522c0.101,0.954,0.21,1.921,0.336,2.918c2.294,18.17-18.459,14.964-23.748,4.462
								C623.128,381.908,602.495,388.06,605.499,373.397z"/>
						</g>
					</g>
				</g>
				<path style="fill:#E0E0E0;" d="M620.081,414.917c-3.475-19.313,1.72-40.03,13.892-55.419l0.588,0.465
					c-12.042,15.223-17.179,35.717-13.742,54.821L620.081,414.917z"/>
				<path style="fill:#E0E0E0;" d="M619.513,408.336c-0.038,0-0.076-0.006-0.113-0.018c-0.113-0.036-0.203-0.124-0.241-0.236
					c-2.451-7.184-10.729-22.661-24.518-29.82c-0.184-0.096-0.256-0.322-0.16-0.506c0.097-0.185,0.322-0.253,0.506-0.16
					c13.701,7.114,22.036,22.296,24.714,29.767c2.711-1.961,18.204-13.139,25.969-18.114c0.174-0.11,0.406-0.063,0.518,0.113
					c0.112,0.174,0.062,0.406-0.113,0.518c-8.467,5.426-26.162,18.257-26.34,18.386
					C619.668,408.311,619.591,408.336,619.513,408.336z"/>
				<g>
					<polygon style="fill:#E0E0E0;" points="641.768,420.99 598.099,420.99 598.116,412.991 641.723,412.991 					"/>
					<polygon style="fill:#E0E0E0;" points="601.262,418.381 608.085,446.765 633.211,446.765 639.296,418.381 					"/>
				</g>
			</g>
		</g>
		<path style="fill:#E0E0E0;" d="M604.418,411.599h-3.885c-0.138,0-0.25-0.112-0.25-0.25s0.112-0.25,0.25-0.25h3.885
			c0.138,0,0.25,0.112,0.25,0.25S604.556,411.599,604.418,411.599z"/>
		<path style="fill:#E0E0E0;" d="M616.834,411.599h-10.631c-0.138,0-0.25-0.112-0.25-0.25s0.112-0.25,0.25-0.25h10.631
			c0.138,0,0.25,0.112,0.25,0.25S616.972,411.599,616.834,411.599z"/>
	</g>
	<g>
		<rect x="518.945" y="85.021" style="fill:#E0E0E0;" width="1.8" height="140.37"/>
		<rect x="630.995" y="85.021" style="fill:#E0E0E0;" width="1.8" height="140.37"/>
		<polygon style="fill:#F0F0F0;" points="639.845,93.851 511.895,93.851 509.195,87.551 642.545,87.551 		"/>
		<polygon style="fill:#F0F0F0;" points="639.845,102.501 511.895,102.501 509.195,96.201 642.545,96.201 		"/>
		<polygon style="fill:#F0F0F0;" points="639.845,111.151 511.895,111.151 509.195,104.851 642.545,104.851 		"/>
		<polygon style="fill:#F0F0F0;" points="639.845,119.801 511.895,119.801 509.195,113.501 642.545,113.501 		"/>
		<polygon style="fill:#F0F0F0;" points="639.845,128.451 511.895,128.451 509.195,122.151 642.545,122.151 		"/>
		<polygon style="fill:#F0F0F0;" points="639.845,137.101 511.895,137.101 509.195,130.801 642.545,130.801 		"/>
		<polygon style="fill:#F0F0F0;" points="639.845,145.751 511.895,145.751 509.195,139.451 642.545,139.451 		"/>
		<polygon style="fill:#F0F0F0;" points="639.845,154.401 511.895,154.401 509.195,148.101 642.545,148.101 		"/>
		<polygon style="fill:#F0F0F0;" points="639.845,163.041 511.895,163.041 509.195,156.741 642.545,156.741 		"/>
		<polygon style="fill:#F0F0F0;" points="639.845,171.691 511.895,171.691 509.195,165.391 642.545,165.391 		"/>
		<polygon style="fill:#F0F0F0;" points="639.845,180.341 511.895,180.341 509.195,174.041 642.545,174.041 		"/>
		<polygon style="fill:#F0F0F0;" points="639.845,188.991 511.895,188.991 509.195,182.691 642.545,182.691 		"/>
		<polygon style="fill:#F0F0F0;" points="639.845,197.641 511.895,197.641 509.195,191.341 642.545,191.341 		"/>
		<polygon style="fill:#F0F0F0;" points="639.845,206.291 511.895,206.291 509.195,199.991 642.545,199.991 		"/>
		<polygon style="fill:#F0F0F0;" points="639.845,214.941 511.895,214.941 509.195,208.641 642.545,208.641 		"/>
		<polygon style="fill:#F0F0F0;" points="639.845,223.591 511.895,223.591 509.195,217.291 642.545,217.291 		"/>
		<rect x="509.195" y="223.591" style="fill:#E0E0E0;" width="133.35" height="3.6"/>
		<rect x="504.545" y="79.661" style="fill:#E0E0E0;" width="142.65" height="8.4"/>
		<path style="fill:#E0E0E0;" d="M506.005,164.221L506.005,164.221c-0.801,0-1.45-0.649-1.45-1.45v-49c0-0.801,0.649-1.45,1.45-1.45
			l0,0c0.801,0,1.45,0.649,1.45,1.45v49C507.455,163.572,506.805,164.221,506.005,164.221z"/>
		<rect x="505.485" y="86.381" style="fill:#E0E0E0;" width="1.05" height="29.1"/>
	</g>
	<g>
		<g>
			<path style="fill:#E6E6E6;" d="M477.769,218.709l-43.025,8.465c-1.903,0.374-3.749-0.865-4.124-2.768l-11.262-57.24
				c-0.374-1.903,0.865-3.749,2.768-4.123l43.025-8.465c1.903-0.374,3.749,0.865,4.124,2.768l11.262,57.24
				C480.911,216.488,479.672,218.334,477.769,218.709z"/>
		</g>
		<path style="fill:#F0F0F0;" d="M461.206,174.286l-27.962,5.502c-0.962,0.189-1.895-0.437-2.084-1.399l-0.153-0.776
			c-0.189-0.962,0.437-1.895,1.398-2.084l27.962-5.501c0.962-0.189,1.895,0.437,2.084,1.398l0.153,0.777
			C462.793,173.164,462.167,174.097,461.206,174.286z"/>
		<path style="fill:#F0F0F0;" d="M463.349,185.181l-27.962,5.502c-0.962,0.189-1.894-0.437-2.084-1.399l-0.153-0.777
			c-0.189-0.962,0.437-1.894,1.399-2.084l27.962-5.502c0.962-0.189,1.895,0.437,2.084,1.399l0.153,0.777
			C464.937,184.059,464.311,184.992,463.349,185.181z"/>
		<path style="fill:#F0F0F0;" d="M465.493,196.076l-27.962,5.502c-0.962,0.189-1.895-0.437-2.084-1.399l-0.153-0.777
			c-0.189-0.962,0.437-1.895,1.399-2.084l27.962-5.502c0.962-0.189,1.895,0.437,2.084,1.399l0.153,0.777
			C467.081,194.954,466.455,195.887,465.493,196.076z"/>
		<path style="fill:#F0F0F0;" d="M452.762,209.898l-13.087,2.575c-0.962,0.189-1.894-0.437-2.084-1.399l-0.153-0.777
			c-0.189-0.962,0.437-1.895,1.398-2.084l13.087-2.575c0.962-0.189,1.895,0.437,2.084,1.399l0.153,0.777
			C454.35,208.776,453.723,209.709,452.762,209.898z"/>
	</g>
	<g>
		<g>
			<path style="fill:#E6E6E6;" d="M163.915,121.104l-38.939,10.925c-3.56,0.999-7.257-1.077-8.255-4.638L101.654,73.69
				c-0.999-3.56,1.077-7.256,4.638-8.255l38.939-10.925c3.561-0.999,7.257,1.077,8.256,4.638l15.067,53.701
				C169.552,116.409,167.476,120.105,163.915,121.104z"/>
		</g>
		<path style="fill:#F0F0F0;" d="M145.186,74.939l-28.229,7.92c-1.221,0.343-2.489-0.37-2.832-1.591l0,0
			c-0.343-1.221,0.37-2.489,1.591-2.832l28.229-7.92c1.221-0.343,2.489,0.369,2.831,1.591v0
			C147.12,73.329,146.408,74.597,145.186,74.939z"/>
		<path style="fill:#F0F0F0;" d="M148.361,86.253l-28.229,7.92c-1.221,0.342-2.489-0.37-2.831-1.591l0,0
			c-0.343-1.221,0.37-2.489,1.591-2.831l28.229-7.92c1.221-0.343,2.489,0.37,2.832,1.591l0,0
			C150.294,84.643,149.582,85.91,148.361,86.253z"/>
		<path style="fill:#F0F0F0;" d="M151.535,97.566l-28.229,7.92c-1.221,0.343-2.489-0.369-2.832-1.591l0,0
			c-0.343-1.221,0.37-2.489,1.591-2.831l28.229-7.92c1.221-0.343,2.489,0.37,2.831,1.591l0,0
			C153.468,95.956,152.756,97.224,151.535,97.566z"/>
		<path style="fill:#F0F0F0;" d="M139.263,113.214L126.48,116.8c-1.221,0.343-2.489-0.37-2.832-1.591l0,0
			c-0.343-1.221,0.369-2.489,1.591-2.832l12.783-3.587c1.221-0.343,2.489,0.37,2.832,1.591l0,0
			C141.197,111.603,140.484,112.871,139.263,113.214z"/>
	</g>
	<g>
		<g>
			<path style="fill:#E6E6E6;" d="M693.676,220.309l-24.973-5.929c-1.887-0.448-3.054-2.341-2.606-4.228l8.079-34.032
				c0.448-1.887,2.341-3.053,4.228-2.605l24.973,5.929c1.887,0.448,3.054,2.341,2.606,4.228l-8.079,34.032
				C697.456,219.59,695.563,220.757,693.676,220.309z"/>
		</g>
		<path style="fill:#F0F0F0;" d="M696.795,190.15l-17.323-4.113c-0.749-0.178-1.213-0.93-1.035-1.679l0,0
			c0.178-0.749,0.93-1.213,1.679-1.035l17.323,4.113c0.749,0.178,1.213,0.93,1.035,1.679v0
			C698.296,189.865,697.544,190.328,696.795,190.15z"/>
		<path style="fill:#F0F0F0;" d="M695.146,197.092l-17.323-4.112c-0.749-0.178-1.213-0.93-1.035-1.679l0,0
			c0.178-0.749,0.93-1.213,1.679-1.035l17.323,4.113c0.749,0.178,1.213,0.929,1.035,1.679l0,0
			C696.648,196.807,695.896,197.27,695.146,197.092z"/>
		<path style="fill:#F0F0F0;" d="M693.498,204.035l-17.323-4.112c-0.749-0.178-1.213-0.93-1.035-1.679l0,0
			c0.178-0.749,0.93-1.213,1.679-1.035l17.323,4.112c0.749,0.178,1.213,0.93,1.035,1.679l0,0
			C695,203.75,694.248,204.213,693.498,204.035z"/>
		<path style="fill:#F0F0F0;" d="M682.372,208.727l-7.844-1.862c-0.749-0.178-1.213-0.93-1.035-1.679l0,0
			c0.178-0.749,0.93-1.213,1.679-1.035l7.844,1.862c0.749,0.178,1.213,0.93,1.035,1.679l0,0
			C683.873,208.442,683.121,208.905,682.372,208.727z"/>
	</g>
	<g>
		<g>
			<path style="fill:#E6E6E6;" d="M75.496,300.961l-18.71,7.933c-1.786,0.757-3.847-0.077-4.604-1.862l-10.973-25.881
				c-0.757-1.785,0.077-3.847,1.862-4.604l18.711-7.933c1.786-0.757,3.847,0.077,4.604,1.862l10.973,25.881
				C78.116,298.142,77.282,300.203,75.496,300.961z"/>
		</g>
		<path style="fill:#F0F0F0;" d="M63.18,278.867l-13.712,5.814c-0.593,0.251-1.278-0.026-1.529-0.619l0,0
			c-0.251-0.593,0.026-1.278,0.619-1.529l13.712-5.814c0.593-0.251,1.278,0.025,1.529,0.619l0,0
			C64.05,277.93,63.773,278.615,63.18,278.867z"/>
		<path style="fill:#F0F0F0;" d="M65.51,284.362l-13.712,5.814c-0.593,0.251-1.278-0.026-1.529-0.619l0,0
			c-0.251-0.593,0.026-1.278,0.619-1.529l13.712-5.814c0.593-0.251,1.278,0.025,1.53,0.619l0,0
			C66.38,283.426,66.103,284.111,65.51,284.362z"/>
		<path style="fill:#F0F0F0;" d="M67.84,289.857l-13.712,5.814c-0.593,0.251-1.278-0.026-1.529-0.619l0,0
			c-0.251-0.593,0.026-1.278,0.619-1.529l13.712-5.814c0.593-0.251,1.278,0.026,1.53,0.619l0,0
			C68.71,288.921,68.433,289.606,67.84,289.857z"/>
		<path style="fill:#F0F0F0;" d="M62.667,298.534l-6.209,2.633c-0.593,0.252-1.278-0.026-1.529-0.619l0,0
			c-0.252-0.593,0.025-1.278,0.619-1.53l6.209-2.633c0.593-0.252,1.278,0.025,1.529,0.619l0,0
			C63.537,297.598,63.261,298.282,62.667,298.534z"/>
	</g>
</g>
<g id="Background_simple" style="display:none;">
	<g style="display:inline;">
		<path style="fill:#407BFF;" d="M249.839,51.736c-41.007,2.101-80.551,6.574-115.622,13.591
			c-41.335,8.27-83.569,21.152-71.095,38.003c23.03,31.109,133.508,31.676,111.449,52.593
			c-24.986,23.693-8.23,51.486,103.887,59.214c212.95,14.679,470.374-71.212,398.073-118.409
			C631.52,67.345,467.578,40.581,249.839,51.736z"/>
		<path style="opacity:0.9;fill:#FFFFFF;" d="M249.839,51.736c-41.007,2.101-80.551,6.574-115.622,13.591
			c-41.335,8.27-83.569,21.152-71.095,38.003c23.03,31.109,133.508,31.676,111.449,52.593
			c-24.986,23.693-8.23,51.486,103.887,59.214c212.95,14.679,470.374-71.212,398.073-118.409
			C631.52,67.345,467.578,40.581,249.839,51.736z"/>
	</g>
</g>
<g id="Shadow">
	<g>
		<g>
			<path style="fill:#F5F5F5;" d="M715.084,448.39c0,3.389-152.261,6.137-340.084,6.137s-340.084-2.747-340.084-6.137
				c0-3.389,152.261-6.137,340.084-6.137S715.084,445,715.084,448.39z"/>
		</g>
	</g>
</g>
<g id="Clipboard">
	<g>
		<path style="fill:#407BFF;" d="M394.063,446.734H139.766c-4.102,0-7.427-3.325-7.427-7.427V79.05c0-4.102,3.325-7.427,7.427-7.427
			h254.297c4.102,0,7.427,3.325,7.427,7.427v360.258C401.49,443.409,398.165,446.734,394.063,446.734z"/>
		<rect x="142.115" y="109.031" style="opacity:0.3;" width="249.598" height="323.673"/>
		<g>
			<rect x="142.567" y="85.396" style="fill:#FFFFFF;" width="249.598" height="337.418"/>
			<rect x="171.276" y="117.468" style="fill:#E0E0E0;" width="192.179" height="10.381"/>
			<rect x="170.824" y="392.448" style="fill:#E0E0E0;" width="192.18" height="10.381"/>
			<g>
				<rect x="178.73" y="248.17" style="fill:#263238;" width="139.38" height="1"/>
				<rect x="178.73" y="262.814" style="fill:#263238;" width="139.38" height="1"/>
			</g>
			<g>
				<path style="fill:#263238;" d="M362.276,269.553h-26.364v-26.364h26.364V269.553z M336.913,268.553h24.364v-24.364h-24.364
					V268.553z"/>
				<g>
					<polygon style="fill:#407BFF;" points="352.356,266.44 338.473,256.103 342.081,251.258 351.389,258.19 364.18,242.932 
						368.808,246.811 					"/>
				</g>
			</g>
			<g>
				<rect x="178.73" y="201.841" style="fill:#263238;" width="139.38" height="1"/>
				<rect x="178.73" y="216.484" style="fill:#263238;" width="139.38" height="1"/>
			</g>
			<g>
				<path style="fill:#263238;" d="M362.276,223.223h-26.364v-26.364h26.364V223.223z M336.913,222.223h24.364v-24.364h-24.364
					V222.223z"/>
				<g>
					<polygon style="fill:#407BFF;" points="352.356,220.11 338.473,209.773 342.081,204.929 351.389,211.861 364.18,196.602 
						368.808,200.482 					"/>
				</g>
			</g>
			<g>
				<rect x="178.73" y="155.512" style="fill:#263238;" width="139.38" height="1"/>
				<rect x="178.73" y="170.155" style="fill:#263238;" width="139.38" height="1"/>
			</g>
			<g>
				<path style="fill:#263238;" d="M362.276,176.894h-26.364V150.53h26.364V176.894z M336.913,175.894h24.364V151.53h-24.364
					V175.894z"/>
				<g>
					<polygon style="fill:#407BFF;" points="352.356,173.781 338.473,163.444 342.081,158.6 351.389,165.531 364.18,150.273 
						368.808,154.152 					"/>
				</g>
			</g>
			<g>
				<rect x="178.73" y="293.705" style="fill:#263238;" width="139.38" height="1"/>
				<rect x="178.73" y="308.349" style="fill:#263238;" width="139.38" height="1"/>
			</g>
			<g>
				<path style="fill:#263238;" d="M362.276,315.087h-26.364v-26.363h26.364V315.087z M336.913,314.087h24.364v-24.363h-24.364
					V314.087z"/>
			</g>
			<g>
				<rect x="178.73" y="339.24" style="fill:#263238;" width="139.38" height="1"/>
				<rect x="178.73" y="353.883" style="fill:#263238;" width="139.38" height="1"/>
			</g>
			<g>
				<path style="fill:#263238;" d="M362.276,360.622h-26.364v-26.364h26.364V360.622z M336.913,359.622h24.364v-24.364h-24.364
					V359.622z"/>
			</g>
		</g>
		<g>
			<g>
				<rect x="224.224" y="65.133" style="fill:#263238;" width="85.38" height="32.202"/>
				<polygon style="fill:#263238;" points="293.946,68.383 244.018,68.383 238.451,43.862 300.779,43.862 				"/>
			</g>
			<path style="opacity:0.3;" d="M295.685,43.862c-0.058,0.152-6.65,20.992-6.488,20.992c0.162,0,5.666,0,5.666,0l5.998-20.992
				H295.685z"/>
			<path style="opacity:0.3;" d="M304.091,65.133c0,0-0.412,32.202,0,32.202c0.412,0,5.513,0,5.513,0V65.133H304.091z"/>
		</g>
	</g>
</g>
<g id="Speech_Bubble_2">
	<g>
		<g>
			<g>
				<path style="fill:#407BFF;" d="M641.039,121.374h-26.37c-6.762,0-12.244,5.481-12.244,12.244v14.776
					c0,6.762,5.482,12.244,12.244,12.244h5.998l0.958,6.828l7.278-6.828h12.136c6.762,0,12.243-5.482,12.243-12.244v-14.776
					C653.282,126.856,647.801,121.374,641.039,121.374z"/>
			</g>
			<g>
				<path style="fill:#FFFFFF;" d="M635.581,141.054c0,1.74,1.411,3.152,3.152,3.152c1.741,0,3.151-1.411,3.151-3.152
					c0-1.741-1.411-3.152-3.151-3.152C636.992,137.902,635.581,139.313,635.581,141.054z"/>
				<path style="fill:#FFFFFF;" d="M624.844,141.054c0,1.74,1.411,3.152,3.152,3.152c1.741,0,3.152-1.411,3.152-3.152
					c0-1.741-1.411-3.152-3.152-3.152C626.255,137.902,624.844,139.313,624.844,141.054z"/>
				<path style="fill:#FFFFFF;" d="M613.823,141.054c0,1.74,1.411,3.152,3.152,3.152c1.741,0,3.152-1.411,3.152-3.152
					c0-1.741-1.411-3.152-3.152-3.152C615.234,137.902,613.823,139.313,613.823,141.054z"/>
			</g>
		</g>
		<path style="fill:#407BFF;" d="M641.719,119.029c-5.575,0-11.151,0-16.726,0c-0.483,0-0.483,0.75,0,0.75c5.575,0,11.15,0,16.726,0
			C642.202,119.779,642.203,119.029,641.719,119.029L641.719,119.029z"/>
		<path style="fill:#407BFF;" d="M622.896,119.029c-0.467,0-0.934,0-1.401,0c-0.196,0-0.384,0.173-0.375,0.375
			c0.009,0.203,0.165,0.375,0.375,0.375c0.467,0,0.934,0,1.401,0c0.196,0,0.384-0.173,0.375-0.375
			C623.262,119.201,623.106,119.029,622.896,119.029L622.896,119.029z"/>
	</g>
</g>
<g id="Speech_Bubble_1">
	<g>
		<g>
			<g>
				<path style="fill:#407BFF;" d="M65.533,122.518h25.44c6.524,0,11.812,5.288,11.812,11.812v14.255
					c0,6.523-5.289,11.812-11.812,11.812h-5.786l-0.924,6.587l-7.021-6.587H65.533c-6.523,0-11.812-5.289-11.812-11.812V134.33
					C53.721,127.806,59.009,122.518,65.533,122.518z"/>
			</g>
			<g>
				<path style="fill:#FFFFFF;" d="M70.798,141.504c0,1.679-1.361,3.04-3.041,3.04c-1.679,0-3.04-1.361-3.04-3.04
					c0-1.68,1.361-3.041,3.04-3.041C69.437,138.463,70.798,139.824,70.798,141.504z"/>
				<path style="fill:#FFFFFF;" d="M81.157,141.504c0,1.679-1.361,3.04-3.04,3.04c-1.679,0-3.041-1.361-3.041-3.04
					c0-1.68,1.361-3.041,3.041-3.041C79.795,138.463,81.157,139.824,81.157,141.504z"/>
				<path style="fill:#FFFFFF;" d="M91.789,141.504c0,1.679-1.361,3.04-3.041,3.04c-1.679,0-3.04-1.361-3.04-3.04
					c0-1.68,1.361-3.041,3.04-3.041C90.428,138.463,91.789,139.824,91.789,141.504z"/>
			</g>
		</g>
		<path style="fill:#407BFF;" d="M64.876,120.992c5.379,0,10.757,0,16.136,0c0.483,0,0.483-0.75,0-0.75c-5.379,0-10.757,0-16.136,0
			C64.394,120.242,64.393,120.992,64.876,120.992L64.876,120.992z"/>
		<path style="fill:#407BFF;" d="M83.036,120.992c0.451,0,0.901,0,1.352,0c0.196,0,0.384-0.173,0.375-0.375
			c-0.009-0.203-0.165-0.375-0.375-0.375c-0.451,0-0.901,0-1.352,0c-0.196,0-0.384,0.173-0.375,0.375
			C82.67,120.821,82.826,120.992,83.036,120.992L83.036,120.992z"/>
	</g>
</g>
<g id="Clock">
	<g>
		<g>
			<g>
				
					<ellipse transform="matrix(0.8039 -0.5948 0.5948 0.8039 36.1072 288.4745)" style="fill:#407BFF;" cx="455.459" cy="89.489" rx="27.789" ry="27.79"/>
				
					<ellipse transform="matrix(0.8039 -0.5948 0.5948 0.8039 36.1072 288.4745)" style="opacity:0.3;" cx="455.459" cy="89.489" rx="27.789" ry="27.79"/>
				<path style="fill:#407BFF;" d="M473.355,107.925c-11.013,10.69-28.606,10.429-39.296-0.584
					c-10.69-11.013-10.429-28.606,0.584-39.296c11.013-10.69,28.606-10.429,39.296,0.584
					C484.629,79.641,484.368,97.235,473.355,107.925z"/>
				
					<ellipse transform="matrix(0.5998 -0.8002 0.8002 0.5998 111.2921 398.4821)" style="fill:#FFFFFF;" cx="453.999" cy="87.985" rx="23.087" ry="23.087"/>
				<g>
					<path d="M442.918,104.366l3.067-4.544c0.09,0.061,0.18,0.12,0.271,0.179l-2.955,4.617
						C443.172,104.536,443.045,104.451,442.918,104.366z M436.796,97.74c-0.076-0.133-0.15-0.268-0.222-0.404l4.835-2.581
						c0.051,0.095,0.103,0.19,0.156,0.283L436.796,97.74z M451.797,107.641l0.602-5.448l0.34,0.035l-0.5,5.458
						C452.091,107.672,451.944,107.657,451.797,107.641z M434.23,88.633c-0.005-0.152-0.008-0.303-0.01-0.455l5.482-0.054
						l0.006,0.331L434.23,88.633z M461.177,106.412l-1.995-5.105l0.309-0.124l2.185,5.027l-0.13,0.054
						C461.456,106.301,461.317,106.357,461.177,106.412z M436.193,79.382c0.066-0.138,0.134-0.274,0.203-0.41l4.882,2.493
						c-0.05,0.096-0.098,0.194-0.145,0.292L436.193,79.382z M464.819,97.33c0.068-0.078,0.134-0.157,0.2-0.237l4.233,3.483
						c-0.1,0.122-0.202,0.241-0.305,0.36L464.819,97.33z M445.486,76.498l-3.252-4.412l0.356-0.257l3.175,4.468L445.486,76.498z
						 M467.917,91.245l0.073-0.326l5.361,1.146c-0.031,0.147-0.064,0.293-0.099,0.439L467.917,91.245z M451.804,73.856l-0.846-5.415
						c0.145-0.023,0.292-0.044,0.438-0.063l0.748,5.429L451.804,73.856z M467.84,84.407c-0.027-0.103-0.054-0.205-0.084-0.308
						l5.271-1.506c0.043,0.149,0.083,0.299,0.122,0.448L467.84,84.407z M458.616,74.457l1.77-5.188
						c0.148,0.051,0.296,0.103,0.444,0.158l-1.918,5.135C458.814,74.525,458.715,74.49,458.616,74.457z M464.597,78.387l-0.222-0.24
						l3.978-3.772c0.105,0.11,0.208,0.222,0.31,0.334L464.597,78.387z"/>
				</g>
			</g>
			<g>
				<path d="M453.698,89.382c-0.022,0-0.045-0.001-0.068-0.004c-0.152-0.021-0.286-0.111-0.364-0.244l-5.51-9.479
					c-0.139-0.239-0.058-0.545,0.182-0.684c0.236-0.139,0.544-0.059,0.684,0.181l5.188,8.926l8.456-8.227
					c0.196-0.192,0.515-0.188,0.707,0.01c0.192,0.198,0.189,0.515-0.01,0.707l-8.915,8.673
					C453.953,89.332,453.827,89.382,453.698,89.382z"/>
				<path d="M455.307,89.312c-0.628,0.716-1.717,0.787-2.433,0.16c-0.716-0.628-0.787-1.717-0.16-2.433
					c0.628-0.716,1.717-0.787,2.433-0.16C455.863,87.507,455.935,88.596,455.307,89.312z"/>
			</g>
		</g>
		<path style="opacity:0.3;" d="M438.592,73.124c9.149-8.881,23.766-8.664,32.647,0.485c2.182,2.248,3.808,4.828,4.894,7.57
			c-1.03-3.435-2.862-6.685-5.532-9.435c-8.881-9.149-23.498-9.366-32.647-0.485c-6.901,6.699-8.713,16.659-5.38,25.076
			C430.18,88.346,432.194,79.335,438.592,73.124z"/>
	</g>
</g>
<g id="Plant">
	<g id="freepik--Plant--inject-2">
		<path style="fill:#263238;" d="M69.795,435.645c0-0.423-4.407-42.847,5.328-78.935l1.245,0.324
			c-9.66,35.864-5.328,78.064-5.328,78.487L69.795,435.645z"/>
		<path style="fill:#407BFF;" d="M80.351,365.86c0,0-13.407,24.897-10.73,54.238C69.62,420.097,75.197,384.047,80.351,365.86z"/>
		<path style="fill:#407BFF;" d="M53.699,353.536c0,0,19.569,27.523,16.183,62.665C69.857,416.238,62.251,372.047,53.699,353.536z"
			/>
		<path style="fill:#407BFF;" d="M69.795,424.691c0,0,4.232-36.337-18.249-46.831C51.483,377.86,63.471,386.723,69.795,424.691z"/>
		<path style="fill:#407BFF;" d="M72.098,357.27l-0.411,0.075c-0.589,0.107-0.979,0.67-0.873,1.259
			c0.007,0.037,0.015,0.074,0.026,0.111l0.498,1.805c0.158,0.577,0.753,0.917,1.33,0.759c0.179-0.049,0.342-0.143,0.475-0.273
			l0.672-0.647c0.439-0.417,1.132-0.398,1.549,0.04c0.101,0.107,0.18,0.233,0.231,0.37l0.909,2.49
			c0.202,0.563,0.822,0.855,1.385,0.654c0.068-0.025,0.134-0.056,0.196-0.093l2.091-1.245c0.513-0.307,0.68-0.972,0.373-1.485
			c-0.042-0.07-0.092-0.136-0.149-0.195l-0.336-0.349c-0.413-0.442-0.389-1.135,0.053-1.548c0.192-0.18,0.443-0.284,0.706-0.294
			h1.818c0.598-0.014,1.071-0.51,1.057-1.108c-0.001-0.046-0.005-0.092-0.012-0.137l-0.199-1.556
			c-0.075-0.593-0.617-1.014-1.211-0.938c-0.12,0.015-0.237,0.051-0.346,0.104l-0.125,0.062c-0.549,0.254-1.2,0.014-1.454-0.536
			c-0.129-0.279-0.134-0.6-0.015-0.884l0.597-1.369c0.238-0.548-0.013-1.186-0.562-1.425c-0.095-0.041-0.195-0.069-0.297-0.081
			l-1.93-0.261c-0.591-0.09-1.143,0.317-1.233,0.909c-0.007,0.045-0.011,0.091-0.012,0.137l0,0
			c-0.029,0.604-0.542,1.071-1.146,1.042c-0.371-0.018-0.709-0.223-0.895-0.544l-0.249-0.448c-0.301-0.525-0.97-0.707-1.495-0.406
			c-0.071,0.041-0.138,0.089-0.198,0.145l-1.432,1.344c-0.44,0.415-0.46,1.109-0.045,1.549c0.014,0.015,0.029,0.03,0.045,0.045
			l1.145,1.058c0.439,0.417,0.456,1.11,0.039,1.549C72.518,357.114,72.317,357.225,72.098,357.27z"/>
		<path style="opacity:0.7;fill:#FFFFFF;enable-background:new    ;" d="M72.098,357.27l-0.411,0.075
			c-0.589,0.107-0.979,0.67-0.873,1.259c0.007,0.037,0.015,0.074,0.026,0.111l0.498,1.805c0.158,0.577,0.753,0.917,1.33,0.759
			c0.179-0.049,0.342-0.143,0.475-0.273l0.672-0.647c0.439-0.417,1.132-0.398,1.549,0.04c0.101,0.107,0.18,0.233,0.231,0.37
			l0.909,2.49c0.202,0.563,0.822,0.855,1.385,0.654c0.068-0.025,0.134-0.056,0.196-0.093l2.091-1.245
			c0.513-0.307,0.68-0.972,0.373-1.485c-0.042-0.07-0.092-0.136-0.149-0.195l-0.336-0.349c-0.413-0.442-0.389-1.135,0.053-1.548
			c0.192-0.18,0.443-0.284,0.706-0.294h1.818c0.598-0.014,1.071-0.51,1.057-1.108c-0.001-0.046-0.005-0.092-0.012-0.137
			l-0.199-1.556c-0.075-0.593-0.617-1.014-1.211-0.938c-0.12,0.015-0.237,0.051-0.346,0.104l-0.125,0.062
			c-0.549,0.254-1.2,0.014-1.454-0.536c-0.129-0.279-0.134-0.6-0.015-0.884l0.597-1.369c0.238-0.548-0.013-1.186-0.562-1.425
			c-0.095-0.041-0.195-0.069-0.297-0.081l-1.93-0.261c-0.591-0.09-1.143,0.317-1.233,0.909c-0.007,0.045-0.011,0.091-0.012,0.137
			l0,0c-0.029,0.604-0.542,1.071-1.146,1.042c-0.371-0.018-0.709-0.223-0.895-0.544l-0.249-0.448
			c-0.301-0.525-0.97-0.707-1.495-0.406c-0.071,0.041-0.138,0.089-0.198,0.145l-1.432,1.344c-0.44,0.415-0.46,1.109-0.045,1.549
			c0.014,0.015,0.029,0.03,0.045,0.045l1.145,1.058c0.439,0.417,0.456,1.11,0.039,1.549
			C72.518,357.114,72.317,357.225,72.098,357.27z"/>
		<path style="fill:#407BFF;" d="M73.89,415.342l1.569-12.137H61.765l1.556,12.137c-6.547,2.255-10.945,8.412-10.955,15.336
			c0.122,3.753,1.029,7.438,2.664,10.818c1.584,3.322,4.947,5.428,8.627,5.402h9.959c3.678,0.03,7.039-2.078,8.614-5.402
			c1.644-3.377,2.556-7.064,2.676-10.818C84.907,423.732,80.474,417.56,73.89,415.342z"/>
		<path style="opacity:0.7;fill:#FFFFFF;enable-background:new    ;" d="M73.89,415.342l1.569-12.137H61.765l1.556,12.137
			c-6.547,2.255-10.945,8.412-10.955,15.336c0.122,3.753,1.029,7.438,2.664,10.818c1.584,3.322,4.947,5.428,8.627,5.402h9.959
			c3.678,0.03,7.039-2.078,8.614-5.402c1.644-3.377,2.556-7.064,2.676-10.818C84.907,423.732,80.474,417.56,73.89,415.342z"/>
	</g>
</g>
<g id="Character_3">
	<g>
		<g>
			<path style="fill:#B97964;" d="M598.67,310.314l-7.177-0.468c0,0-5.031-36.878-5.511-38.348
				c-0.662-2.679-4.689-23.242-6.28-28.491l0.769-0.12c-0.854-2.701-0.128-5.62,2.659-6.535c2.788-0.915,6.611,0.588,7.476,3.267
				c1.794,5.446,5.212,26.139,5.725,28.622c0.005,0.058,0.005,0.116,0,0.174C597.965,279.208,598.67,310.314,598.67,310.314z"/>
			<path style="fill:#B97964;" d="M598.67,310.314c0,3.354-2.99,5.086-5.148,5.315h-11.385l-0.662-0.163
				c-0.199-0.055-0.317-0.265-0.263-0.468c0.019-0.072,0.058-0.136,0.113-0.186l2.051-1.677c2.264-1.862,5.34-2.472,8.117-3.267
				L598.67,310.314z"/>
			<path style="fill:#407BFF;" d="M584.099,225.022c-1.038,0.509-1.817,0.66-2.561,1.427c-7.604,7.843-0.953,28.11-0.953,28.11
				l14.322-1.35c0,0,1.42-17.273-0.203-22.665C592.985,224.892,589.674,221.308,584.099,225.022z"/>
			<polygon style="opacity:0.2;enable-background:new    ;" points="595.057,251.153 587.587,242.532 594.907,253.209 			"/>
		</g>
		<g>
			<polygon style="fill:#E4897B;" points="632.198,422.946 633.464,436.22 643.448,437.313 644.461,423.038 			"/>
			<g>
				<g>
					<path style="fill:#407BFF;" d="M631.302,433.924c-0.021-0.524,0.436-0.94,0.949-0.92l3.035,0.117
						c0.767,0.011,1.549,1.438,1.994,2.075c1.918,2.749,3.401,1.741,5.561-0.789c1.354-0.142,1.696,1.445,1.801,1.871l2.408,9.433
						c0.21,0.788-0.247,1.6-1.02,1.814c-0.137,0.038-0.279,0.055-0.422,0.051c-4.116-0.057-6.063-0.084-11.186-0.155l-15.666-0.218
						c-4.271-0.059-5.097-4.461-3.333-4.842c7.935-1.673,13.568-3.969,16.044-6.281C631.814,435.774,631.34,434.885,631.302,433.924
						z"/>
					<path style="fill:#FFFFFF;" d="M632.691,439.194c-0.085,0-0.168-0.043-0.215-0.121c-0.579-0.967-1.579-1.645-2.677-1.812
						c-0.136-0.02-0.229-0.148-0.209-0.285c0.021-0.136,0.144-0.227,0.285-0.209c1.242,0.189,2.375,0.955,3.03,2.048
						c0.07,0.119,0.032,0.272-0.086,0.344C632.779,439.183,632.735,439.194,632.691,439.194z"/>
					<path style="fill:#FFFFFF;" d="M630.441,440.502c-0.085,0-0.168-0.043-0.215-0.121c-0.578-0.966-1.578-1.644-2.676-1.813
						c-0.137-0.021-0.23-0.148-0.209-0.285s0.152-0.229,0.285-0.209c1.243,0.191,2.375,0.958,3.029,2.049
						c0.07,0.119,0.032,0.273-0.086,0.344C630.529,440.49,630.485,440.502,630.441,440.502z"/>
					<path style="fill:#FFFFFF;" d="M627.673,441.82c-0.085,0-0.168-0.043-0.215-0.121c-0.578-0.967-1.579-1.645-2.676-1.813
						c-0.137-0.02-0.229-0.148-0.209-0.285c0.021-0.136,0.154-0.229,0.285-0.209c1.242,0.19,2.374,0.957,3.029,2.049
						c0.07,0.119,0.032,0.272-0.086,0.344C627.761,441.809,627.717,441.82,627.673,441.82z"/>
				</g>
			</g>
		</g>
		<path style="fill:#407BFF;" d="M586.152,240.215c3.738,6.611,11.748,15.466,33.109,29.091l26.338-20.693
			c-8.854-10.793-13.436-16.951-24.245-40.247c-1.027-2.302-3.969-5.029-6.376-5.637c-1.993-0.472-4.087-0.148-5.853,0.904
			c-1.954,1.165-4.08,2.505-6.152,3.986c-4.722,3.18-9.212,6.703-13.436,10.543c-2.948,2.777-5.896,5.958-8,8.288
			c0,0,0,0.37,0.171,1.231C582.45,232.094,583.954,236.338,586.152,240.215z"/>
		<g>
			<path style="fill:#263238;" d="M569.949,177.988c-4.536,4.924-4.892,10.496-3.975,14.244c1.809,4.922,4.362,8.095,6.831,12.705
				l6.607-33.002C576.443,173.319,574.898,173.014,569.949,177.988z"/>
			<path style="fill:#263238;" d="M576.032,173.73c4.661-3.729,10.432-2.08,13.869-0.794c3.897,2.008,6.742,5.623,7.818,9.933
				c0.913,4.052,2.021,8.964,0.071,11.668c-1.083,1.555-2.755,2.584-4.607,2.835l-23.961-13.662
				C570.628,179.86,572.971,176.425,576.032,173.73z"/>
			<path style="fill:#B97964;" d="M597.921,228.714c2.176,0.533,2.359-3.712,3.659-5.579c3.622-9.35,0.783-15.103,0.783-15.103
				c-3.456-1.09-4.315-2.498-6.281-7.289c-0.064-0.135-0.138-0.266-0.22-0.39c-0.366-0.573-0.896-1.016-1.518-1.269
				c-1.682-0.738-3.633,0.055-4.356,1.771c-0.001,0.002-0.001,0.003-0.002,0.005l-3.829,4.387l0,0
				c0.028,0.074,0.056,0.148,0.087,0.231c1.458,2.373,2.665,4.166,3.547,5.621c0.073,0.194,0.219,0.359,0.316,0.533l0,0
				c0.073,0.194,0.204,0.375,0.31,0.546c1.118,2.051-0.466,4.9-1.375,6.455C588.524,219.63,590.557,226.935,597.921,228.714z"/>
			<path style="opacity:0.2;enable-background:new    ;" d="M584.345,205.881c0.011-0.085,0.009-0.172-0.007-0.257l0,0l5.008-2.913
				c1.265-1.366,3.367-1.449,4.701-0.187c0.48,0.457,0.817,1.047,0.969,1.699l0,0l-4.762,7.701c0,0-3.52-5.378-3.568-5.378
				C586.639,206.546,584.345,205.881,584.345,205.881z"/>
			<path style="fill:#B97964;" d="M595.023,184.778c1.904,9.42,2.913,13.347-0.335,19.508c-4.897,9.256-16.441,9.923-21.065,1.352
				c-4.096-7.733-6.562-21.799,1.192-28.227C582.568,170.981,593.109,175.349,595.023,184.778z"/>
			<path style="fill:#B97964;" d="M600.929,191.802c-0.48,2.251-1.854,4.025-3.328,4.97c-2.218,1.422-4.699-2.08-4.647-4.799
				c0.047-2.448,1.957-4.7,4.454-5.009C599.869,186.659,601.478,189.229,600.929,191.802z"/>
			<path style="opacity:0.2;" d="M595.68,193.274c-0.113,0-0.215-0.077-0.243-0.191c-0.232-0.959-0.078-1.999,0.424-2.854
				c0.504-0.855,1.336-1.491,2.283-1.743c0.133-0.032,0.27,0.043,0.306,0.177c0.036,0.133-0.043,0.271-0.177,0.306
				c-0.821,0.219-1.544,0.771-1.98,1.514c-0.438,0.743-0.572,1.648-0.369,2.482c0.032,0.134-0.05,0.27-0.185,0.302
				C595.719,193.271,595.699,193.274,595.68,193.274z"/>
			<g>
				<g>
					<path style="fill:#263238;" d="M583.878,191.753c0.263,0.99-0.007,1.965-0.602,2.179c-0.595,0.214-1.29-0.415-1.552-1.405
						c-0.263-0.989,0.007-1.965,0.602-2.179C582.92,190.135,583.615,190.764,583.878,191.753z"/>
					<path style="fill:#263238;" d="M574.888,194.745c0.252,0.96-0.024,1.911-0.617,2.124c-0.593,0.213-1.279-0.392-1.531-1.352
						c-0.252-0.96,0.024-1.911,0.617-2.124C573.95,193.18,574.636,193.786,574.888,194.745z"/>
					<path style="fill:#263238;" d="M584.708,187.72c-0.112,0.052-0.24,0.057-0.357,0.004c-1.817-0.842-3.252,0.15-3.268,0.162
						c-0.213,0.148-0.492,0.093-0.621-0.13c-0.129-0.224-0.06-0.527,0.154-0.68c0.075-0.052,1.874-1.3,4.13-0.254
						c0.225,0.104,0.319,0.391,0.211,0.64C584.903,187.581,584.813,187.671,584.708,187.72z"/>
					<path style="fill:#263238;" d="M570.41,191.138c-0.102,0-0.2-0.044-0.272-0.131c-0.149-0.181-0.131-0.48,0.039-0.668
						c1.708-1.883,3.535-1.503,3.613-1.484c0.218,0.049,0.344,0.295,0.283,0.551c-0.061,0.256-0.288,0.424-0.505,0.376
						c-0.071-0.016-1.493-0.287-2.851,1.211C570.629,191.09,570.517,191.139,570.41,191.138z"/>
					<path style="fill:#A24E3F;" d="M577.19,193.475c0,0-0.337,3.927-1.267,6.617c-0.162,0.47,0.185,0.96,0.673,0.976
						c1.257,0.04,2.453-0.781,2.453-0.781L577.19,193.475z"/>
				</g>
				<path style="fill:#263238;" d="M582.681,190.274l-2.248,0.203C580.434,190.477,582.074,191.669,582.681,190.274z"/>
				<path style="fill:#263238;" d="M573.579,193.343l-2.248,0.203C571.331,193.547,572.971,194.739,573.579,193.343z"/>
			</g>
			<g>
				<path style="fill:#263238;" d="M580.233,202.712c0.964,0.684,2.391,2.192,2.391,2.192c0.16-0.108,0.319-0.217,0.473-0.333
					c2.126-1.524,2.626-2.938,2.534-4.044c-0.052-0.605-0.29-1.119-0.533-1.504c-0.276-0.447-0.575-0.701-0.575-0.701
					c-0.66,1.486-2.536,3.06-3.573,3.859C580.519,202.52,580.233,202.712,580.233,202.712z"/>
				<path style="fill:#FFFFFF;" d="M580.95,202.181l0.722,0.628c1.999-1.44,3.22-2.724,3.426-3.785
					c-0.276-0.447-0.575-0.701-0.575-0.701C583.863,199.808,581.986,201.382,580.95,202.181z"/>
				<path style="fill:#DE5753;" d="M583.096,204.57c2.126-1.524,2.626-2.938,2.534-4.044c-0.705,0.547-1.496,1.286-2.036,2.163
					C583.178,203.359,583.074,204.007,583.096,204.57z"/>
			</g>
			<path style="fill:#263238;" d="M592.334,187.843c0,0-6.665-4.825-8.008-10.016c0,0-19.87,0.368-14.4,16.47
				c0,0-7.31-13.296,7.616-19.4c14.926-6.105,22.72,13.55,17.322,22.382C594.82,197.212,596.468,190.876,592.334,187.843z"/>
			<path style="fill:#263238;" d="M606.013,171.372c0.6,4.351-2.393,8.416-6.686,9.078c-4.292,0.662-8.259-2.328-8.859-6.68
				c-0.564-4.09,2.053-7.977,6.025-8.947C600.93,163.961,605.18,166.884,606.013,171.372z"/>
			<path style="fill:#263238;" d="M570.977,178.658c-1.588,2.473-2.366,5.385-2.22,8.315c0.46,2.038,3.532,2.843,3.532,2.843
				l2.345-5.262l0.88,3.905c5.344-1.947,7.849-5.667,8.766-10.379l-4.302-4.78C579.979,173.3,572.436,176.618,570.977,178.658z"/>
			<g>
				<path style="fill:#263238;" d="M598.375,177.949c0.97,2.095,2.717,3.801,4.818,4.702c-0.949,0.318-1.996,0.318-2.938-0.001
					c0.219,0.789,0.573,1.538,1.041,2.203c-2.64-1.328-4.609-3.935-5.193-6.875L598.375,177.949z"/>
			</g>
		</g>
		<path style="fill:#407BFF;" d="M616.559,268.01l27.47-21.336"/>
		<g>
			<polygon style="fill:#E4897B;" points="695.627,409.314 704.538,419.076 713.243,413.952 705.547,401.983 			"/>
			<g>
				<g>
					<path style="fill:#407BFF;" d="M701.453,418.591c-0.328-0.404-0.214-1.017,0.206-1.319l2.481-1.787
						c0.616-0.466,2.087,0.183,2.82,0.414c3.161,0.996,3.738-0.723,3.948-4.07c0.991-0.951,2.208,0.097,2.545,0.371l7.531,6.003
						c0.636,0.496,0.757,1.424,0.27,2.072c-0.087,0.115-0.189,0.217-0.305,0.302c-3.304,2.503-4.867,3.688-8.979,6.804
						l-12.576,9.529c-3.428,2.598-6.706-0.387-5.531-1.783c5.307-6.243,8.416-11.555,9.006-14.926
						C702.962,419.744,702.055,419.331,701.453,418.591z"/>
					<path style="fill:#FFFFFF;" d="M702.131,422.202c-0.087,0-0.172-0.046-0.218-0.128c-0.067-0.12-0.025-0.272,0.096-0.34
						c1.101-0.618,2.457-0.711,3.63-0.247c0.129,0.051,0.191,0.196,0.141,0.324c-0.051,0.129-0.195,0.191-0.324,0.141
						c-1.033-0.408-2.23-0.328-3.202,0.218C702.215,422.191,702.173,422.202,702.131,422.202z"/>
					<path style="fill:#FFFFFF;" d="M701.122,424.635c-0.087,0-0.172-0.046-0.218-0.128c-0.067-0.12-0.025-0.272,0.096-0.34
						c1.102-0.62,2.458-0.711,3.63-0.248c0.129,0.051,0.191,0.196,0.141,0.324c-0.051,0.129-0.194,0.19-0.324,0.141
						c-1.033-0.408-2.231-0.325-3.202,0.219C701.206,424.624,701.164,424.635,701.122,424.635z"/>
					<path style="fill:#FFFFFF;" d="M699.707,427.397c-0.087,0-0.172-0.046-0.218-0.128c-0.067-0.12-0.025-0.272,0.096-0.34
						c1.099-0.617,2.457-0.711,3.63-0.248c0.128,0.051,0.192,0.195,0.141,0.324c-0.051,0.128-0.195,0.191-0.324,0.141
						c-1.033-0.408-2.232-0.327-3.202,0.219C699.791,427.386,699.749,427.397,699.707,427.397z"/>
				</g>
			</g>
		</g>
		<g>
			<path style="fill:#263238;" d="M619.261,269.306c0,0,7.957,101.561,8.021,102.127l4.977,59.444h12.922
				c0,0,0.088-3.423,0.761-7.932c5.896-39.524-0.15-52.297-0.15-52.297s5.191-76.304,7.006-82.055
				C652.979,287.995,646.795,244.267,619.261,269.306z"/>
			<path style="fill:#263238;" d="M619.064,269.18l0.357,0.594c5.325,7.206,15.417,14.881,20.69,21.463l1.835,4.153
				c0,0,40.78-28.523,15.824-40.789c-1.037-0.51-11.06-5.836-11.06-5.836C640.098,247.142,619.064,269.18,619.064,269.18z"/>
			<path style="fill:#263238;" d="M673.367,297.901c0.16,13.168,1.656,47.339,3.44,60.376c0,0,10.241,8.063,15.506,16.166
				l15.979,31.429l-10.21,6.753l-32.838-32.405c-7.398-7.505-10.083-12.652-12.443-19.252c-5.778-16.119-6.904-35.724-9.445-51.461
				c-1.175-7.297-6.333-31.007-4.539-38.119c2.414-9.628,5.102-25.378,16.177-18.244
				C665.857,258.163,672.277,261.284,673.367,297.901z"/>
			<polygon style="opacity:0.2;enable-background:new    ;" points="647.884,341.408 638.441,279.892 627.673,276.301 
				636.079,284.137 			"/>
		</g>
		<g>
			<path style="opacity:0.2;enable-background:new    ;" d="M595.775,243.197c0,0,17.89,8.71,23.582,5.485
				c5.692-3.224,4.646-14.114,4.544-16.228c-0.1-2.077-0.376-4.333-0.376-4.333l1.345-0.165l-2.812-16.568
				c0,0-4.554,30.168-5.5,30.168C615.613,241.557,595.775,243.197,595.775,243.197z"/>
			<path style="fill:#B97964;" d="M620.961,217.654c1.431,6.165,1.122,17.742,0.929,22.349c-0.059,2.168-0.891,4.239-2.339,5.827
				c-1.773,1.884-3.677,2.852-9.612,1.187c-5.072-1.423-27.518-7.371-27.518-7.371l1.43-5.781c0,0,11.611,1.485,26.703,3.206
				c-0.18-7.448,0.101-17.576,0.72-20.005C612.31,213.079,619.146,209.845,620.961,217.654z"/>
			<path style="fill:#407BFF;" d="M610.313,203.932c-3.204,2.396-3.599,23.392-3.599,23.392h15.706c0,0,0.657-14.625-0.732-18.165
				C619.531,203.442,613.902,201.242,610.313,203.932z"/>
			<g>
				<path style="fill:#B97964;" d="M586.156,233.899l-5.643-2.819c-0.627-0.309-1.305-0.495-1.999-0.55l-3.432-0.246
					c-1.373-0.093-2.561,0.966-2.652,2.367c0,0.008-0.001,0.017-0.001,0.025l-0.17,3.09c-0.043,1.226,0.782,2.307,1.958,2.566
					l3.495,0.769c0,0,6.04,2.463,7.846-0.598L586.156,233.899z"/>
				<path style="fill:#B97964;" d="M573.743,233.689c-0.101-0.621-2.123-0.975-3.349-1.161c-1.226-0.186-4.544-0.316-5.24-0.902
					s-0.581-1.824,0.115-1.812c0.696,0.012,2.907-0.019,4.651,0.141s5.102,0.176,5.827,0.365
					C576.472,230.509,573.743,233.689,573.743,233.689z"/>
			</g>
		</g>
	</g>
</g>
<g id="Character_2">
	<g>
		<g>
			<path style="fill:#E4897B;" d="M466.65,270.522l17.531,9.679l18.566-26.031l7.364,13.305c0,0-17.75,26.613-24.408,26.994
				c-6.658,0.38-24.109-18.155-24.109-18.155L466.65,270.522z"/>
			<g>
				<g>
					<g>
						<g>
							<g>
								<g>
									<g>
										<path style="fill:#E4897B;" d="M467.553,271.327c0,0,1.177-3.277-0.08-5.866c-1.258-2.59-1.573-4.992-2.641-6.853
											c-1.068-1.861-1.619,0.982-1.606,2.554c0.013,1.572,0.012,3.353-1.17,3.172c-1.182-0.181-9.226-6.589-10.894-6.654
											c-1.667-0.065-0.69,1.379-0.69,1.379s-1.996-1.504-2.807-0.875c-0.211,0.163-0.436,0.884,0.366,1.712
											c1.804,1.862,5.792,5.576,5.792,5.576c-0.225-0.218-5.474-4.45-6.343-4.981c-1.136-0.694-2.025-0.442-2.406,0.229
											c-0.542,0.956,5.788,6.425,5.893,6.842c0,0-3.539-3.271-4.883-2.819c-1.344,0.451,0.771,2.632,3.002,4.2
											c2.045,1.438,5.679,4.793,7.9,6.053c2.736,1.552,4.922,1.98,7.308,0.246C466.681,273.507,467.553,271.327,467.553,271.327
											z"/>
									</g>
								</g>
							</g>
						</g>
					</g>
				</g>
				<path style="opacity:0.3;" d="M455.304,263.4c-0.063,0-0.124-0.022-0.173-0.069c-1.439-1.374-2.958-2.696-4.514-3.93
					c-0.108-0.086-0.126-0.243-0.041-0.352c0.087-0.108,0.245-0.124,0.352-0.041c1.567,1.244,3.098,2.576,4.549,3.961
					c0.1,0.095,0.103,0.253,0.008,0.354C455.435,263.374,455.369,263.4,455.304,263.4z"/>
				<path style="opacity:0.3;" d="M452.299,269.129c-0.033,0-0.066-0.007-0.099-0.021c-0.127-0.054-0.186-0.201-0.131-0.328
					c1.034-2.412,2.815-4.533,5.015-5.97c0.114-0.077,0.27-0.043,0.346,0.072c0.076,0.115,0.043,0.27-0.072,0.346
					c-2.118,1.384-3.833,3.426-4.829,5.749C452.488,269.072,452.395,269.129,452.299,269.129z"/>
				<path style="opacity:0.3;" d="M462.993,271.623c-0.058,0-0.115-0.02-0.162-0.06c-0.839-0.717-1.427-1.754-1.614-2.844
					c-0.188-1.089,0.021-2.262,0.572-3.22c0.069-0.121,0.222-0.16,0.342-0.092c0.119,0.069,0.16,0.222,0.092,0.342
					c-0.494,0.857-0.682,1.909-0.514,2.886c0.168,0.977,0.695,1.905,1.446,2.549c0.105,0.089,0.117,0.247,0.027,0.352
					C463.134,271.594,463.063,271.623,462.993,271.623z"/>
			</g>
		</g>
		<g>
			<path style="fill:#E4897B;" d="M528.335,239.077c0.186,1.767,0.105,3.324-0.488,4.115c-0.615,0.814-1.662,1.368-2.798,1.75
				c1.01,1.939,3.552,3.502,3.552,3.502h7.128c0,0,3.222,0.716,4.446,0.025c1.01-0.57,2.077-1.107,3.038-1.755
				c0.487-0.328,0.945-0.72,1.399-1.125c-1.5-0.876-2.872-2.065-3.352-3.627c-1.244-4.033,0.093-17.795,0.093-17.795l-15.041,6.184
				c0,0,0.117,0.337,0.291,0.907C527.08,232.847,528.044,236.241,528.335,239.077z"/>
			<path style="fill:#263238;" d="M519.304,201.55c0.412-0.525-0.725-12.309,19.562-6.445c15.064,4.354,9.373,16.163,9.373,16.163
				l-17.226-12.443L519.304,201.55z"/>
			<path style="opacity:0.2;enable-background:new    ;" d="M538.857,231.149c0,0-3.231,6.718-10.659,6.486
				c-0.291-2.836-1.255-6.23-1.732-7.823c0.558-0.209,0.918-0.337,0.918-0.337L538.857,231.149z"/>
			<path style="fill:#263238;" d="M519.701,199.135c0,0-4.379,12.386,1.454,18.587c5.833,6.201,10.373-17.546,10.373-17.546
				L519.701,199.135z"/>
			<path style="fill:#E4897B;" d="M538.873,231.62c-4.586,3.461-9.782,4.306-14.152,1.944c-2.811-1.514-5.111-4.102-6.214-7.401
				c-0.15-0.431-0.271-0.882-0.378-1.342c-1.842-8.432-0.294-22.271,8.926-25.805c6.557-2.567,13.97,0.669,16.534,7.238
				c0.742,1.863,1.016,3.88,0.828,5.883C543.687,221.445,544.231,227.576,538.873,231.62z"/>
			<path style="fill:#263238;" d="M531.795,214.557c0.049,0.972-0.546,1.76-1.197,1.746c-0.651-0.014-1.14-0.825-1.127-1.801
				c0.013-0.976,0.562-1.761,1.197-1.747C531.303,212.771,531.808,213.566,531.795,214.557z"/>
			<path style="fill:#263238;" d="M522.449,214.557c0.049,0.973-0.562,1.761-1.197,1.747c-0.635-0.014-1.14-0.825-1.127-1.801
				c0.013-0.975,0.562-1.761,1.197-1.747C521.957,212.771,522.464,213.628,522.449,214.557z"/>
			<path style="fill:#DE5753;" d="M524.331,214.724c-0.951,2.306-2.216,4.47-3.759,6.43c1.042,0.777,2.374,1.052,3.639,0.754
				L524.331,214.724z"/>
			<path style="fill:#263238;" d="M518.496,210.563c0.144,0.084,0.322,0.084,0.466,0.001c0.961-0.604,2.15-0.72,3.209-0.312
				c0.22,0.108,0.486,0.018,0.594-0.202c0.108-0.22,0.018-0.486-0.202-0.594c-0.001,0-0.001-0.001-0.002-0.001
				c-1.326-0.55-2.836-0.423-4.05,0.341c-0.214,0.12-0.291,0.389-0.171,0.604c0.002,0.003,0.003,0.006,0.005,0.009
				C518.387,210.468,518.438,210.52,518.496,210.563z"/>
			<path style="fill:#263238;" d="M531.967,211.064c0.09-0.001,0.177-0.03,0.25-0.083c0.166-0.181,0.153-0.461-0.028-0.627
				c-0.002-0.002-0.005-0.004-0.007-0.007c-1.054-0.981-2.52-1.387-3.929-1.089c-0.236,0.065-0.375,0.309-0.311,0.545l0,0.001
				c0.07,0.233,0.31,0.369,0.546,0.311l0,0c1.119-0.203,2.268,0.135,3.098,0.911C531.703,211.094,531.842,211.108,531.967,211.064z"
				/>
			<path style="fill:#263238;" d="M537.8,200.359l-0.779,4.071c1.298,0.809,2.007,2.382,1.277,3.958
				c-1.559,3.364,0.038,8.852,2.544,11.167c0,0,0.184-1.491,1.422-1.051c1.238,0.44,0.045,6.71-1.268,10.565
				c0,0,2.87-1.918,5.525-9.954c2.456-7.432,3.124-13.719,1.767-16.75L537.8,200.359z"/>
			<path style="fill:#E4897B;" d="M548.343,219.87c-1.077,2.091-2.94,3.67-5.179,4.39c-2.972,0.932-4.555-1.706-3.819-4.565
				c0.679-2.535,3.029-6.161,6.058-5.816C548.431,214.224,549.633,217.287,548.343,219.87z"/>
			<path style="fill:#263238;" d="M519.701,199.135c-0.518,0.971,1.13,4.546,4.886,6.265c3.756,1.719-0.24-2.088-0.24-2.088
				s7.551,2.592,7.755,1.623c0.205-0.969-2.127-2.376-2.127-2.376s6.286,2.957,11.383,1.698c5.097-1.26-4.192-9.696-10.115-9.525
				C525.321,194.902,521.269,196.197,519.701,199.135z"/>
			<path style="opacity:0.1;" d="M541.586,220.409l-0.492-0.09c0.3-1.644,1.35-3.115,2.808-3.934
				c0.854-0.48,1.672-0.501,2.185-0.054l-0.328,0.377c-0.408-0.355-1.101-0.175-1.612,0.113
				C542.816,217.568,541.859,218.909,541.586,220.409z"/>
			<path style="fill:#263238;" d="M527.374,225.224c0.756,0.016,1.509-0.141,2.173-0.51c0.795-0.442,1.401-1.153,1.862-1.925
				c0.248-0.415-0.4-0.793-0.648-0.379c-0.398,0.666-0.907,1.275-1.593,1.656c-0.558,0.31-1.165,0.421-1.794,0.408
				C526.891,224.464,526.891,225.214,527.374,225.224L527.374,225.224z"/>
		</g>
		<g>
			<g>
				<polygon style="fill:#407BFF;" points="564.999,447.096 568.929,447.096 561.665,362.186 557.735,362.186 				"/>
				<polygon style="opacity:0.6;fill:#FFFFFF;enable-background:new    ;" points="564.999,447.096 568.929,447.096 
					561.665,362.186 557.735,362.186 				"/>
			</g>
			<g>
				<polygon style="fill:#407BFF;" points="524.801,447.096 520.872,447.096 528.136,362.186 532.065,362.186 				"/>
				<polygon style="opacity:0.6;fill:#FFFFFF;enable-background:new    ;" points="524.801,447.096 520.872,447.096 
					528.136,362.186 532.065,362.186 				"/>
			</g>
			<path style="fill:#263238;" d="M548.265,362.197h-80.381c3.381-8.372,9.53-13.502,16.176-13.502h58.796L548.265,362.197z"/>
			<g>
				<polygon style="fill:#407BFF;" points="511.31,447.096 515.24,447.096 507.975,362.186 504.046,362.186 				"/>
				<polygon style="opacity:0.6;fill:#FFFFFF;enable-background:new    ;" points="511.31,447.096 515.24,447.096 507.975,362.186 
					504.046,362.186 				"/>
			</g>
			<g>
				<polygon style="fill:#407BFF;" points="471.112,447.096 467.182,447.096 474.447,362.186 478.376,362.186 				"/>
				<polygon style="opacity:0.6;fill:#FFFFFF;enable-background:new    ;" points="471.112,447.096 467.182,447.096 
					474.447,362.186 478.376,362.186 				"/>
			</g>
			<path style="fill:#263238;" d="M566.887,362.197h-44.179c3.847-8.372,10.834-13.502,18.396-13.502h15.636
				C564.301,348.695,568.026,353.055,566.887,362.197z"/>
			<path style="opacity:0.5;enable-background:new    ;" d="M566.887,362.197h-44.179c3.847-8.372,10.834-13.502,18.396-13.502
				h15.636C564.301,348.695,568.026,353.055,566.887,362.197z"/>
		</g>
		<g>
			<g>
				<g>
					<g>
						<g>
							<polygon style="fill:#E4897B;" points="455.833,416.124 452.611,436.665 445.2,435.657 442.92,414.871 							"/>
						</g>
					</g>
				</g>
				<path style="fill:#263238;" d="M441.313,430.931c-0.117-1.26-0.027-2.311,1.448-2.388l2.088-0.108
					c0.789,0,1.353,0.483,1.986,0.887c4.786,3.054,6.749-0.889,8.607-0.887c2.386-0.002,0.851,6.995,0.964,7.363l2.608,8.12
					c0.227,0.678-0.232,2.142-1.024,2.336c-0.141,0.035-0.287,0.051-0.434,0.049c-4.236,0-6.241,0-11.513,0h-16.125
					c-4.396,0-4.447-4.937-2.636-5.288c8.142-1.54,11.354-3.984,14.037-5.771C441.319,435.244,441.493,432.868,441.313,430.931z"/>
				<path style="opacity:0.4;fill:#FFFFFF;" d="M429.917,446.303h16.125c5.273,0,7.277,0,11.513,0
					c0.147,0.002,0.293-0.015,0.434-0.049c0.538-0.132,0.915-0.847,1.035-1.507l-0.011-0.618h-32.625
					C426.822,445.277,427.915,446.303,429.917,446.303z"/>
				<path style="fill:#407BFF;" d="M436.99,438.245c0.337,0.284,0.648,0.597,0.928,0.938c0.033,0.04,0.066,0.082,0.098,0.122
					c-0.024-0.03-0.011-0.014,0.005,0.007c0.018,0.023,0.035,0.046,0.052,0.07c0.065,0.089,0.129,0.178,0.19,0.27
					c0.122,0.182,0.234,0.37,0.338,0.563c0.093,0.173,0.347,0.242,0.513,0.134c0.176-0.113,0.234-0.328,0.134-0.513
					c-0.435-0.807-1.029-1.53-1.729-2.121c-0.15-0.126-0.385-0.158-0.53,0C436.862,437.854,436.83,438.11,436.99,438.245
					L436.99,438.245z"/>
				<path style="fill:#407BFF;" d="M439.532,436.83c0.309,0.27,0.597,0.563,0.861,0.878c0.032,0.038,0.063,0.076,0.094,0.115
					c0.014,0.017,0.028,0.034,0.041,0.052c0.018,0.023,0.045,0.057,0.012,0.015c0.06,0.078,0.118,0.158,0.175,0.238
					c0.12,0.169,0.232,0.344,0.337,0.522c0.1,0.169,0.342,0.245,0.513,0.135c0.17-0.11,0.241-0.332,0.134-0.513
					c-0.436-0.738-0.993-1.406-1.638-1.971c-0.148-0.129-0.387-0.156-0.53,0C439.402,436.441,439.374,436.692,439.532,436.83
					L439.532,436.83z"/>
				<path style="fill:#407BFF;" d="M441.413,435.658c0.148,0.074,0.29,0.158,0.425,0.253c0.034,0.024,0.066,0.048,0.099,0.073
					c0.037,0.028-0.066-0.052-0.014-0.011c0.017,0.014,0.035,0.028,0.052,0.042c0.062,0.052,0.123,0.106,0.181,0.163
					c0.058,0.056,0.114,0.115,0.167,0.175c0.024,0.027,0.048,0.055,0.071,0.083c0.014,0.017,0.027,0.035,0.041,0.051
					c-0.011-0.014-0.021-0.028-0.032-0.041c0.009,0.012,0.018,0.023,0.026,0.035c0.095,0.128,0.179,0.262,0.252,0.404
					c0.091,0.174,0.349,0.241,0.513,0.134c0.177-0.114,0.232-0.327,0.134-0.513c-0.335-0.643-0.893-1.171-1.538-1.495
					c-0.175-0.088-0.414-0.052-0.513,0.134C441.189,435.315,441.226,435.564,441.413,435.658L441.413,435.658z"/>
				<path style="fill:#407BFF;" d="M441.604,433.13c0.188,0.002,0.376,0.012,0.564,0.031c0.04,0.004,0.08,0.009,0.12,0.013
					c0.082,0.009-0.015-0.004,0.06,0.008c0.093,0.014,0.186,0.029,0.278,0.047c0.355,0.068,0.702,0.168,1.039,0.296
					c0.184,0.07,0.419-0.077,0.461-0.262c0.049-0.214-0.065-0.386-0.262-0.461c-0.72-0.274-1.49-0.413-2.26-0.422
					c-0.196-0.002-0.384,0.174-0.375,0.375C441.238,432.96,441.394,433.128,441.604,433.13L441.604,433.13z"/>
				<g style="opacity:0.3;">
					<path d="M449.387,433.375c0.043,0.726,0.321,1.522,1.023,1.858c0.435,0.209,0.951,0.201,1.441,0.187
						c1.467-0.039,2.933-0.078,4.4-0.117l0.018-0.039c0.232-1.911,0.853-6.575-0.965-6.573c-1.431-0.002-2.934,2.676-5.926,1.894
						C449.402,431.598,449.358,432.888,449.387,433.375z"/>
				</g>
			</g>
			<g id="freepik--character-2--inject-2">
				<path style="fill:#407BFF;" d="M503.83,318.644c0,0-32.167,4.438-50.657,12.428c-6.419,2.774-10.213,8.459-11.045,14.616
					c-4.099,33.374-0.78,73.922-0.78,73.922l15.451,2.1c0,0,8.228-37.999,8.044-64.839c16.867-4.76,60.677-1.662,65.837-15.636
					c2.52-7.244,3.187-15.004,1.939-22.572L503.83,318.644z"/>
				<path style="opacity:0.3;enable-background:new    ;" d="M497.52,325.301c0,0-23.782,22.203-22.705,29.775
					c-3.368,0.349-6.705,0.949-9.983,1.795c0.008,2.608,0.116,5.787-0.172,8.38C454.626,350.293,455.576,335.92,497.52,325.301z"/>
				<g>
					<g>
						<g>
							<g>
								<polygon style="fill:#E4897B;" points="503.844,413.455 507.374,433.945 500.032,435.365 491.211,416.406 								"/>
							</g>
						</g>
					</g>
					<path style="fill:#263238;" d="M495.034,431.514c-0.41-1.198-0.57-2.24,0.845-2.661l2.004-0.596
						c0.767-0.186,1.429,0.151,2.139,0.395c5.37,1.842,6.35-2.452,8.156-2.887c2.319-0.563,2.473,6.599,2.669,6.929l4.445,7.279
						c0.38,0.606,0.279,2.136-0.446,2.511c-0.129,0.067-0.267,0.117-0.41,0.15c-4.117,0.997-6.065,1.468-11.19,2.709l-15.673,3.794
						c-4.272,1.034-5.483-3.752-3.806-4.52c7.552-3.412,10.099-6.543,12.285-8.911C496.054,435.706,495.664,433.355,495.034,431.514
						z"/>
					<path style="opacity:0.4;fill:#FFFFFF;" d="M487.575,449.136l15.673-3.794c5.125-1.24,7.073-1.712,11.19-2.709
						c0.143-0.033,0.281-0.083,0.41-0.15c0.492-0.254,0.69-1.039,0.652-1.708l-0.156-0.598l-31.71,7.676
						C484.325,448.868,485.629,449.607,487.575,449.136z"/>
					<path style="fill:#407BFF;" d="M492.559,439.644c0.394,0.197,0.77,0.428,1.122,0.693c0.005,0.004,0.06,0.046,0.033,0.025
						c-0.029-0.023,0.049,0.039,0.047,0.037c0.042,0.034,0.083,0.068,0.125,0.102c0.082,0.069,0.162,0.139,0.241,0.212
						c0.161,0.148,0.315,0.304,0.461,0.467c0.132,0.146,0.398,0.144,0.53,0c0.143-0.156,0.14-0.374,0-0.53
						c-0.613-0.682-1.362-1.244-2.181-1.654c-0.175-0.088-0.414-0.052-0.513,0.134C492.335,439.301,492.372,439.551,492.559,439.644
						L492.559,439.644z"/>
					<path style="fill:#407BFF;" d="M494.697,437.671c0.363,0.19,0.713,0.406,1.043,0.65c0.018,0.014,0.037,0.027,0.055,0.041
						c0.005,0.004,0.06,0.046,0.03,0.023c-0.035-0.027,0.037,0.029,0.043,0.034c0.018,0.014,0.036,0.029,0.054,0.043
						c0.08,0.064,0.159,0.131,0.236,0.198c0.154,0.135,0.302,0.276,0.445,0.423c0.137,0.141,0.395,0.148,0.53,0
						c0.139-0.151,0.146-0.38,0-0.53c-0.598-0.614-1.298-1.132-2.057-1.529c-0.174-0.091-0.415-0.05-0.513,0.135
						C494.471,437.331,494.511,437.574,494.697,437.671L494.697,437.671z"/>
					<path style="fill:#407BFF;" d="M496.251,436.088c0.16,0.037,0.318,0.085,0.471,0.145c0.012,0.005,0.038,0.021,0.05,0.02
						c-0.031,0.003-0.059-0.026-0.002,0c0.037,0.017,0.074,0.034,0.11,0.052c0.073,0.036,0.144,0.074,0.214,0.115
						c0.065,0.038,0.129,0.079,0.192,0.122c0.033,0.023,0.065,0.046,0.097,0.07c0.071,0.052-0.042-0.035-0.002-0.002
						c0.013,0.011,0.027,0.022,0.041,0.033c0.125,0.104,0.241,0.217,0.349,0.34c0.129,0.148,0.4,0.142,0.53,0
						c0.145-0.158,0.138-0.372,0-0.53c-0.478-0.547-1.146-0.925-1.85-1.089c-0.191-0.044-0.415,0.059-0.461,0.262
						C495.946,435.818,496.047,436.041,496.251,436.088L496.251,436.088z"/>
					<path style="fill:#407BFF;" d="M495.845,433.581c0.369-0.085,0.642-0.124,1.017-0.142c0.36-0.017,0.721-0.002,1.079,0.044
						c0.195,0.025,0.383-0.19,0.375-0.375c-0.01-0.224-0.166-0.349-0.375-0.375c-0.766-0.097-1.544-0.048-2.296,0.125
						c-0.191,0.044-0.322,0.274-0.262,0.461C495.449,433.519,495.64,433.628,495.845,433.581L495.845,433.581z"/>
					<g style="opacity:0.3;">
						<path d="M503.456,431.991c0.212,0.695,0.67,1.403,1.431,1.565c0.472,0.1,0.971-0.029,1.445-0.157
							c1.416-0.383,2.833-0.766,4.249-1.149l0.008-0.042c-0.225-1.912-0.718-6.591-2.484-6.161
							c-1.391,0.335-2.222,3.291-5.314,3.235C503.053,430.26,503.313,431.524,503.456,431.991z"/>
					</g>
				</g>
				<path style="fill:#407BFF;" d="M524.668,318.705c0,0-60.328,10.434-58.142,28.461c3.15,26.009,25.345,79.154,25.345,79.154
					l18.206-6.523c0,0-11.672-47.284-15.667-66.261c15.503,0,47.505,1.674,52.666-12.3c2.514-7.116,3.021-14.786,1.467-22.171
					L524.668,318.705z"/>
			</g>
		</g>
		<path style="fill:#263238;" d="M514.937,242.924c5.355,3.906,6.022,14.894-10.527,38.525l-13.137-13.89
			c3.404-6.011,6.36-8.954,11.415-16.105C509.566,241.421,514.937,242.924,514.937,242.924z"/>
		<path style="opacity:0.3;enable-background:new    ;" d="M502.339,319.387c0,0,10.375,13.288,26.986,15.379
			c16.611,2.091,19.766-2.015,19.766-2.015s0.076-6.473,0.334-6.143c0.257,0.33-45.378-9.133-45.378-9.133L502.339,319.387z"/>
		<g>
			<path style="fill:#263238;" d="M514.779,242.714c4.26-0.306,21.305-2.207,38.666,1.308l-1.68,61.489c0,0,0.862,22.619,0,24.674
				c-18.232,7.453-40.993-3.397-52.525-10.84c0.122,0.297,3.177-7.844,3.177-7.844c2.126-19.603,5.524-50.164,8.743-67.803
				C511.245,243.261,514.354,242.744,514.779,242.714z"/>
			<polygon style="opacity:0.2;enable-background:new    ;" points="551.537,281.371 550.58,281.495 547.133,264.589 
				548.729,283.566 551.765,284.06 			"/>
		</g>
		<polygon style="opacity:0.2;enable-background:new    ;" points="506.21,278.828 508.936,257.678 502.748,279.691 504.41,281.449 
					"/>
		<g>
			<path style="fill:#407BFF;" d="M503.331,271.742c-0.016,4.218,2.916,7.539,6.68,7.548l0.036,0.64
				c-0.027,0.798,0.584,1.474,1.381,1.527l12.997,0.052c0.821-0.002,1.486-0.668,1.488-1.49l0.066-16.86
				c-0.073-0.577-0.581-0.998-1.161-0.964l-13.561-0.042c-0.576-0.058-1.1,0.338-1.199,0.909l0,1.184
				C506.293,264.225,503.347,267.524,503.331,271.742z M505.744,271.75c0.018-2.823,1.982-5.281,4.306-5.279l-0.044,10.595
				C507.67,277.053,505.726,274.573,505.744,271.75z"/>
			<g>
				<g>
					<path style="fill:#E4897B;" d="M551.171,275.684l0.594,11.346l-21.545-12.319l-5.948,7.073c0,0,26.584,24.073,34.951,24.337
						c12.216,0.385,6.086-32.806,6.086-32.806L551.171,275.684z"/>
					<path style="fill:#263238;" d="M553.445,244.018c0,0,6.838,1.265,8.483,9.833c1.515,7.889,5.768,25.428,5.768,25.428
						l-17.116,2.217l-3.447-20.518L553.445,244.018z"/>
				</g>
				<path style="fill:#E4897B;" d="M525.53,268.432c0,0-8.871-3.997-9.33-3.399c-0.459,0.599-1.353,2.788-0.726,4.324
					c0,0-1.312,1.834-0.025,3.453l0.946,0.913c0,0-2.271,0.716-0.542,3.375c1.729,2.659,6.229,4.567,8.77,5.22
					c2.541,0.652,6.68-1.47,6.597-1.915c-0.083-0.446-1.435-10.282-2.123-12.75c-0.688-2.469-2.844-3.965-3.123-3.971
					L525.53,268.432z"/>
			</g>
		</g>
	</g>
</g>
<g id="Table">
	<polygon style="fill:#263238;" points="425.737,446.379 375.397,446.379 375.397,321.582 377.397,321.582 377.397,444.399 
		423.737,444.399 423.737,321.582 425.737,321.582 	"/>
	<g id="freepik--Desk--inject-2">
		<rect x="357.175" y="315.632" style="fill:#407BFF;" width="254.648" height="5.95"/>
		<rect x="357.175" y="315.632" style="opacity:0.2;enable-background:new    ;" width="254.648" height="5.95"/>
		<rect x="535.861" y="315.632" style="opacity:0.2;enable-background:new    ;" width="75.962" height="5.95"/>
		<polygon style="fill:#263238;" points="608.128,447.682 557.788,447.682 557.788,321.582 559.788,321.582 559.788,445.682 
			606.128,445.682 606.128,321.582 608.128,321.582 		"/>
	</g>
	<g>
		<g>
			<g>
				<g>
					<path style="fill:#263238;" d="M422.064,315.902h34.828c0.601-0.004,1.084-0.398,1.079-0.88
						c-0.001-0.091-0.02-0.181-0.055-0.267l-15.493-35.52c-0.391-1.014-1.558-1.708-2.881-1.713h-34.849
						c-0.589,0-1.067,0.384-1.067,0.857c0,0.099,0.022,0.198,0.064,0.291l15.493,35.52
						C419.58,315.201,420.743,315.892,422.064,315.902z"/>
					<path style="opacity:0.7;fill:#FFFFFF;" d="M404.693,277.522h34.849c1.323,0.005,2.49,0.698,2.881,1.713l15.493,35.52
						c0.035,0.086,0.054,0.176,0.055,0.267c0.005,0.482-0.478,0.876-1.079,0.88h-34.828c-1.321-0.01-2.484-0.702-2.881-1.712
						l-15.493-35.52c-0.042-0.093-0.064-0.192-0.064-0.291C403.626,277.906,404.104,277.523,404.693,277.522z"/>
					<path style="fill:#FFFFFF;" d="M426.276,297.503c0.753,1.705,2.278,2.875,3.416,2.637c1.137-0.238,1.441-1.792,0.71-3.501
						c-0.73-1.709-2.274-2.853-3.411-2.615C425.854,294.263,425.514,295.754,426.276,297.503z"/>
				</g>
				<path style="opacity:0.3;" d="M439.335,277.522h0.207c1.323,0.005,2.49,0.698,2.881,1.713l15.493,35.52
					c0.035,0.086,0.054,0.176,0.055,0.267c0.005,0.482-0.478,0.876-1.079,0.88h-1.115L439.335,277.522z"/>
			</g>
		</g>
		<path style="fill:#263238;" d="M490.986,315.902h-36.257v-2.445h33.812C489.891,313.458,490.986,314.552,490.986,315.902
			L490.986,315.902z"/>
		<path style="opacity:0.7;fill:#FFFFFF;" d="M490.986,315.902h-36.257v-2.445h33.812
			C489.891,313.458,490.986,314.552,490.986,315.902L490.986,315.902z"/>
	</g>
</g>
<g id="Character_1">
	<g>
		<g>
			<path style="fill:#407BFF;" d="M138.76,207.866c0,0,13.485,31.935,15.209,32.1c1.724,0.165,23.767-8.426,23.767-8.426
				l3.429,3.874c0,0-11.545,15.438-29.821,20.339c-3.283,0.881-7.428-2.838-11.38-7.923c-0.775-0.988-1.53-2.034-2.286-3.109
				c-4.066-6.028-7.713-12.328-10.915-18.857L138.76,207.866z"/>
			<path style="opacity:0.6;fill:#FFFFFF;" d="M138.76,207.866c0,0,13.485,31.935,15.209,32.1
				c1.724,0.165,23.767-8.426,23.767-8.426l3.429,3.874c0,0-11.545,15.438-29.821,20.339c-3.283,0.881-7.428-2.838-11.38-7.923
				c-0.775-0.988-1.53-2.034-2.286-3.109c-4.066-6.028-7.713-12.328-10.915-18.857L138.76,207.866z"/>
			<path style="opacity:0.2;enable-background:new    ;" d="M141.379,216.208c0.852,3.765,2.846,9.417,4.421,13.428
				c0.51,1.298,0.733,2.704,0.497,4.079c-0.68,3.959-4.1,5.226-5.238,8.382c-0.637,1.849-1.005,3.78-1.094,5.734
				c-0.775-0.988-1.53-2.034-2.286-3.109l-1.685-6.663L141.379,216.208z"/>
		</g>
		<g>
			<polygon style="fill:#B97964;" points="103.466,441.078 111.692,440.709 114.742,419.311 102.209,419.737 			"/>
			<g>
				<path style="fill:#263238;" d="M112.695,436.956h-2.926c-0.662,0-1.274,0.335-1.666,0.869c-1.687,2.304-2.955,1.433-4.791-0.733
					c-1.167-0.136-1.481,1.203-1.576,1.563l-2.187,7.957c-0.19,0.664,0.195,1.357,0.859,1.547c0.118,0.034,0.241,0.05,0.363,0.048
					c3.553,0,5.234,0,9.657,0h13.525c3.687,0,4.451-3.715,2.932-4.059c-6.829-1.509-11.665-3.519-13.776-5.505
					C112.718,438.293,113.12,438.033,112.695,436.956z"/>
				<path style="fill:#407BFF;" d="M118.421,439.616c0.308-0.221,0.492-0.576,0.497-0.955c0.026-0.203-0.067-0.404-0.239-0.516
					c-0.917-0.649-4.575,1.06-4.986,1.261c-0.046,0.016-0.082,0.052-0.098,0.098c-0.03,0.084,0.013,0.177,0.098,0.208
					c0.899,0.213,1.818,0.331,2.741,0.353C117.127,440.131,117.823,439.974,118.421,439.616z M118.449,438.422
					c0.074,0.046,0.113,0.134,0.096,0.22c-0.015,0.274-0.147,0.528-0.363,0.697c-0.831,0.621-2.837,0.353-3.916,0.153
					C115.785,438.823,117.943,438.069,118.449,438.422z"/>
				<path style="fill:#407BFF;" d="M113.817,439.75c1.098-0.458,3.4-2.264,3.276-3.219c-0.019-0.2-0.162-0.439-0.659-0.506
					c-2.006-0.229-2.865,3.372-2.865,3.525c-0.02,0.062-0.001,0.129,0.048,0.172c0.037,0.011,0.077,0.011,0.115,0L113.817,439.75z
					 M116.367,436.321c0.373,0.038,0.373,0.172,0.373,0.22c0.105,0.583-1.567,2.082-2.761,2.713c0.248-0.84,0.984-2.942,2.254-2.942
					L116.367,436.321z"/>
				<path style="fill:#407BFF;" d="M111.618,441.462c-0.046,0-0.092-0.013-0.133-0.038c-0.117-0.074-0.152-0.228-0.078-0.345
					c0.583-0.927,1.579-1.567,2.663-1.715c0.14-0.017,0.263,0.077,0.281,0.215c0.019,0.137-0.077,0.263-0.214,0.281
					c-0.939,0.127-1.801,0.683-2.307,1.484C111.782,441.421,111.701,441.462,111.618,441.462z"/>
				<path style="fill:#407BFF;" d="M113.437,442.831c-0.046,0-0.092-0.013-0.133-0.038c-0.117-0.074-0.152-0.228-0.078-0.345
					c0.583-0.926,1.579-1.567,2.663-1.716c0.132-0.013,0.262,0.077,0.281,0.214c0.019,0.137-0.077,0.264-0.214,0.282
					c-0.939,0.128-1.802,0.684-2.307,1.485C113.601,442.79,113.52,442.831,113.437,442.831z"/>
				<path style="fill:#407BFF;" d="M115.699,443.982c-0.046,0-0.092-0.013-0.133-0.038c-0.117-0.074-0.152-0.229-0.078-0.345
					c0.583-0.926,1.578-1.567,2.662-1.716c0.135-0.014,0.263,0.077,0.281,0.214c0.019,0.137-0.077,0.264-0.214,0.282
					c-0.939,0.128-1.802,0.684-2.307,1.485C115.863,443.941,115.782,443.982,115.699,443.982z"/>
			</g>
			<polygon style="opacity:0.3;" points="113.079,430.977 112.687,433.729 103.023,433.559 102.871,430.977 			"/>
		</g>
		<g>
			<polygon style="fill:#B97964;" points="137.743,438.962 146.672,437.831 148.639,417.659 136.391,417.317 			"/>
			<g>
				<path style="fill:#263238;" d="M147.125,436.146h-2.926c-0.662,0-1.275,0.335-1.666,0.869c-1.687,2.304-2.955,1.433-4.791-0.733
					c-1.167-0.136-1.481,1.203-1.576,1.563l-2.187,7.956c-0.19,0.664,0.195,1.357,0.859,1.547c0.118,0.034,0.241,0.05,0.363,0.048
					c3.553,0,5.234,0,9.657,0h13.525c3.687,0,4.451-3.716,2.932-4.059c-6.829-1.509-11.665-3.519-13.776-5.505
					C147.149,437.483,147.551,437.223,147.125,436.146z"/>
				<path style="fill:#407BFF;" d="M153.474,438.408c0.308-0.221,0.492-0.576,0.497-0.955c0.026-0.204-0.067-0.404-0.239-0.516
					c-0.917-0.65-4.575,1.06-4.986,1.261c-0.046,0.016-0.082,0.052-0.098,0.098c-0.03,0.084,0.013,0.177,0.098,0.208
					c0.899,0.213,1.818,0.331,2.741,0.353C152.181,438.923,152.877,438.766,153.474,438.408z M153.503,437.214
					c0.075,0.046,0.113,0.134,0.096,0.22c-0.015,0.274-0.148,0.528-0.363,0.697c-0.831,0.621-2.837,0.353-3.916,0.153
					C150.838,437.616,152.997,436.861,153.503,437.214z"/>
				<path style="fill:#407BFF;" d="M148.871,438.542c1.098-0.458,3.4-2.264,3.276-3.219c-0.019-0.201-0.162-0.439-0.659-0.506
					c-2.006-0.229-2.865,3.372-2.865,3.524c-0.02,0.062-0.001,0.129,0.048,0.172c0.037,0.011,0.077,0.011,0.115,0L148.871,438.542z
					 M151.421,435.113c0.373,0.038,0.373,0.172,0.373,0.22c0.105,0.583-1.566,2.082-2.76,2.713c0.248-0.841,0.984-2.942,2.254-2.942
					L151.421,435.113z"/>
				<path style="fill:#407BFF;" d="M146.672,440.254c-0.046,0-0.092-0.013-0.133-0.038c-0.117-0.074-0.152-0.228-0.078-0.345
					c0.583-0.927,1.579-1.567,2.663-1.716c0.133-0.016,0.263,0.077,0.281,0.214c0.019,0.137-0.077,0.264-0.214,0.282
					c-0.939,0.128-1.802,0.684-2.307,1.485C146.836,440.213,146.755,440.254,146.672,440.254z"/>
				<path style="fill:#407BFF;" d="M148.49,441.623c-0.046,0-0.092-0.013-0.133-0.038c-0.117-0.074-0.152-0.229-0.078-0.345
					c0.583-0.926,1.578-1.567,2.663-1.716c0.13-0.013,0.262,0.077,0.281,0.214c0.019,0.137-0.077,0.264-0.214,0.282
					c-0.94,0.128-1.802,0.684-2.307,1.485C148.654,441.582,148.573,441.623,148.49,441.623z"/>
				<path style="fill:#407BFF;" d="M150.752,442.774c-0.046,0-0.092-0.013-0.133-0.038c-0.117-0.074-0.152-0.228-0.078-0.345
					c0.583-0.926,1.578-1.567,2.663-1.716c0.133-0.014,0.263,0.077,0.281,0.214c0.019,0.137-0.077,0.264-0.214,0.282
					c-0.939,0.128-1.802,0.684-2.307,1.485C150.917,442.733,150.835,442.774,150.752,442.774z"/>
			</g>
			<polygon style="opacity:0.3;" points="147.458,429.768 147.189,432.529 137.337,432.466 137.169,429.768 			"/>
		</g>
		<g>
			<g>
				<path style="fill:#263238;" d="M94.914,236.264c5.197-8.111-2.035-16.151-1.87-25.61c0.164-9.459,4.221-18.833,4.727-28.283
					c0.243-4.545,0.873-9.146,2.8-13.324c1.927-4.178,5.489-8.613,9.965-10.325l22.575,9.647
					c3.531,16.448,3.362,27.015,2.908,37.215c-0.457,10.24-1.212,20.104-3.564,31.788c-0.296,1.472-0.637,2.999-1.608,4.186
					c-1.313,1.606-3.507,2.279-5.563,2.866c-5.236,1.495-10.51,2.996-15.946,3.548c-5.435,0.551-6.433-0.028-11.334-2.288
					c-1.655-0.763-4.184-2.33-4.412-4.057C93.398,240.163,94.102,237.531,94.914,236.264z"/>
			</g>
		</g>
		<g>
			<path style="fill:#263238;" d="M118.807,269.96l22.935,0.094c0,0,8.013,40.341,7.543,85.573
				c0.936,26.554,0.185,75.382,0.185,75.382h-14.915c0,0-9.503-39.656-5.698-71.076c-1.384-5.418-3.233-14.799-4.32-19.587
				c-3.045-12.907-5.335-25.98-6.861-39.154C115.055,276.501,118.807,269.96,118.807,269.96z"/>
			<path style="opacity:0.2;enable-background:new    ;" d="M120.838,285.804c0,0,8.269,37.14,3.698,54.542
				c-3.045-12.907-5.335-25.98-6.861-39.154L120.838,285.804z"/>
			<path style="fill:#263238;" d="M99.528,259.396c-2.002,8.962-9.846,19.909-11.433,31.373c-2.71,19.58,9.061,43.935,12.142,66.908
				c-4.651,33.977,2.479,75.178,1.535,74.287l14.974,0.014c0.454-3.039,3.525-49.075,5.049-76.351
				c1.292-23.872,3.357-83.911,3.357-83.911L99.528,259.396z"/>
		</g>
		<g>
			<path style="fill:#407BFF;" d="M140.003,239.607c-1.152,7.913,0.559,24.818,3.878,36.477c1.18,4.145-32.372,3.59-51.2-2.628
				l6.288-19.482c-0.019-1.608-3.13-13.138-3.208-14.833c-0.382-8.222-1.298-16.41-2.741-24.513
				c-0.062-0.352-0.106-0.706-0.131-1.062c-0.308-4.401-0.422-7.807,3.409-9.465c1.023-0.443,4.806-1.256,5.981-1.338
				c1.608-0.116,3.487-0.365,5.23-0.413c1.743-0.048,1.791-0.279,3.399-0.279c4.396-0.084,10.217,0.544,14.585,1.041l0.969,0.126
				c1.637,0.213,3.303,0.484,4.91,0.755c0,0,4.073,0.585,6.397,2.533c2.324,1.948,7.631,22.082,6.703,27.333
				C143.668,238.425,140.003,239.607,140.003,239.607z"/>
			<path style="opacity:0.6;fill:#FFFFFF;" d="M140.003,239.607c-1.152,7.913,0.559,24.818,3.878,36.477
				c1.18,4.145-32.372,3.59-51.2-2.628l6.288-19.482c-0.019-1.608-3.13-13.138-3.208-14.833c-0.382-8.222-1.298-16.41-2.741-24.513
				c-0.062-0.352-0.106-0.706-0.131-1.062c-0.308-4.401-0.422-7.807,3.409-9.465c1.023-0.443,4.806-1.256,5.981-1.338
				c1.608-0.116,3.487-0.365,5.23-0.413c1.743-0.048,1.791-0.279,3.399-0.279c4.396-0.084,10.217,0.544,14.585,1.041l0.969,0.126
				c1.637,0.213,3.303,0.484,4.91,0.755c0,0,4.073,0.585,6.397,2.533c2.324,1.948,7.631,22.082,6.703,27.333
				C143.668,238.425,140.003,239.607,140.003,239.607z"/>
			<path style="opacity:0.2;enable-background:new    ;" d="M96.882,260.444l-2.042,6.326c0,0,22.835-4.012,34.279-14.245
				c8.149-7.287,6.874-10.355,6.874-10.355l-9.23,0.891L96.882,260.444z"/>
			<path style="opacity:0.2;enable-background:new    ;" d="M102.238,225.268l0.442,21.923c-3.447,2.193-4.531,3.535-5.055,0.394
				l-1.886-8.906L102.238,225.268z"/>
		</g>
		<g>
			<path style="fill:#407BFF;" d="M102.238,225.268c0,0-8.646,21.414-7.086,22.402c1.559,0.988,26.447-5.821,26.447-5.821
				l4.804,6.349c-0.843,3.7-44.667,26.285-48.173,6.789c-2.131-11.845,11.116-43.656,11.116-43.656
				c3.335-5.941,7.972-8.776,9.8-7.086C103.928,208.669,102.238,225.268,102.238,225.268z"/>
			<path style="opacity:0.6;fill:#FFFFFF;" d="M102.238,225.268c0,0-8.646,21.414-7.086,22.402
				c1.559,0.988,26.447-5.821,26.447-5.821l4.804,6.349c-0.843,3.7-44.667,26.285-48.173,6.789
				c-2.131-11.845,11.116-43.656,11.116-43.656c3.335-5.941,7.972-8.776,9.8-7.086C103.928,208.669,102.238,225.268,102.238,225.268
				z"/>
			<g>
				<path style="fill:#B97964;" d="M126.403,248.199c2.942,0.233,3.046-4.198,4.576-4.373c0.891-0.086,1.763-0.308,2.586-0.659
					c0,0-0.969,2.663,0,2.45c0.968-0.213,4.077-0.368,4.843-2.905c0.765-2.538-2.005-7.961-2.634-8.717
					c-0.63-0.755-3.942-0.523-3.942-0.523s3.564-0.92,5.52-1.191c1.957-0.271,2.328-2.507-0.402-2.012
					c-1.121,0.203-9.971,0.269-10.93,1.18c-0.959,0.91-4.514,9.857-4.514,9.857C120.189,242.061,123.536,249.564,126.403,248.199z"
					/>
				<g style="opacity:0.3;">
					<path d="M131.797,233.191c-0.908-0.063-1.82-0.005-2.712,0.174c-0.134,0.037-0.214,0.175-0.177,0.309
						c0.032,0.117,0.143,0.195,0.264,0.185c0.844-0.169,1.707-0.228,2.567-0.174C132.059,233.685,132.117,233.211,131.797,233.191z"
						/>
					<path d="M136.359,235.874c0.281,0.145,0.571-0.262,0.291-0.407c-1.656-0.881-3.4-0.387-5.075,0.174
						c-0.3,0.097-0.087,0.552,0.213,0.455C133.26,235.603,134.887,235.128,136.359,235.874z"/>
					<path d="M137.657,238.063c-1.429-0.853-3.191-0.929-4.688-0.203c-0.118,0.074-0.153,0.23-0.079,0.347
						c0.06,0.095,0.175,0.139,0.282,0.108c1.339-0.653,2.916-0.595,4.203,0.155C137.647,238.634,137.938,238.228,137.657,238.063z"
						/>
					<path d="M135.278,241.777c0.127-0.26,0.231-0.533,0.301-0.819c0.068-0.31-0.397-0.484-0.475-0.174
						c-0.206,0.953-0.799,1.777-1.637,2.276c-0.281,0.155-0.068,0.61,0.203,0.455h-0.029c0.526-0.296,0.964-0.711,1.305-1.194
						c0.034,0.001,0.062,0.017,0.099,0.003c0.521-0.183,1.1-0.029,1.462,0.388c0.213,0.242,0.591-0.078,0.378-0.32
						C136.48,241.924,135.876,241.711,135.278,241.777z"/>
				</g>
			</g>
		</g>
		<g>
			<path style="fill:#263238;" d="M151.068,248.629c-1.013-0.391-1.554-1.684-1.208-2.888l9.018-36.326
				c0.516-1.714,1.886-2.872,3.417-2.888l23.633,0.493c0.258-0.026,0.517,0.009,0.762,0.104c1.013,0.391,1.553,1.685,1.207,2.889
				l-9.027,36.325c-0.516,1.714-1.886,2.872-3.417,2.888l-23.634-0.493C151.564,248.757,151.309,248.722,151.068,248.629z"/>
			<path style="fill:#B97964;" d="M182.037,226.145c-0.465-0.039-2.441,0.939-3.37,0.291c-0.93-0.649-0.058-1.182-0.058-1.182
				c1.705-0.417,3.574-2.547,4.61-1.937s2.751,1.375,2.499,2.344c-0.285,0.896-0.627,1.773-1.027,2.625
				c0.27,0.432,0.307,0.969,0.097,1.434c-0.213,0.535-0.684,0.926-1.249,1.036c0.325,0.328,0.494,0.779,0.465,1.24
				c-0.077,0.736-2.014,1.705-2.014,1.705s0.378,1.152-0.068,1.598c-0.756,0.622-1.761,0.852-2.712,0.62
				c-1.133-0.271-1.908-0.659-1.831-1.801c0.077-1.143,2.121-1.143,2.121-1.143s-3.835-1.162-3.022-1.889
				c0.813-0.726,3.874-0.639,3.874-0.639s-5.191-1.027-4.368-2.092c0.823-1.065,5.995-0.775,5.995-0.775
				S182.502,226.184,182.037,226.145z"/>
			<polygon style="fill:#263238;" points="181.211,205.617 168.195,205.391 167.07,208.267 180.306,208.527 			"/>
			<polygon style="fill:#263238;" points="172.678,205.835 172.678,203.505 178.907,203.505 177.489,206.189 			"/>
		</g>
		<g>
			<g>
				<g>
					<g>
						<path style="fill:#263238;" d="M122.185,164.065c0,0,7.233,13.033,7.575,17.088c2.768,2.357,4.736-2.423,4.633-8.828
							c-0.085-5.243-2.819-10.901-7.351-12.939C120.678,156.524,122.185,164.065,122.185,164.065z"/>
						<g>
							<g>
								<path style="fill:#B97964;" d="M120.825,201.744c-1.212-1.21-0.922-2.665-0.693-4.426c0.16-1.354,0.597-2.761,1.117-4.131
									l-1.808-1.965l-9.401-8.824c0.449,6.104,1.196,16.587-3.461,20.077l19.653,12.493l-1.817-11.957
									C124.415,203.012,122.603,202.74,120.825,201.744z"/>
								<path style="opacity:0.2;" d="M120.078,197.842c-2.548-1.39-5.378-3.859-5.156-6.806c0.101-1.241,0.325-2.421,0.594-3.182
									l5.31,6.524C120.449,195.474,120.323,196.194,120.078,197.842z"/>
								<path style="fill:#B97964;" d="M107.117,172.671c1.192,9.288,1.499,13.233,6.485,17.945
									c7.5,7.087,18.538,4.212,20.119-5.095c1.423-8.376-0.765-22.157-10.055-25.742
									C114.513,156.248,105.925,163.383,107.117,172.671z"/>
								<path style="fill:#263238;" d="M119.755,175.945c0.007,0.874,0.51,1.617,1.122,1.658c0.612,0.042,1.102-0.633,1.094-1.507
									c-0.007-0.874-0.51-1.617-1.121-1.658C120.238,174.396,119.748,175.071,119.755,175.945z"/>
								<path style="fill:#263238;" d="M128.622,175.266c-0.041,0.846,0.417,1.596,1.024,1.673c0.607,0.078,1.132-0.545,1.173-1.392
									c0.041-0.846-0.417-1.595-1.024-1.673C129.188,173.796,128.663,174.419,128.622,175.266z"/>
								<path style="fill:#263238;" d="M117.275,172.944c0.119,0.008,0.238-0.033,0.326-0.122c1.374-1.395,3.011-1.003,3.03-0.998
									c0.243,0.059,0.479-0.088,0.522-0.335c0.043-0.247-0.121-0.496-0.367-0.558c-0.086-0.021-2.141-0.515-3.845,1.217
									c-0.17,0.173-0.16,0.464,0.022,0.65C117.051,172.887,117.163,172.936,117.275,172.944z"/>
								<path style="fill:#263238;" d="M131.716,171.036c0.108-0.035,0.2-0.109,0.251-0.215c0.107-0.217,0.002-0.486-0.232-0.599
									c-2.352-1.135-4.185-0.151-4.262-0.107c-0.218,0.12-0.282,0.391-0.143,0.604c0.138,0.213,0.426,0.289,0.644,0.17
									c0.071-0.039,1.505-0.782,3.375,0.12C131.47,171.068,131.603,171.074,131.716,171.036z"/>
								<path style="fill:#B97964;" d="M104.573,180.368c1.17,1.871,3.002,3.007,4.657,3.358c2.489,0.529,3.619-3.483,2.687-5.924
									c-0.839-2.197-3.316-3.582-5.699-3.01C103.87,175.357,103.235,178.229,104.573,180.368z"/>
								<path style="fill:#C15854;" d="M125.969,174.542c0,0,1.584,3.435,3.308,5.55c0.301,0.369,0.144,0.931-0.298,1.111
									c-1.135,0.465-2.496,0.131-2.496,0.131L125.969,174.542z"/>
							</g>
							<path style="fill:#263238;" d="M120.664,174.408l2.162-0.404C122.825,174.003,121.581,175.542,120.664,174.408z"/>
							<path style="fill:#263238;" d="M129.481,173.885l2.182-0.275C130.601,174.774,129.755,174.268,129.481,173.885z"/>
						</g>
						<g>
							<path style="fill:#263238;" d="M104.6,167.582c-1.264,1.826,1.253,7.132,1.253,7.132s4.47-1.329,4.714,5.404
								c1.649,0.273,3.499-6.014,3.23-12.333C113.466,164.214,106.832,164.358,104.6,167.582z"/>
						</g>
						<path style="opacity:0.2;" d="M108.67,181.435c-0.019,0-0.039-0.002-0.058-0.007c-1.516-0.36-2.211-1.161-2.527-1.77
							c-0.311-0.598-0.383-1.274-0.188-1.766c0.309-0.776,1.261-1.369,2.191-1.013c0.129,0.049,0.193,0.194,0.144,0.323
							c-0.049,0.129-0.191,0.193-0.323,0.144c-0.642-0.248-1.331,0.188-1.547,0.73c-0.107,0.27-0.127,0.785,0.167,1.35
							c0.268,0.516,0.868,1.197,2.199,1.514c0.135,0.032,0.218,0.166,0.186,0.301C108.886,181.357,108.784,181.435,108.67,181.435z"
							/>
					</g>
				</g>
			</g>
			<g>
				<path style="fill:#263238;" d="M127.34,184.378c-0.7,1.028-1.557,3.03-1.557,3.03c-0.195-0.045-0.391-0.09-0.583-0.145
					c-2.635-0.676-3.634-1.861-3.942-2.968c-0.166-0.607-0.118-1.196-0.019-1.66c0.11-0.539,0.311-0.898,0.311-0.898
					c1.183,1.193,3.59,2.012,4.894,2.396C126.99,184.3,127.34,184.378,127.34,184.378z"/>
				<path style="fill:#FFFFFF;" d="M126.445,184.134l-0.482,0.881c-2.48-0.643-4.14-1.429-4.724-2.38
					c0.11-0.539,0.311-0.898,0.311-0.898C122.734,182.93,125.141,183.75,126.445,184.134z"/>
				<path style="fill:#DC5753;" d="M125.2,187.264c-2.635-0.676-3.634-1.861-3.942-2.968c0.889,0.265,1.931,0.684,2.777,1.331
					C124.683,186.118,125.019,186.708,125.2,187.264z"/>
			</g>
			<path style="fill:#263238;" d="M130.949,162.399c-1.971-4.098-10.003-7.906-19.237-3.949
				c-8.343,3.563-10.753,15.709-4.723,16.166c6.03,0.457,13.14-5.444,13.14-5.444L130.949,162.399z"/>
		</g>
	</g>
</g>
</svg>
