<svg version="1.2" xmlns="http://www.w3.org/2000/svg" viewBox="0 0 750 500" width="750" height="500"><defs><linearGradient id="P" gradientUnits="userSpaceOnUse"/><linearGradient id="g1" x1="427" y1="169.5" x2="481.7" y2="179.8" href="#P"><stop stop-color="#0e2d34"/><stop offset="1" stop-color="#1b7154"/></linearGradient><linearGradient id="g2" x1="557.8" y1="231" x2="462.9" y2="242.5" href="#P"><stop stop-color="#0e2d34"/><stop offset="1" stop-color="#1b7154"/></linearGradient><linearGradient id="g3" x1="444.7" y1="172.3" x2="402.2" y2="157.4" href="#P"><stop stop-color="#7fb99c"/><stop offset="1" stop-color="#1b7154"/></linearGradient><linearGradient id="g4" x1="331.2" y1="192.2" x2="333.5" y2="120.8" href="#P"><stop stop-color="#0e2d34"/><stop offset="1" stop-color="#1b7154"/></linearGradient><linearGradient id="g5" x1="358.1" y1="136.4" x2="383.8" y2="144.2" href="#P"><stop stop-color="#add08a"/><stop offset="1" stop-color="#5f9850"/></linearGradient><linearGradient id="g6" x1="507.2" y1="184.8" x2="465.6" y2="227" href="#P"><stop stop-color="#add08a"/><stop offset="1" stop-color="#5f9850"/></linearGradient><linearGradient id="g7" x1="108.4" y1="186" x2="98.2" y2="102.6" href="#P"><stop stop-color="#0e2d34"/><stop offset="1" stop-color="#1b7154"/></linearGradient><linearGradient id="g8" x1="67.2" y1="245.6" x2="102.9" y2="186.6" href="#P"><stop stop-color="#7fb99c"/><stop offset="1" stop-color="#1b7154"/></linearGradient><linearGradient id="g9" x1="148.8" y1="196.2" x2="187.9" y2="196.5" href="#P"><stop stop-color="#7fb99c"/><stop offset="1" stop-color="#1b7154"/></linearGradient><linearGradient id="g10" x1="130.9" y1="227.7" x2="138.4" y2="220.6" href="#P"><stop stop-color="#add08a"/><stop offset="1" stop-color="#5f9850"/></linearGradient><linearGradient id="g11" x1="298.7" y1="98" x2="266.6" y2="199.1" href="#P"><stop stop-color="#707386"/><stop offset="1" stop-color="#101537"/></linearGradient><linearGradient id="g12" x1="321.2" y1="353" x2="294.6" y2="545.9" href="#P"><stop stop-color="#3b405f"/><stop offset="1" stop-color="#00000f"/></linearGradient><linearGradient id="g13" x1="306.2" y1="431.4" x2="305.5" y2="474.6" href="#P"><stop stop-color="#3b405f"/><stop offset="1" stop-color="#00000f"/></linearGradient><linearGradient id="g14" x1="306.4" y1="297.4" x2="316.4" y2="445.1" href="#P"><stop stop-color="#101537"/><stop offset="1" stop-color="#00000f"/></linearGradient><linearGradient id="g15" x1="301" y1="234.5" x2="327.2" y2="466.2" href="#P"><stop stop-color="#3b405f"/><stop offset="1" stop-color="#00000f"/></linearGradient><linearGradient id="g16" x1="291" y1="274.1" x2="311.6" y2="274.1" href="#P"><stop stop-color="#ebebec"/><stop offset="1" stop-color="#fff"/></linearGradient><linearGradient id="g17" x1="303.9" y1="433.8" x2="321.1" y2="386.7" href="#P"><stop stop-color="#3b405f"/><stop offset="1" stop-color="#00000f"/></linearGradient><linearGradient id="g18" x1="237.9" y1="191.2" x2="237.9" y2="477.6" href="#P"><stop stop-color="#aeabba"/><stop offset="1" stop-color="#101537"/></linearGradient><linearGradient id="g19" x1="244.5" y1="259.2" x2="219.2" y2="401.4" href="#P"><stop stop-color="#707386"/><stop offset="1" stop-color="#101537"/></linearGradient><linearGradient id="g20" x1="214.3" y1="266.1" x2="123.2" y2="451.2" href="#P"><stop stop-color="#c7c3d1"/><stop offset="1" stop-color="#3b405f"/></linearGradient><linearGradient id="g21" x1="156.7" y1="218" x2="156.7" y2="179.9" href="#P"><stop stop-color="#d62747"/><stop offset="1" stop-color="#b02747"/></linearGradient><linearGradient id="g22" x1="191.8" y1="271.8" x2="191.8" y2="223.6" href="#P"><stop stop-color="#d62747"/><stop offset="1" stop-color="#b02747"/></linearGradient><linearGradient id="g23" x1="139" y1="276.6" x2="68.3" y2="296.8" href="#P"><stop stop-color="#add08a"/><stop offset="1" stop-color="#5f9850"/></linearGradient><linearGradient id="g24" x1="473.2" y1="385.1" x2="428.5" y2="358.6" href="#P"><stop stop-color="#0e2d34"/><stop offset="1" stop-color="#1b7154"/></linearGradient><linearGradient id="g25" x1="464.5" y1="331.9" x2="496.3" y2="324.7" href="#P"><stop stop-color="#7fb99c"/><stop offset="1" stop-color="#1b7154"/></linearGradient><linearGradient id="g26" x1="510" y1="359.3" x2="490" y2="362.1" href="#P"><stop stop-color="#add08a"/><stop offset="1" stop-color="#5f9850"/></linearGradient><linearGradient id="g27" x1="475.3" y1="423.7" x2="464.4" y2="445.1" href="#P"><stop stop-color="#3b405f"/><stop offset="1" stop-color="#00000f"/></linearGradient><linearGradient id="g28" x1="543.1" y1="188.8" x2="548.1" y2="291.4" href="#P"><stop stop-color="#d62747"/><stop offset="1" stop-color="#8b2747"/></linearGradient><linearGradient id="g29" x1="544" y1="259.5" x2="544" y2="156.1" href="#P"><stop stop-color="#d62747"/><stop offset="1" stop-color="#b02747"/></linearGradient><linearGradient id="g30" x1="356" y1="245.5" x2="356" y2="263" href="#P"><stop stop-color="#d62747"/><stop offset="1" stop-color="#b02747"/></linearGradient><linearGradient id="g31" x1="393.3" y1="245.5" x2="393.3" y2="263" href="#P"><stop stop-color="#d62747"/><stop offset="1" stop-color="#b02747"/></linearGradient><linearGradient id="g32" x1="372.6" y1="288.1" x2="372.6" y2="348.6" href="#P"><stop stop-color="#00000f"/><stop offset="1" stop-color="#101537"/></linearGradient><linearGradient id="g33" x1="372.5" y1="284.1" x2="372.5" y2="368.4" href="#P"><stop stop-color="#d62747"/><stop offset="1" stop-color="#b02747"/></linearGradient></defs><style>.a{fill:#e1e8f6}.b{fill:url(#g1)}.c{fill:#0e2d34}.d{fill:url(#g2)}.e{fill:url(#g3)}.f{fill:#1b7154}.g{fill:url(#g4)}.h{fill:url(#g5)}.i{fill:#5f9850}.j{fill:url(#g6)}.k{fill:url(#g7)}.l{fill:url(#g8)}.m{fill:url(#g9)}.n{fill:url(#g10)}.o{fill:url(#g11)}.p{fill:#00000f}.q{fill:url(#g12)}.r{fill:url(#g13)}.s{fill:url(#g14)}.t{fill:url(#g15)}.u{fill:url(#g16)}.v{fill:#b4c5e6}.w{fill:#e4e1e8}.x{fill:#9fb2d9}.y{fill:url(#g17)}.z{fill:url(#g18)}.A{fill:#6e6f80}.B{fill:#3d3e58}.C{fill:url(#g19)}.D{fill:url(#g20)}.E{fill:#fff}.F{fill:url(#g21)}.G{fill:url(#g22)}.H{fill:url(#g23)}.I{fill:#aeabba}.J{fill:#3b405f}.K{fill:#f8b243}.L{fill:#c0cdea}.M{fill:#d64c47}.N{fill:#f18a00}.O{fill:#fcc100}.P{fill:#101537}.Q{fill:url(#g24)}.R{fill:url(#g25)}.S{fill:url(#g26)}.T{fill:url(#g27)}.U{fill:url(#g28)}.V{fill:url(#g29)}.W{fill:#f5ac83}.X{fill:url(#g30)}.Y{fill:#070725}.Z{fill:#fce4d6}.a0{fill:#b2413f}.a1{fill:#ed7862}.a2{fill:url(#g31)}.a3{fill:url(#g32)}.a4{fill:url(#g33)}.a5{fill:#f29775}.a6{fill:#abc4c8}.a7{fill:#dfeff4}.a8{fill:#c1ced2}.a9{fill:#333231}.aa{fill:#3b3a39}</style><path fill-rule="evenodd" class="a" d="m129.4 444.2c-51.6 0-93.9-42.2-93.9-93.9 0-51.7 42.3-93.9 93.9-93.9 21.9 0 39.8-17.9 39.8-39.8 0-21.8-17.9-39.7-39.8-39.7h-4.7c-22.7 0-41.3-18.6-41.3-41.3 0-22.7 18.6-41.3 41.3-41.3h60.5c8.8 0 16-7.2 16-16 0-8.9-7.2-16.1-16-16.1h-10.7c-6.1 0-11.1-5-11.1-11.1 0-6.1 5-11.1 11.1-11.1 0 0 55.2 0 69.9 0 14.7 0 16.4 17.4 53.6 17.4 57.5 0 28.7 0 86.2 0 8 0 14.5 6.5 14.5 14.5 0 7.9-6.5 14.5-14.5 14.5h-13.9c-11.5 0-21 9.4-21 20.9 0 11.6 9.5 21 21 21h190.2c29.6 0 53.8 24.3 53.8 53.9 0 29.6-24.2 53.9-53.8 53.9h-6.2c-28.5 0-51.8 23.3-51.8 51.8 0 28.5 23.3 51.8 51.8 51.8h85.9c28.7 0 52.2 23.5 52.2 52.3 0 28.7-23.5 52.2-52.2 52.2-148.7 0-362.1 0-510.8 0zm2.9-393.1c0-6.1 4.9-11.1 11.1-11.1 6.1 0 11.1 5 11.1 11.1 0 6.1-5 11.1-11.1 11.1-6.2 0-11.1-5-11.1-11.1z"/><path fill-rule="evenodd" class="b" d="m490.8 163.3c-9.3 10.8-34.1 32.8-58 55.9l-27.3 13.9-7.2-16.9c16.7-33.8 40.1-69.1 61.6-88.1 37.8-33.2 63.5-2.4 30.9 35.2z"/><path fill-rule="evenodd" class="c" d="m405.1 232.3c27.6-55.4 85.2-103.6 85.5-103.8 0.4-0.3 1-0.3 1.3 0.2 0.3 0.4 0.2 1.1-0.2 1.4-0.2 0.2-56.9 47.6-84.4 102.1l-1.8 0.9z"/><path fill-rule="evenodd" class="d" d="m490.7 262.1c17.3-5.4 42.4-16.5 65-38.8 30.3-29.9-40.4-10-95.8 19.2z"/><path fill-rule="evenodd" class="e" d="m429.9 213.3c7.8-13.1 16.6-32 17.9-52 2.2-37 2.9-48.6 9.4-54.6 6.3-5.7-77.7-3.7-98.2 106.6 0 0 70.9 0 70.9 0z"/><path fill-rule="evenodd" class="f" d="m453.1 106c-28.3 27.8-50 70.3-65.1 107.9h2.7c15.4-38.2 37.5-81.2 66.6-108.3q-1.9 0.1-4.2 0.4z"/><path fill-rule="evenodd" class="g" d="m348.1 225c0 0-19.3-8.3-24.1-45.3q0-0.1 0-0.2c0-0.3 0-0.9 0.6-1 0.8 0 8.3 1.3 16.2 5.1 7.8 3.9 4.6-4.9-1.6-6.7-6.3-1.7-12-1.4-14-2.2-2-0.8-2.3-2.4-2.3-2.4-1.1-7.2-2.7-14.4-4.4-21.5 0 0-0.3-1.6 1.8-0.3 2 1.2 9.6 5.4 14 4.3 4.4-1.1-1.8-6.5-9.1-7.7-7.2-1.2-8.1-1.7-8.4-2.5-1.5-5.5-3.1-10.9-4.8-15.9 0 0-0.1-1 1-0.7 1 0.4 9.4 5.2 12.4 3.3 2.9-1.8-2.3-6.6-8.1-6.8-5.8-0.3-6.9-0.6-7.2-1.4-5.2-14.8-10.8-26.3-14.5-30.7-3.9-4.6 13.3 2.8 32.2 18.2 1.7 1.4 2 2.4 2.1 4.8 0.1 2.6 1.1 8.1 2.6 6.2 1.4-1.9 0.1-6.5 0.2-6.7 0.1-0.1 0.2 0 0.3 0 3.2 2.8 6.3 5.8 9.5 9 3.3 3.7 1.9 7.5 0 12.8-2 5.6 0.3 10 3.3 6.8 3-3.3 1.6-12.9 1.8-13.3 0.2-0.3 0.5 0 0.6 0 4.7 5.5 9 11.4 12.5 17.7 1.4 3.3-0.3 7-1.6 12.5-1.3 5.6 1.9 7.6 4 6.1 2-1.4 1.6-7.5 2-8 0.3-0.5 0.5-0.3 0.6-0.2 2.5 6.4 4.2 13.1 4.7 20.1 3.8 55.4-22.3 46.6-22.3 46.6z"/><path fill-rule="evenodd" class="c" d="m369.3 204c-22.2-53.9-54.3-98.2-54.4-98.4-0.4-0.6-1.2-0.7-1.8-0.3-0.5 0.4-0.6 1.1-0.2 1.7 0.1 0.2 33.4 46.3 55.6 101.4q0.5-2.1 0.8-4.4z"/><path fill-rule="evenodd" class="h" d="m348.7 88.1c-2.4 18.8-2.4 63.9-4.3 108.8l9.9 41.3 22.1-5.3c18.1-45.5 32-99.4 31.9-138.4-0.3-68.3-51.3-72.4-59.6-6.4z"/><path fill-rule="evenodd" class="i" d="m347.1 268.6c29.4-74.6 26.7-176.8 26.7-177.2 0-0.7-0.6-1.3-1.3-1.3-0.7 0-1.2 0.6-1.2 1.3 0 0.4 2.7 101-25.9 174.8l0.6 2.7z"/><path fill-rule="evenodd" class="j" d="m430.5 215.5c8.3-9.5 21.6-22.6 38-32 28.8-16.4 54.7-3.5 56.4 6.8 1.4 8.3-6.7 37.3-35.4 58.3z"/><path fill-rule="evenodd" class="i" d="m437.9 219.6c1.3-3 2.6-6 3.5-7.6 0.3-0.5 0.2-1-0.1-1.2-0.4-0.2-0.9 0-1.2 0.5-0.9 1.7-2.2 4.6-3.5 7.6zm7.5 4.3c8.6-5.5 18.3-10.9 29.1-15.7 3 2.8 12.5 12.6 18.4 25.8 0.2 0.4 0.7 0.4 1.1 0.1 0.4-0.4 0.6-1 0.4-1.4-5.6-12.4-14.2-21.7-17.9-25.4 7.6-3.2 15.7-6.1 24.2-8.4 2 1.4 6.3 4.8 9.1 9.6 0.2 0.4 0.7 0.4 1.1 0 0.4-0.4 0.5-1 0.3-1.4-2.3-4-5.6-7.1-7.9-8.9 5.4-1.3 11-2.4 16.7-3.2 0.9-0.1 1.7-1.1 1.9-2.1 0.2-1.1-0.3-1.9-1.2-1.8-11.7 1.6-22.9 4.6-33.3 8.3 7-11.6 13.2-18.5 13.2-18.6 0.4-0.4 0.5-1 0.2-1.3-0.2-0.4-0.7-0.3-1.1 0.1 0 0-6.9 7.7-14.4 20.6-9.4 3.4-18.1 7.5-26.1 11.8 2.8-5.5 8.3-16.2 12.5-21.7 0.3-0.4 0.4-1 0.1-1.3-0.3-0.3-0.8-0.1-1.1 0.3-4.8 6.3-11.4 19.3-13.6 23.9-5.3 2.9-10.2 5.9-14.8 8.9z"/><path fill-rule="evenodd" class="k" d="m133.6 221.3c0 0-23.6-6.1-35.6-47.6q0-0.1-0.1-0.2c-0.1-0.4-0.1-1.1 0.6-1.3 0.9-0.2 9.6 0 19.3 3.1 9.7 3 4.5-6.6-3-7.4-7.5-0.9-13.9 0.5-16.3-0.1-2.5-0.5-3-2.3-3-2.3-2.7-8.1-5.7-16.1-9-23.8 0 0-0.5-1.8 2-0.7 2.6 1 12 4.4 16.9 2.4 4.8-2-3.3-7.1-11.8-7.2-8.4-0.1-9.6-0.4-10-1.4-2.7-6-5.5-11.8-8.3-17.3 0 0-0.3-1.1 0.9-0.9 1.3 0.3 11.7 4.2 14.8 1.6 3-2.7-3.7-7.2-10.4-6.4-6.7 0.7-8.1 0.5-8.5-0.3-8.6-16-17-28.2-22.1-32.5-5.2-4.6 15.8 0.8 40.1 15 2.2 1.3 2.7 2.5 3.2 5.2 0.6 2.9 2.7 9 4.1 6.6 1.3-2.4-1.1-7.5-0.9-7.7 0.1-0.1 0.2-0.1 0.2-0.1 4.2 2.7 8.4 5.6 12.5 8.7 4.4 3.6 3.5 8.2 2.3 14.6-1.3 6.8 2.1 11.4 5 7.1 2.9-4.2-0.5-15-0.3-15.4 0.2-0.4 0.6-0.2 0.7-0.1 6.3 5.4 12.2 11.4 17.4 18 2.2 3.5 0.9 8 0.4 14.6-0.5 6.6 3.5 8.3 5.6 6.3 2.1-2 0.5-8.9 0.9-9.6 0.3-0.6 0.6-0.4 0.6-0.3 4.1 6.8 7.2 14.2 9 22.1 14.1 62.7-17.2 57.3-17.2 57.3z"/><path fill-rule="evenodd" class="c" d="m154.1 193.4c-35-57.6-79.5-102.6-79.7-102.8-0.5-0.6-1.4-0.6-2 0-0.6 0.5-0.6 1.4 0 2 0.2 0.2 46.4 46.9 81.5 106q0.2-2.4 0.2-5.2z"/><path fill-rule="evenodd" class="l" d="m134 190.5c-14.4 3.1-36.1 9.1-58.5 19.4-39 18-55.8 46.3-50.5 52.2 4.2 4.7 31.3 10.1 73.4-6z"/><path fill-rule="evenodd" class="f" d="m130.3 197.3c-3.3-0.2-6.5-0.3-8.5-0.2-0.6 0-1.3 0.3-1.5 0.7-0.2 0.4 0.1 0.7 0.8 0.6 1.9-0.1 5.1 0.1 8.5 0.2zm-3.5 6.3c-6.4 2.7-13.2 5.7-20.3 9.1-5.3 0-20.3 0.1-29.2 1.6-0.6 0.1-1.2 0.5-1.3 0.9-0.1 0.3 0.4 0.5 1 0.4 7.7-1.3 20.3-1.5 26.6-1.5-10.7 5.1-21.9 10.9-33.4 17.6-15.8 1.1-27.7 3.8-27.8 3.8-0.6 0.2-1.1 0.6-1.1 0.9 0 0.4 0.5 0.5 1.1 0.4 0.1 0 10.7-2.5 25.3-3.6-12.7 7.5-25.5 16-38.1 25.6-0.9 0.7-0.9 1.5 0 1.7 0.9 0.3 2.4 0 3.3-0.7q9.2-7 18.5-13.2c-1.1 2.8-2.3 7-1.9 10.7 0 0.4 0.6 0.5 1.2 0.4 0.7-0.2 1.2-0.6 1.1-1-0.4-4.5 1.5-9.7 2.5-12.1 9.9-6.4 19.7-12.2 29.2-17.4-1.1 4.7-3.3 16.2-0.5 26.4 0.1 0.3 0.7 0.4 1.3 0.2 0.6-0.2 1.1-0.6 1-0.9-3-10.9-0.2-23.3 0.8-27.1 13.7-7.4 26.9-13.6 38.9-18.7z"/><path fill-rule="evenodd" class="m" d="m165.5 81.4c-26-24.1-43 8.9-38.8 41 4.1 32.2 38.7 145.7 31.6 185.2-2.7 15.3 0.5 14.4 5.7 4.5 25.8-49.2 37.4-197.5 1.5-230.7z"/><path fill-rule="evenodd" class="f" d="m157.6 318.6c0.6 1.5 1.8 0.8 3.5-1.6 28.8-91.2-12.1-228.5-12.2-229-0.3-0.7-1.1-1.2-1.8-0.9-0.8 0.2-1.2 1-1 1.7 0.2 0.5 41.6 139.7 11.5 229.8z"/><path fill-rule="evenodd" class="n" d="m57.5 138.4c-35.4 2.1-23.4 37.2 2.6 56.5 26 19.3 131.7 73.2 155.3 105.7 9.1 12.6 10.7 9.6 7.2-1-17.6-52.7-116.3-163.9-165.1-161.2z"/><path fill-rule="evenodd" class="i" d="m222.8 308.7c1.5 0.6 1.8-0.8 1.3-3.7-45.7-83.9-173-149.8-173.4-150-0.7-0.4-1.6-0.1-1.9 0.6-0.4 0.7-0.1 1.6 0.6 1.9 0.4 0.2 129.4 67 173.4 151.2z"/><path fill-rule="evenodd" class="o" d="m225.2 380.8h-26c-6.8 0-12.5-5.7-12.5-12.5v-4.9-25.2-42.1-51.5-96.1c0-6.9-5.6-12.5-12.5-12.5h139.9c6.9 0 12.5 5.6 12.5 12.5v96.1 51.5 67.3c0 3.2-2.6 5.7-5.7 5.7h-95.7c0 0 0 11.7 0 11.7z"/><path fill-rule="evenodd" class="p" d="m282.6 363.1q35 0 70 0c0.6 0 1.1 0.4 1.2 1l12.6 89.1c0 0.6-0.4 1-0.9 1-54.2 0-41.5 0-95.7 0-0.6 0-1-0.4-0.9-1l12.5-89.1c0.1-0.6 0.6-1 1.2-1z"/><path fill-rule="evenodd" class="p" d="m267.3 434.3h151.3c5.5 0 10 4.4 10 9.9 0 5.5-4.5 10-10 10h-151.3c-5.5 0-10-4.5-10-10 0-5.5 4.5-9.9 10-9.9z"/><path fill-rule="evenodd" class="q" d="m272.4 363.1q35 0 70 0c0.6 0 1.1 0.4 1.2 1l12.5 89.1c0.1 0.6-0.3 1-0.9 1-54.2 0-41.5 0-95.7 0-0.6 0-1-0.4-0.9-1l12.6-89.1c0-0.6 0.6-1 1.2-1z"/><path fill-rule="evenodd" class="r" d="m230.4 434.3h151.3c5.5 0 10 4.4 10 9.9 0 5.5-4.5 10-10 10h-151.3c-5.5 0-10-4.5-10-10 0-5.5 4.5-9.9 10-9.9z"/><path fill-rule="evenodd" class="p" d="m144.9 166.9h335.5c2.8 0 5.2 2.3 5.2 5.1v224.4c0 2.8-2.4 5.1-5.2 5.1h-335.5c-2.8 0-5.1-2.3-5.1-5.1v-224.4c0-2.8 2.3-5.1 5.1-5.1z"/><path fill-rule="evenodd" class="s" d="m137.8 166.9h335.4c2.9 0 5.2 2.3 5.2 5.1v224.4c0 2.8-2.3 5.1-5.2 5.1h-335.4c-2.8 0-5.2-2.3-5.2-5.1v-224.4c0-2.8 2.4-5.1 5.2-5.1z"/><path fill-rule="evenodd" class="t" d="m140.6 170.2h329.8c1.9 0 3.5 1.6 3.5 3.5v202.2c0 1.2-1 2.2-2.2 2.2h-332.4c-1.2 0-2.1-1-2.1-2.2v-202.2c0-1.9 1.5-3.5 3.4-3.5z"/><path class="u" d="m146.9 179.9h317.3v188.5h-317.3z"/><path fill-rule="evenodd" class="v" d="m312.3 191.3h135c3.7 0 6.7 3 6.7 6.7 0 3.7-3 6.8-6.7 6.8h-135c-3.7 0-6.8-3.1-6.8-6.8 0-3.7 3.1-6.7 6.8-6.7z"/><path fill-rule="evenodd" class="w" d="m308.1 212.7h143.4c1.4 0 2.5 1.2 2.5 2.6 0 1.4-1.1 2.5-2.5 2.5h-143.4c-1.4 0-2.6-1.1-2.6-2.5 0-1.4 1.2-2.6 2.6-2.6z"/><path fill-rule="evenodd" class="w" d="m308.1 224.3h143.4c1.4 0 2.5 1.1 2.5 2.6 0 1.4-1.1 2.5-2.5 2.5h-143.4c-1.4 0-2.6-1.1-2.6-2.5 0-1.5 1.2-2.6 2.6-2.6z"/><path fill-rule="evenodd" class="w" d="m308.1 235.9h143.4c1.4 0 2.5 1.1 2.5 2.5 0 1.5-1.1 2.6-2.5 2.6h-143.4c-1.4 0-2.6-1.1-2.6-2.6 0-1.4 1.2-2.5 2.6-2.5z"/><path fill-rule="evenodd" class="w" d="m308.1 247.5h143.4c1.4 0 2.5 1.1 2.5 2.5 0 1.4-1.1 2.6-2.5 2.6h-143.4c-1.4 0-2.6-1.2-2.6-2.6 0-1.4 1.2-2.5 2.6-2.5z"/><path fill-rule="evenodd" class="w" d="m308.1 259h143.4c1.4 0 2.5 1.2 2.5 2.6 0 1.4-1.1 2.6-2.5 2.6h-143.4c-1.4 0-2.6-1.2-2.6-2.6 0-1.4 1.2-2.6 2.6-2.6z"/><path fill-rule="evenodd" class="v" d="m312.3 284.1h135c3.7 0 6.7 3 6.7 6.7 0 3.7-3 6.8-6.7 6.8h-135c-3.7 0-6.8-3.1-6.8-6.8 0-3.7 3.1-6.7 6.8-6.7z"/><path fill-rule="evenodd" class="w" d="m308.1 305.5h143.4c1.4 0 2.5 1.2 2.5 2.6 0 1.4-1.1 2.6-2.5 2.6h-143.4c-1.4 0-2.6-1.2-2.6-2.6 0-1.4 1.2-2.6 2.6-2.6z"/><path fill-rule="evenodd" class="w" d="m308.1 317.1h143.4c1.4 0 2.5 1.1 2.5 2.6 0 1.4-1.1 2.5-2.5 2.5h-143.4c-1.4 0-2.6-1.1-2.6-2.5 0-1.5 1.2-2.6 2.6-2.6z"/><path fill-rule="evenodd" class="w" d="m308.1 328.7h143.4c1.4 0 2.5 1.1 2.5 2.6 0 1.4-1.1 2.5-2.5 2.5h-143.4c-1.4 0-2.6-1.1-2.6-2.5 0-1.5 1.2-2.6 2.6-2.6z"/><path fill-rule="evenodd" class="w" d="m308.1 340.3h143.4c1.4 0 2.5 1.1 2.5 2.5 0 1.5-1.1 2.6-2.5 2.6h-143.4c-1.4 0-2.6-1.1-2.6-2.6 0-1.4 1.2-2.5 2.6-2.5z"/><path fill-rule="evenodd" class="w" d="m308.1 351.9h143.4c1.4 0 2.5 1.1 2.5 2.5 0 1.4-1.1 2.6-2.5 2.6h-143.4c-1.4 0-2.6-1.2-2.6-2.6 0-1.4 1.2-2.5 2.6-2.5z"/><path fill-rule="evenodd" class="x" d="m307.8 232.3c-0.3 0-0.5-0.2-0.5-0.5 0-0.2 0.2-0.5 0.5-0.5q0.5 0 0.9-0.2 0.4-0.3 0.5-0.8 0.3-0.9 0.9-1.3c0.4-0.4 0.9-0.5 1.4-0.5 0.6 0 1.1 0.1 1.5 0.5q0.6 0.4 0.9 1.3 0.1 0.5 0.5 0.8 0.4 0.2 0.9 0.2 0.5 0 0.9-0.2 0.3-0.3 0.5-0.8 0.2-0.9 0.8-1.3c0.4-0.4 0.9-0.5 1.5-0.5q0.8 0 1.5 0.5 0.6 0.4 0.8 1.3 0.2 0.5 0.5 0.8 0.4 0.2 0.9 0.2 0.5 0 0.9-0.2 0.4-0.3 0.5-0.8 0.2-0.9 0.9-1.3c0.4-0.4 0.9-0.5 1.4-0.5 0.6 0 1.1 0.1 1.5 0.5q0.6 0.4 0.9 1.3 0.1 0.5 0.5 0.8 0.3 0.2 0.9 0.2 0.5 0 0.9-0.2 0.3-0.3 0.5-0.8 0.2-0.9 0.8-1.3 0.6-0.5 1.5-0.5 0.8 0 1.5 0.5 0.6 0.4 0.8 1.3 0.2 0.5 0.5 0.8 0.4 0.2 0.9 0.2 0.5 0 0.9-0.2 0.4-0.3 0.5-0.8 0.2-0.9 0.9-1.3c0.4-0.4 0.9-0.5 1.4-0.5q0.9 0 1.5 0.5 0.6 0.4 0.9 1.3 0.1 0.5 0.5 0.8 0.3 0.2 0.9 0.2c0.2 0 0.5 0.3 0.5 0.5 0 0.3-0.3 0.5-0.5 0.5q-0.9 0-1.5-0.5-0.6-0.4-0.9-1.3-0.1-0.5-0.5-0.8-0.3-0.2-0.9-0.2-0.5 0-0.9 0.2-0.3 0.3-0.5 0.8-0.2 0.9-0.8 1.3c-0.4 0.4-0.9 0.5-1.5 0.5q-0.8 0-1.5-0.5-0.6-0.4-0.8-1.3-0.2-0.5-0.5-0.8-0.4-0.2-0.9-0.2-0.5 0-0.9 0.2-0.4 0.3-0.5 0.8-0.2 0.9-0.8 1.3-0.7 0.5-1.5 0.5-0.9 0-1.5-0.5-0.6-0.4-0.9-1.3-0.1-0.5-0.5-0.8-0.3-0.2-0.9-0.2-0.5 0-0.9 0.2-0.3 0.3-0.4 0.8-0.3 0.9-0.9 1.3c-0.4 0.4-0.9 0.5-1.5 0.5-0.5 0-1-0.1-1.5-0.5q-0.6-0.4-0.8-1.3-0.2-0.5-0.5-0.8-0.4-0.2-0.9-0.2-0.5 0-0.9 0.2-0.3 0.3-0.5 0.8-0.2 0.9-0.8 1.3c-0.5 0.4-1 0.5-1.5 0.5-0.6 0-1.1-0.1-1.5-0.5q-0.6-0.4-0.9-1.3-0.1-0.5-0.5-0.8-0.3-0.2-0.9-0.2-0.5 0-0.8 0.2-0.4 0.3-0.5 0.8-0.3 0.9-0.9 1.3-0.6 0.5-1.5 0.5z"/><path fill-rule="evenodd" class="v" d="m409.1 203.2c0.7 0 1.3-0.6 1.3-1.3 0-0.7-0.6-1.3-1.3-1.3-0.7 0-1.3 0.6-1.3 1.3 0 0.7 0.6 1.3 1.3 1.3z"/><path fill-rule="evenodd" class="v" d="m414.3 203.2c0.7 0 1.3-0.6 1.3-1.3 0-0.7-0.6-1.3-1.3-1.3-0.7 0-1.3 0.6-1.3 1.3 0 0.7 0.6 1.3 1.3 1.3z"/><path fill-rule="evenodd" class="v" d="m419.5 203.2c0.7 0 1.3-0.6 1.3-1.3 0-0.7-0.6-1.3-1.3-1.3-0.7 0-1.3 0.6-1.3 1.3 0 0.7 0.6 1.3 1.3 1.3z"/><path fill-rule="evenodd" class="v" d="m424.7 203.2c0.7 0 1.3-0.6 1.3-1.3 0-0.7-0.6-1.3-1.3-1.3-0.7 0-1.3 0.6-1.3 1.3 0 0.7 0.6 1.3 1.3 1.3z"/><path fill-rule="evenodd" class="v" d="m435.1 203.2c0.7 0 1.3-0.6 1.3-1.3 0-0.7-0.6-1.3-1.3-1.3-0.7 0-1.3 0.6-1.3 1.3 0 0.7 0.6 1.3 1.3 1.3z"/><path fill-rule="evenodd" class="v" d="m440.3 203.2c0.7 0 1.3-0.6 1.3-1.3 0-0.7-0.6-1.3-1.3-1.3-0.7 0-1.3 0.6-1.3 1.3 0 0.7 0.6 1.3 1.3 1.3z"/><path fill-rule="evenodd" class="v" d="m445.5 203.2c0.8 0 1.3-0.6 1.3-1.3 0-0.7-0.5-1.3-1.3-1.3-0.7 0-1.2 0.6-1.2 1.3 0 0.7 0.5 1.3 1.2 1.3z"/><path fill-rule="evenodd" class="v" d="m403.9 208.4c0.7 0 1.3-0.6 1.3-1.3 0-0.7-0.6-1.3-1.3-1.3-0.7 0-1.3 0.6-1.3 1.3 0 0.7 0.6 1.3 1.3 1.3z"/><path fill-rule="evenodd" class="v" d="m414.3 208.4c0.7 0 1.3-0.6 1.3-1.3 0-0.7-0.6-1.3-1.3-1.3-0.7 0-1.3 0.6-1.3 1.3 0 0.7 0.6 1.3 1.3 1.3z"/><path fill-rule="evenodd" class="v" d="m424.7 208.4c0.7 0 1.3-0.6 1.3-1.3 0-0.7-0.6-1.3-1.3-1.3-0.7 0-1.3 0.6-1.3 1.3 0 0.7 0.6 1.3 1.3 1.3z"/><path fill-rule="evenodd" class="v" d="m429.9 208.4c0.7 0 1.3-0.6 1.3-1.3 0-0.7-0.6-1.3-1.3-1.3-0.7 0-1.3 0.6-1.3 1.3 0 0.7 0.6 1.3 1.3 1.3z"/><path fill-rule="evenodd" class="v" d="m435.1 208.4c0.7 0 1.3-0.6 1.3-1.3 0-0.7-0.6-1.3-1.3-1.3-0.7 0-1.3 0.6-1.3 1.3 0 0.7 0.6 1.3 1.3 1.3z"/><path fill-rule="evenodd" class="v" d="m440.3 208.4c0.7 0 1.3-0.6 1.3-1.3 0-0.7-0.6-1.3-1.3-1.3-0.7 0-1.3 0.6-1.3 1.3 0 0.7 0.6 1.3 1.3 1.3z"/><path fill-rule="evenodd" class="v" d="m414.3 213.6c0.7 0 1.3-0.6 1.3-1.3 0-0.7-0.6-1.3-1.3-1.3-0.7 0-1.3 0.6-1.3 1.3 0 0.7 0.6 1.3 1.3 1.3z"/><path fill-rule="evenodd" class="v" d="m419.5 213.6c0.7 0 1.3-0.6 1.3-1.3 0-0.7-0.6-1.3-1.3-1.3-0.7 0-1.3 0.6-1.3 1.3 0 0.7 0.6 1.3 1.3 1.3z"/><path fill-rule="evenodd" class="v" d="m424.7 213.6c0.7 0 1.3-0.6 1.3-1.3 0-0.7-0.6-1.3-1.3-1.3-0.7 0-1.3 0.6-1.3 1.3 0 0.7 0.6 1.3 1.3 1.3z"/><path fill-rule="evenodd" class="v" d="m429.9 213.6c0.7 0 1.3-0.6 1.3-1.3 0-0.7-0.6-1.3-1.3-1.3-0.7 0-1.3 0.6-1.3 1.3 0 0.7 0.6 1.3 1.3 1.3z"/><path fill-rule="evenodd" class="v" d="m435.1 213.6c0.7 0 1.3-0.6 1.3-1.3 0-0.7-0.6-1.3-1.3-1.3-0.7 0-1.3 0.6-1.3 1.3 0 0.7 0.6 1.3 1.3 1.3z"/><path fill-rule="evenodd" class="v" d="m445.5 213.6c0.8 0 1.3-0.6 1.3-1.3 0-0.7-0.5-1.3-1.3-1.3-0.7 0-1.2 0.6-1.2 1.3 0 0.7 0.5 1.3 1.2 1.3z"/><path fill-rule="evenodd" class="v" d="m450.8 213.6c0.7 0 1.2-0.6 1.2-1.3 0-0.7-0.5-1.3-1.2-1.3-0.8 0-1.3 0.6-1.3 1.3 0 0.7 0.5 1.3 1.3 1.3z"/><path fill-rule="evenodd" class="v" d="m349 192.6c1 0 2 0.4 2.7 1.1 0.6 0.6 1.1 1.6 1.1 2.6 0 1.1-0.5 2-1.1 2.7-0.7 0.7-1.7 1.1-2.7 1.1-1 0-2-0.4-2.7-1.1-0.6-0.7-1.1-1.6-1.1-2.7 0-1 0.5-2 1.1-2.6 0.7-0.7 1.7-1.1 2.7-1.1zm2 1.7c-0.5-0.5-1.2-0.8-2-0.8-0.8 0-1.5 0.3-2 0.8-0.5 0.5-0.8 1.2-0.8 2 0 0.8 0.3 1.5 0.8 2 0.5 0.5 1.2 0.9 2 0.9 0.8 0 1.5-0.4 2-0.9 0.5-0.5 0.8-1.2 0.8-2 0-0.8-0.3-1.5-0.8-2z"/><path fill-rule="evenodd" class="v" d="m427.1 275.7c0.4 0 0.8 0.2 1.1 0.5 0.3 0.2 0.5 0.6 0.5 1.1 0 0.4-0.2 0.8-0.5 1.1-0.3 0.2-0.7 0.4-1.1 0.4-0.4 0-0.8-0.2-1.1-0.4-0.3-0.3-0.5-0.7-0.5-1.1 0-0.5 0.2-0.9 0.5-1.1 0.3-0.3 0.7-0.5 1.1-0.5z"/><path fill-rule="evenodd" class="v" d="m406.8 305.8c-0.2 0-0.5-0.2-0.5-0.5 0-0.3 0.3-0.5 0.5-0.5q0.6 0 0.9-0.3 0.4-0.2 0.5-0.8 0.3-0.8 0.9-1.3c0.4-0.3 0.9-0.5 1.5-0.5 0.5 0 1 0.2 1.4 0.5q0.7 0.5 0.9 1.3 0.1 0.6 0.5 0.8 0.4 0.3 0.9 0.3 0.5 0 0.9-0.3 0.3-0.2 0.5-0.8 0.2-0.8 0.8-1.3c0.4-0.3 1-0.5 1.5-0.5q0.8 0 1.5 0.5 0.6 0.5 0.8 1.3 0.2 0.6 0.5 0.8 0.4 0.3 0.9 0.3 0.5 0 0.9-0.3 0.4-0.2 0.5-0.8 0.3-0.8 0.9-1.3 0.6-0.5 1.5-0.5 0.8 0 1.4 0.5 0.6 0.5 0.9 1.3 0.1 0.6 0.5 0.8 0.4 0.3 0.9 0.3 0.5 0 0.9-0.3 0.3-0.2 0.5-0.8 0.2-0.8 0.8-1.3c0.4-0.3 1-0.5 1.5-0.5 0.6 0 1.1 0.2 1.5 0.5q0.6 0.5 0.8 1.3 0.2 0.6 0.5 0.8 0.4 0.3 0.9 0.3 0.5 0 0.9-0.3 0.4-0.2 0.5-0.8 0.3-0.8 0.9-1.3c0.4-0.3 0.9-0.5 1.5-0.5 0.5 0 1 0.2 1.4 0.5q0.6 0.5 0.9 1.3 0.1 0.6 0.5 0.8 0.4 0.3 0.9 0.3c0.2 0 0.5 0.2 0.5 0.5 0 0.3-0.3 0.5-0.5 0.5q-0.9 0-1.5-0.5-0.6-0.5-0.9-1.3-0.1-0.5-0.5-0.8-0.3-0.3-0.8-0.3-0.6 0-0.9 0.3-0.4 0.3-0.5 0.8-0.3 0.8-0.9 1.3c-0.4 0.3-0.9 0.5-1.5 0.5-0.5 0-1-0.2-1.5-0.5q-0.6-0.5-0.8-1.3-0.2-0.5-0.5-0.8-0.4-0.3-0.9-0.3-0.5 0-0.9 0.3-0.3 0.3-0.5 0.8-0.2 0.8-0.8 1.3c-0.5 0.3-1 0.5-1.5 0.5q-0.9 0-1.5-0.5-0.6-0.5-0.9-1.3-0.1-0.5-0.5-0.8-0.3-0.3-0.8-0.3-0.6 0-0.9 0.3-0.4 0.3-0.5 0.8-0.3 0.8-0.9 1.3c-0.4 0.3-0.9 0.5-1.5 0.5q-0.8 0-1.5-0.5-0.6-0.5-0.8-1.3-0.2-0.5-0.5-0.8-0.4-0.3-0.9-0.3-0.5 0-0.9 0.3-0.3 0.3-0.5 0.8-0.2 0.8-0.8 1.3c-0.5 0.3-1 0.5-1.5 0.5-0.6 0-1.1-0.2-1.5-0.5q-0.6-0.5-0.9-1.3-0.1-0.5-0.4-0.8-0.4-0.3-0.9-0.3-0.6 0-0.9 0.3-0.4 0.3-0.5 0.8-0.3 0.8-0.9 1.3c-0.4 0.3-0.9 0.5-1.5 0.5z"/><path fill-rule="evenodd" class="v" d="m315.9 293.4c1 0 2 0.4 2.6 1.1 0.7 0.7 1.1 1.6 1.1 2.6 0 1.1-0.4 2-1.1 2.7-0.6 0.7-1.6 1.1-2.6 1.1-1.1 0-2-0.4-2.7-1.1-0.7-0.7-1.1-1.6-1.1-2.7 0-1 0.4-1.9 1.1-2.6 0.7-0.7 1.6-1.1 2.7-1.1zm2 1.7c-0.5-0.5-1.2-0.8-2-0.8-0.8 0-1.5 0.3-2 0.8-0.5 0.6-0.9 1.3-0.9 2 0 0.8 0.4 1.5 0.9 2.1 0.5 0.5 1.2 0.8 2 0.8 0.8 0 1.5-0.3 2-0.8 0.5-0.6 0.8-1.3 0.8-2 0-0.8-0.3-1.5-0.8-2.1z"/><path fill-rule="evenodd" class="v" d="m413.5 347.8c1 0 2 0.4 2.7 1.1 0.6 0.7 1.1 1.6 1.1 2.6 0 1.1-0.5 2-1.1 2.7-0.7 0.7-1.7 1.1-2.7 1.1-1 0-2-0.4-2.6-1.1-0.7-0.7-1.1-1.6-1.1-2.7 0-1 0.4-1.9 1.1-2.6 0.6-0.7 1.6-1.1 2.6-1.1zm2 1.7c-0.5-0.5-1.2-0.8-2-0.8-0.8 0-1.5 0.3-2 0.8-0.5 0.6-0.8 1.3-0.8 2 0 0.8 0.3 1.5 0.8 2.1 0.5 0.5 1.2 0.8 2 0.8 0.8 0 1.5-0.3 2-0.8 0.5-0.6 0.9-1.3 0.9-2.1 0-0.7-0.4-1.4-0.9-2z"/><path fill-rule="evenodd" class="v" d="m410.9 329.1c0.4 0 0.8 0.2 1.1 0.5 0.3 0.2 0.4 0.6 0.4 1.1 0 0.4-0.1 0.8-0.4 1.1-0.3 0.2-0.7 0.4-1.1 0.4-0.4 0-0.8-0.2-1.1-0.4-0.3-0.3-0.5-0.7-0.5-1.1 0-0.5 0.2-0.9 0.5-1.1 0.3-0.3 0.7-0.5 1.1-0.5z"/><path fill-rule="evenodd" class="v" d="m313.7 332.8c0.4 0 0.8 0.2 1.1 0.5 0.3 0.3 0.5 0.7 0.5 1.1 0 0.4-0.2 0.8-0.5 1.1-0.3 0.3-0.7 0.4-1.1 0.4-0.4 0-0.8-0.1-1.1-0.4-0.3-0.3-0.4-0.7-0.4-1.1 0-0.4 0.1-0.8 0.4-1.1 0.3-0.3 0.7-0.5 1.1-0.5z"/><path fill-rule="evenodd" class="v" d="m313.2 212.9c0.5 0 0.9 0.1 1.1 0.4 0.3 0.3 0.5 0.7 0.5 1.1 0 0.5-0.2 0.8-0.5 1.1-0.2 0.3-0.6 0.5-1.1 0.5-0.4 0-0.8-0.2-1.1-0.5-0.2-0.3-0.4-0.6-0.4-1.1 0-0.4 0.2-0.8 0.4-1.1 0.3-0.3 0.7-0.4 1.1-0.4z"/><path fill-rule="evenodd" class="v" d="m314.6 271.5c0.5 0 0.9 0.1 1.1 0.4 0.3 0.3 0.5 0.7 0.5 1.1 0 0.4-0.2 0.8-0.5 1.1-0.2 0.3-0.6 0.5-1.1 0.5-0.4 0-0.8-0.2-1.1-0.5-0.2-0.3-0.4-0.7-0.4-1.1 0-0.4 0.2-0.8 0.4-1.1 0.3-0.3 0.7-0.4 1.1-0.4z"/><path fill-rule="evenodd" class="x" d="m291.7 356c-0.3 0-0.5-0.2-0.5-0.5 0-0.3 0.2-0.5 0.5-0.5q0.5 0 0.9-0.3 0.3-0.2 0.5-0.7 0.2-0.9 0.8-1.4c0.4-0.3 1-0.4 1.5-0.4q0.9 0 1.5 0.4 0.6 0.5 0.8 1.4 0.2 0.5 0.5 0.7 0.4 0.3 0.9 0.3 0.6 0 0.9-0.3 0.4-0.2 0.5-0.7 0.3-0.9 0.9-1.4 0.6-0.4 1.5-0.4 0.8 0 1.4 0.4 0.7 0.5 0.9 1.4 0.1 0.5 0.5 0.7 0.4 0.3 0.9 0.3 0.5 0 0.9-0.3 0.3-0.2 0.5-0.7 0.2-0.9 0.8-1.4c0.4-0.3 1-0.4 1.5-0.4 0.6 0 1.1 0.1 1.5 0.4q0.6 0.5 0.8 1.4 0.2 0.5 0.5 0.7 0.4 0.3 0.9 0.3 0.6 0 0.9-0.3 0.4-0.2 0.5-0.7 0.3-0.9 0.9-1.4c0.4-0.3 0.9-0.4 1.5-0.4 0.5 0 1 0.1 1.4 0.4q0.7 0.5 0.9 1.4 0.1 0.5 0.5 0.7 0.4 0.3 0.9 0.3 0.5 0 0.9-0.3 0.3-0.2 0.5-0.7 0.2-0.9 0.8-1.4c0.4-0.3 1-0.4 1.5-0.4 0.6 0 1.1 0.1 1.5 0.4q0.6 0.5 0.8 1.4 0.2 0.5 0.5 0.7 0.4 0.3 0.9 0.3c0.3 0 0.5 0.2 0.5 0.5 0 0.3-0.2 0.5-0.5 0.5-0.5 0-1-0.2-1.5-0.5q-0.6-0.4-0.8-1.3-0.1-0.5-0.5-0.8-0.4-0.3-0.9-0.3-0.5 0-0.9 0.3-0.3 0.3-0.5 0.8-0.2 0.9-0.8 1.3c-0.4 0.3-1 0.5-1.5 0.5-0.6 0-1.1-0.2-1.5-0.5q-0.6-0.4-0.8-1.3-0.2-0.5-0.5-0.8-0.4-0.3-0.9-0.3-0.6 0-0.9 0.3-0.4 0.3-0.5 0.8-0.3 0.9-0.9 1.3c-0.4 0.3-0.9 0.5-1.5 0.5q-0.8 0-1.4-0.5-0.7-0.4-0.9-1.3-0.1-0.5-0.5-0.8-0.4-0.3-0.9-0.3-0.5 0-0.9 0.3-0.3 0.3-0.5 0.8-0.2 0.9-0.8 1.3c-0.4 0.3-1 0.5-1.5 0.5-0.6 0-1.1-0.2-1.5-0.5q-0.6-0.4-0.8-1.3-0.2-0.5-0.5-0.8-0.4-0.3-0.9-0.3-0.6 0-0.9 0.3-0.4 0.3-0.5 0.8-0.3 0.9-0.9 1.3c-0.4 0.3-0.9 0.5-1.5 0.5-0.5 0-1-0.2-1.4-0.5q-0.7-0.4-0.9-1.3-0.1-0.5-0.5-0.8-0.4-0.3-0.9-0.3-0.5 0-0.9 0.3-0.3 0.3-0.5 0.8-0.2 0.9-0.8 1.3c-0.4 0.3-1 0.5-1.5 0.5z"/><path fill-rule="evenodd" class="y" d="m334.9 410.8l3.3 23.5h15.3l-4.7-32.8h-78.5-4.4l-1.2 8.2q2.2 0 4.5 0 32.2 0 64.5 0c0.6 0 1.1 0.5 1.2 1.1z"/><path fill-rule="evenodd" class="z" d="m263.2 380.8h25.9c6.9 0 12.5-5.7 12.5-12.5v-4.9-25.2-42.1-51.5-96.1c0-6.9 5.6-12.5 12.5-12.5h-139.9c-6.8 0-12.4 5.6-12.4 12.5v96.1 51.5 67.3c0 3.2 2.5 5.7 5.7 5.7h95.7z"/><path fill-rule="evenodd" class="A" d="m168 156.3h126.7c1.1 0 2.1 1 2.1 2.1v3.7c0 1.1-1 2.1-2.1 2.1h-126.7c-1.2 0-2.1-1-2.1-2.1v-3.7c0-1.1 0.9-2.1 2.1-2.1z"/><path fill-rule="evenodd" class="B" d="m172.1 172.1h53c1.1 0 2.1 0.9 2.1 2.1 0 1.1-1 2.1-2.1 2.1h-53c-1.1 0-2-1-2-2.1 0-1.2 0.9-2.1 2-2.1z"/><path fill-rule="evenodd" class="B" d="m290.5 172.1h-52.9c-1.2 0-2.1 0.9-2.1 2.1 0 1.1 0.9 2.1 2.1 2.1h52.9c1.2 0 2.1-1 2.1-2.1 0-1.2-0.9-2.1-2.1-2.1z"/><path fill-rule="evenodd" class="B" d="m172.1 180.6h53c1.1 0 2.1 0.9 2.1 2.1 0 1.1-1 2.1-2.1 2.1h-53c-1.1 0-2-1-2-2.1 0-1.2 0.9-2.1 2-2.1z"/><path fill-rule="evenodd" class="B" d="m290.5 180.6h-52.9c-1.2 0-2.1 0.9-2.1 2.1 0 1.1 0.9 2.1 2.1 2.1h52.9c1.2 0 2.1-1 2.1-2.1 0-1.2-0.9-2.1-2.1-2.1z"/><path fill-rule="evenodd" class="B" d="m172.1 189.1h53c1.1 0 2.1 0.9 2.1 2.1 0 1.1-1 2-2.1 2h-53c-1.1 0-2-0.9-2-2 0-1.2 0.9-2.1 2-2.1z"/><path fill-rule="evenodd" class="B" d="m290.5 189.1h-52.9c-1.2 0-2.1 0.9-2.1 2.1 0 1.1 0.9 2 2.1 2h52.9c1.2 0 2.1-0.9 2.1-2 0-1.2-0.9-2.1-2.1-2.1z"/><path fill-rule="evenodd" class="B" d="m172.1 197.6h53c1.1 0 2.1 0.9 2.1 2.1 0 1.1-1 2-2.1 2h-53c-1.1 0-2-0.9-2-2 0-1.2 0.9-2.1 2-2.1z"/><path fill-rule="evenodd" class="B" d="m290.5 197.6h-52.9c-1.2 0-2.1 0.9-2.1 2.1 0 1.1 0.9 2 2.1 2h52.9c1.2 0 2.1-0.9 2.1-2 0-1.2-0.9-2.1-2.1-2.1z"/><path fill-rule="evenodd" class="B" d="m172.1 206.1h53c1.1 0 2.1 0.9 2.1 2 0 1.2-1 2.1-2.1 2.1h-53c-1.1 0-2-0.9-2-2.1 0-1.1 0.9-2 2-2z"/><path fill-rule="evenodd" class="B" d="m290.5 206.1h-52.9c-1.2 0-2.1 0.9-2.1 2 0 1.2 0.9 2.1 2.1 2.1h52.9c1.2 0 2.1-0.9 2.1-2.1 0-1.1-0.9-2-2.1-2z"/><path fill-rule="evenodd" class="B" d="m172.1 214.6h53c1.1 0 2.1 0.9 2.1 2 0 1.2-1 2.1-2.1 2.1h-53c-1.1 0-2-0.9-2-2.1 0-1.1 0.9-2 2-2z"/><path fill-rule="evenodd" class="B" d="m290.5 214.6h-52.9c-1.2 0-2.1 0.9-2.1 2 0 1.2 0.9 2.1 2.1 2.1h52.9c1.2 0 2.1-0.9 2.1-2.1 0-1.1-0.9-2-2.1-2z"/><path fill-rule="evenodd" class="B" d="m172.1 223.1h53c1.1 0 2.1 0.9 2.1 2 0 1.2-1 2.1-2.1 2.1h-53c-1.1 0-2-0.9-2-2.1 0-1.1 0.9-2 2-2z"/><path fill-rule="evenodd" class="B" d="m290.5 223.1h-52.9c-1.2 0-2.1 0.9-2.1 2 0 1.2 0.9 2.1 2.1 2.1h52.9c1.2 0 2.1-0.9 2.1-2.1 0-1.1-0.9-2-2.1-2z"/><path fill-rule="evenodd" class="B" d="m172.1 231.5h53c1.1 0 2.1 1 2.1 2.1 0 1.2-1 2.1-2.1 2.1h-53c-1.1 0-2-0.9-2-2.1 0-1.1 0.9-2.1 2-2.1z"/><path fill-rule="evenodd" class="B" d="m290.5 231.5h-52.9c-1.2 0-2.1 1-2.1 2.1 0 1.2 0.9 2.1 2.1 2.1h52.9c1.2 0 2.1-0.9 2.1-2.1 0-1.1-0.9-2.1-2.1-2.1z"/><path fill-rule="evenodd" class="B" d="m172.1 240h53c1.1 0 2.1 1 2.1 2.1 0 1.2-1 2.1-2.1 2.1h-53c-1.1 0-2-0.9-2-2.1 0-1.1 0.9-2.1 2-2.1z"/><path fill-rule="evenodd" class="B" d="m290.5 240h-52.9c-1.2 0-2.1 1-2.1 2.1 0 1.2 0.9 2.1 2.1 2.1h52.9c1.2 0 2.1-0.9 2.1-2.1 0-1.1-0.9-2.1-2.1-2.1z"/><path fill-rule="evenodd" class="B" d="m172.1 248.5h53c1.1 0 2.1 1 2.1 2.1 0 1.2-1 2.1-2.1 2.1h-53c-1.1 0-2-0.9-2-2.1 0-1.1 0.9-2.1 2-2.1z"/><path fill-rule="evenodd" class="B" d="m290.5 248.5h-52.9c-1.2 0-2.1 1-2.1 2.1 0 1.2 0.9 2.1 2.1 2.1h52.9c1.2 0 2.1-0.9 2.1-2.1 0-1.1-0.9-2.1-2.1-2.1z"/><path fill-rule="evenodd" class="B" d="m172.1 257h53c1.1 0 2.1 1 2.1 2.1 0 1.1-1 2.1-2.1 2.1h-53c-1.1 0-2-1-2-2.1 0-1.1 0.9-2.1 2-2.1z"/><path fill-rule="evenodd" class="B" d="m290.5 257h-52.9c-1.2 0-2.1 1-2.1 2.1 0 1.1 0.9 2.1 2.1 2.1h52.9c1.2 0 2.1-1 2.1-2.1 0-1.1-0.9-2.1-2.1-2.1z"/><path fill-rule="evenodd" class="B" d="m172.1 265.5h53c1.1 0 2.1 0.9 2.1 2.1 0 1.1-1 2.1-2.1 2.1h-53c-1.1 0-2-1-2-2.1 0-1.2 0.9-2.1 2-2.1z"/><path fill-rule="evenodd" class="B" d="m290.5 265.5h-52.9c-1.2 0-2.1 0.9-2.1 2.1 0 1.1 0.9 2.1 2.1 2.1h52.9c1.2 0 2.1-1 2.1-2.1 0-1.2-0.9-2.1-2.1-2.1z"/><path fill-rule="evenodd" class="B" d="m172.1 274h53c1.1 0 2.1 0.9 2.1 2.1 0 1.1-1 2.1-2.1 2.1h-53c-1.1 0-2-1-2-2.1 0-1.2 0.9-2.1 2-2.1z"/><path fill-rule="evenodd" class="B" d="m290.5 274h-52.9c-1.2 0-2.1 0.9-2.1 2.1 0 1.1 0.9 2.1 2.1 2.1h52.9c1.2 0 2.1-1 2.1-2.1 0-1.2-0.9-2.1-2.1-2.1z"/><path fill-rule="evenodd" class="B" d="m172.1 282.5h53c1.1 0 2.1 0.9 2.1 2.1 0 1.1-1 2.1-2.1 2.1h-53c-1.1 0-2-1-2-2.1 0-1.2 0.9-2.1 2-2.1z"/><path fill-rule="evenodd" class="B" d="m290.5 282.5h-52.9c-1.2 0-2.1 0.9-2.1 2.1 0 1.1 0.9 2.1 2.1 2.1h52.9c1.2 0 2.1-1 2.1-2.1 0-1.2-0.9-2.1-2.1-2.1z"/><path fill-rule="evenodd" class="B" d="m172.1 291h53c1.1 0 2.1 0.9 2.1 2.1 0 1.1-1 2-2.1 2h-53c-1.1 0-2-0.9-2-2 0-1.2 0.9-2.1 2-2.1z"/><path fill-rule="evenodd" class="B" d="m290.5 291h-52.9c-1.2 0-2.1 0.9-2.1 2.1 0 1.1 0.9 2 2.1 2h52.9c1.2 0 2.1-0.9 2.1-2 0-1.2-0.9-2.1-2.1-2.1z"/><path fill-rule="evenodd" class="B" d="m172.1 299.5h53c1.1 0 2.1 0.9 2.1 2.1 0 1.1-1 2-2.1 2h-53c-1.1 0-2-0.9-2-2 0-1.2 0.9-2.1 2-2.1z"/><path fill-rule="evenodd" class="B" d="m290.5 299.5h-52.9c-1.2 0-2.1 0.9-2.1 2.1 0 1.1 0.9 2 2.1 2h52.9c1.2 0 2.1-0.9 2.1-2 0-1.2-0.9-2.1-2.1-2.1z"/><path fill-rule="evenodd" class="B" d="m172.1 308h53c1.1 0 2.1 0.9 2.1 2.1 0 1.1-1 2-2.1 2h-53c-1.1 0-2-0.9-2-2 0-1.2 0.9-2.1 2-2.1z"/><path fill-rule="evenodd" class="B" d="m290.5 308h-52.9c-1.2 0-2.1 0.9-2.1 2.1 0 1.1 0.9 2 2.1 2h52.9c1.2 0 2.1-0.9 2.1-2 0-1.2-0.9-2.1-2.1-2.1z"/><path fill-rule="evenodd" class="B" d="m172.1 316.5h53c1.1 0 2.1 0.9 2.1 2 0 1.2-1 2.1-2.1 2.1h-53c-1.1 0-2-0.9-2-2.1 0-1.1 0.9-2 2-2z"/><path fill-rule="evenodd" class="B" d="m290.5 316.5h-52.9c-1.2 0-2.1 0.9-2.1 2 0 1.2 0.9 2.1 2.1 2.1h52.9c1.2 0 2.1-0.9 2.1-2.1 0-1.1-0.9-2-2.1-2z"/><path fill-rule="evenodd" class="B" d="m172.1 325h53c1.1 0 2.1 0.9 2.1 2 0 1.2-1 2.1-2.1 2.1h-53c-1.1 0-2-0.9-2-2.1 0-1.1 0.9-2 2-2z"/><path fill-rule="evenodd" class="B" d="m290.5 325h-52.9c-1.2 0-2.1 0.9-2.1 2 0 1.2 0.9 2.1 2.1 2.1h52.9c1.2 0 2.1-0.9 2.1-2.1 0-1.1-0.9-2-2.1-2z"/><path fill-rule="evenodd" class="B" d="m172.1 333.4h53c1.1 0 2.1 1 2.1 2.1 0 1.2-1 2.1-2.1 2.1h-53c-1.1 0-2-0.9-2-2.1 0-1.1 0.9-2.1 2-2.1z"/><path fill-rule="evenodd" class="B" d="m290.5 333.4h-52.9c-1.2 0-2.1 1-2.1 2.1 0 1.2 0.9 2.1 2.1 2.1h52.9c1.2 0 2.1-0.9 2.1-2.1 0-1.1-0.9-2.1-2.1-2.1z"/><path fill-rule="evenodd" class="B" d="m172.1 341.9h53c1.1 0 2.1 1 2.1 2.1 0 1.2-1 2.1-2.1 2.1h-53c-1.1 0-2-0.9-2-2.1 0-1.1 0.9-2.1 2-2.1z"/><path fill-rule="evenodd" class="B" d="m290.5 341.9h-52.9c-1.2 0-2.1 1-2.1 2.1 0 1.2 0.9 2.1 2.1 2.1h52.9c1.2 0 2.1-0.9 2.1-2.1 0-1.1-0.9-2.1-2.1-2.1z"/><path fill-rule="evenodd" class="B" d="m172.1 350.4h53c1.1 0 2.1 1 2.1 2.1 0 1.2-1 2.1-2.1 2.1h-53c-1.1 0-2-0.9-2-2.1 0-1.1 0.9-2.1 2-2.1z"/><path fill-rule="evenodd" class="B" d="m290.5 350.4h-52.9c-1.2 0-2.1 1-2.1 2.1 0 1.2 0.9 2.1 2.1 2.1h52.9c1.2 0 2.1-0.9 2.1-2.1 0-1.1-0.9-2.1-2.1-2.1z"/><path fill-rule="evenodd" class="B" d="m172.1 358.9h53c1.1 0 2.1 1 2.1 2.1 0 1.1-1 2.1-2.1 2.1h-53c-1.1 0-2-1-2-2.1 0-1.1 0.9-2.1 2-2.1z"/><path fill-rule="evenodd" class="B" d="m290.5 358.9h-52.9c-1.2 0-2.1 1-2.1 2.1 0 1.1 0.9 2.1 2.1 2.1h52.9c1.2 0 2.1-1 2.1-2.1 0-1.1-0.9-2.1-2.1-2.1z"/><path fill-rule="evenodd" class="B" d="m172.1 367.4h53c1.1 0 2.1 1 2.1 2.1 0 1.1-1 2.1-2.1 2.1h-53c-1.1 0-2-1-2-2.1 0-1.1 0.9-2.1 2-2.1z"/><path fill-rule="evenodd" class="B" d="m290.5 367.4h-52.9c-1.2 0-2.1 1-2.1 2.1 0 1.1 0.9 2.1 2.1 2.1h52.9c1.2 0 2.1-1 2.1-2.1 0-1.1-0.9-2.1-2.1-2.1z"/><path fill-rule="evenodd" class="C" d="m276.6 368.3c0 6.8 5.7 12.5 12.5 12.5h-18.2-64.9-6.8c-3.2 0-5.7-2.6-5.7-5.8v-6.7c0-52.5 0-59.5 0-112 0-6.8-5.7-12.5-12.5-12.5h83.1c6.9 0 12.5 5.7 12.5 12.5 0 52.5 0 59.6 0 112z"/><path fill-rule="evenodd" class="D" d="m251.6 256.3c0-6.8 5.7-12.5 12.5-12.5h-18.2-121.6-6.8c-3.1 0-5.7 2.6-5.7 5.8v6.7q0 78.7 0 157.3c0 6.9-5.6 12.5-12.5 12.5h139.9c6.8 0 12.4-5.6 12.4-12.5q0-78.6 0-157.3z"/><path fill-rule="evenodd" class="E" d="m226.7 266v51.6 96c0 6.9 5.6 12.5 12.5 12.5h-139.9c-6.9 0-12.5-5.6-12.5-12.5v-96-51.6-67.3c0-3.1 2.6-5.7 5.7-5.7h128.4c3.2 0 5.8 2.6 5.8 5.7z"/><path fill-rule="evenodd" class="F" d="m122 231.8h-9.5c-0.2 0-0.4-0.1-0.5-0.3l-8.8-16.9q0.1 0.9 0.1 1.7 0.1 1.7 0.1 2.9v12.1c0 0.3-0.2 0.5-0.5 0.5h-6.5c-0.3 0-0.5-0.2-0.5-0.5v-26.8c0-0.3 0.2-0.6 0.5-0.6h9.5c0.2 0 0.4 0.2 0.5 0.4l8.7 16.6q0-0.7 0-1.4-0.1-1.7-0.1-2.9v-12.1c0-0.3 0.2-0.6 0.5-0.6h6.5c0.3 0 0.5 0.3 0.5 0.6v26.8c0 0.3-0.2 0.5-0.5 0.5zm95.6-8.6q0 1.3-0.4 2.5-0.3 1.2-1 2.2-0.7 1-1.6 1.8-1 0.8-2.3 1.4-1.2 0.6-2.7 0.8-1.4 0.3-3.1 0.3-2.7 0-4.6-0.4-0.9-0.2-1.9-0.5-1-0.3-2-0.8c-0.2-0.1-0.3-0.3-0.3-0.5v-6.5c0-0.3 0.2-0.5 0.5-0.5q0.2 0 0.3 0.1 1 0.5 2 0.9 1.1 0.4 2.2 0.7 1.1 0.3 2.1 0.4 1 0.1 1.9 0.1 0.7 0 1.2-0.1 0.5-0.1 0.8-0.3 0.3-0.2 0.4-0.5 0.1-0.2 0.1-0.5 0-0.2 0-0.4-0.1-0.1-0.2-0.3-0.1-0.1-0.3-0.3-0.2-0.2-0.5-0.4-0.3-0.2-1.2-0.6-0.8-0.4-2.3-1v-0.1q-1.3-0.6-2.3-1.2-1.1-0.6-1.7-1.1l-0.1-0.1q-0.7-0.5-1.2-1.2-0.5-0.7-0.8-1.5-0.4-0.8-0.5-1.7-0.2-0.9-0.2-2 0-1.9 0.7-3.5 0.7-1.5 2.2-2.7 1.4-1.1 3.4-1.6 1.9-0.5 4.3-0.5 2.2 0 4.4 0.5 2.1 0.4 4.3 1.4c0.3 0.1 0.4 0.5 0.3 0.7l-2.2 5.6c-0.1 0.3-0.4 0.4-0.7 0.3q-1.9-0.9-3.4-1.3-1.6-0.4-2.9-0.4-0.6 0-1.1 0.1-0.4 0.1-0.6 0.3-0.2 0.2-0.3 0.4-0.1 0.2-0.1 0.4 0 0.3 0.1 0.5 0.1 0.3 0.5 0.5 0.3 0.3 1.4 0.8 1.1 0.6 2.9 1.4 1.8 0.8 3 1.7 1.3 0.9 2 1.8v0.1q0.7 0.9 1.1 2.1 0.4 1.2 0.4 2.7zm-32.2 8.6h-8.6c-0.2 0-0.5-0.1-0.5-0.4l-2.6-11.7q-0.1-0.4-0.2-1.1-0.1-0.6-0.3-1.8l-0.1-0.4q-0.2 0.8-0.3 1.4-0.1 0.8-0.3 1.6c-0.1 0.4-0.5 2.3-1.2 5.4l-1.5 6.6c0 0.3-0.2 0.4-0.5 0.4h-8.6c-0.2 0-0.4-0.1-0.5-0.4l-6.6-26.8c-0.1-0.3 0.1-0.6 0.4-0.6q0-0.1 0.1-0.1h7c0.3 0 0.5 0.2 0.5 0.5l2.9 13.4v0.1q0.5 2.1 0.8 3.8 0.2-0.9 0.4-1.9 0.3-1.6 0.6-2.9 0.3-1.3 0.5-2.4l2.4-10.1c0.1-0.3 0.3-0.5 0.5-0.5h6.8c0.2 0 0.4 0.2 0.5 0.5l2.3 10.1q0.3 1.2 0.6 2.6 0.3 1.5 0.6 3.1 0.1 0.8 0.2 1.5 0.4-1.6 0.8-3.8l3-13.5c0.1-0.3 0.3-0.5 0.5-0.5h7c0.3 0 0.6 0.3 0.6 0.6q0 0.1-0.1 0.1l-6.6 26.8c0 0.3-0.3 0.4-0.5 0.4zm-37.7 0h-15.9c-0.3 0-0.5-0.2-0.5-0.5v-26.8c0-0.3 0.2-0.6 0.5-0.6h15.9c0.3 0 0.6 0.3 0.6 0.6v5.8c0 0.3-0.3 0.5-0.6 0.5h-8.1v3.2h7.5c0.3 0 0.5 0.2 0.5 0.5v5.8c0 0.3-0.2 0.6-0.5 0.6h-7.5v4h8.1c0.3 0 0.6 0.2 0.6 0.5v5.9c0 0.3-0.3 0.5-0.6 0.5z"/><path class="G" d="m165.9 253.6h51.7v36.3h-51.7z"/><path class="H" d="m95.9 253.6h65.9v51.9h-65.9z"/><path class="I" d="m95.9 348.4h65.9v64.6h-65.9z"/><path class="w" d="m95.9 310.5h65.9v32.9h-65.9z"/><path class="I" d="m95.9 239.8h121.7v7.6h-121.7z"/><path fill-rule="evenodd" class="J" d="m103.6 353.3h50.5c0.8 0 1.5 0.7 1.5 1.5 0 0.8-0.7 1.5-1.5 1.5h-50.5c-0.8 0-1.5-0.7-1.5-1.5 0-0.8 0.7-1.5 1.5-1.5z"/><path fill-rule="evenodd" class="J" d="m103.6 360.6h50.5c0.8 0 1.5 0.6 1.5 1.4 0 0.8-0.7 1.5-1.5 1.5h-50.5c-0.8 0-1.5-0.7-1.5-1.5 0-0.8 0.7-1.4 1.5-1.4z"/><path fill-rule="evenodd" class="J" d="m103.6 367.8h50.5c0.8 0 1.5 0.6 1.5 1.4 0 0.8-0.7 1.5-1.5 1.5h-50.5c-0.8 0-1.5-0.7-1.5-1.5 0-0.8 0.7-1.4 1.5-1.4z"/><path fill-rule="evenodd" class="J" d="m103.6 375h50.5c0.8 0 1.5 0.6 1.5 1.4 0 0.8-0.7 1.5-1.5 1.5h-50.5c-0.8 0-1.5-0.7-1.5-1.5 0-0.8 0.7-1.4 1.5-1.4z"/><path fill-rule="evenodd" class="J" d="m103.6 382.2h50.5c0.8 0 1.5 0.6 1.5 1.4 0 0.8-0.7 1.5-1.5 1.5h-50.5c-0.8 0-1.5-0.7-1.5-1.5 0-0.8 0.7-1.4 1.5-1.4z"/><path fill-rule="evenodd" class="J" d="m103.6 389.4h50.5c0.8 0 1.5 0.6 1.5 1.4 0 0.8-0.7 1.5-1.5 1.5h-50.5c-0.8 0-1.5-0.7-1.5-1.5 0-0.8 0.7-1.4 1.5-1.4z"/><path fill-rule="evenodd" class="J" d="m103.6 396.6h50.5c0.8 0 1.5 0.7 1.5 1.5 0 0.8-0.7 1.4-1.5 1.4h-50.5c-0.8 0-1.5-0.6-1.5-1.4 0-0.8 0.7-1.5 1.5-1.5z"/><path fill-rule="evenodd" class="J" d="m103.6 403.8h50.5c0.8 0 1.5 0.7 1.5 1.5 0 0.8-0.7 1.4-1.5 1.4h-50.5c-0.8 0-1.5-0.6-1.5-1.4 0-0.8 0.7-1.5 1.5-1.5z"/><path fill-rule="evenodd" class="w" d="m170.8 296.1h41.9c0.8 0 1.5 0.6 1.5 1.4 0 0.8-0.7 1.5-1.5 1.5h-41.9c-0.8 0-1.5-0.7-1.5-1.5 0-0.8 0.7-1.4 1.5-1.4z"/><path fill-rule="evenodd" class="w" d="m170.8 303.3h41.9c0.8 0 1.5 0.6 1.5 1.4 0 0.8-0.7 1.5-1.5 1.5h-41.9c-0.8 0-1.5-0.7-1.5-1.5 0-0.8 0.7-1.4 1.5-1.4z"/><path fill-rule="evenodd" class="w" d="m170.8 310.5h41.9c0.8 0 1.5 0.6 1.5 1.4 0 0.8-0.7 1.5-1.5 1.5h-41.9c-0.8 0-1.5-0.7-1.5-1.5 0-0.8 0.7-1.4 1.5-1.4z"/><path fill-rule="evenodd" class="w" d="m170.8 317.7h41.9c0.8 0 1.5 0.6 1.5 1.4 0 0.8-0.7 1.5-1.5 1.5h-41.9c-0.8 0-1.5-0.7-1.5-1.5 0-0.8 0.7-1.4 1.5-1.4z"/><path fill-rule="evenodd" class="w" d="m170.8 324.9h41.9c0.8 0 1.5 0.6 1.5 1.4 0 0.8-0.7 1.5-1.5 1.5h-41.9c-0.8 0-1.5-0.7-1.5-1.5 0-0.8 0.7-1.4 1.5-1.4z"/><path fill-rule="evenodd" class="w" d="m170.8 332.1h41.9c0.8 0 1.5 0.7 1.5 1.5 0 0.8-0.7 1.4-1.5 1.4h-41.9c-0.8 0-1.5-0.6-1.5-1.4 0-0.8 0.7-1.5 1.5-1.5z"/><path fill-rule="evenodd" class="w" d="m170.8 339.3h41.9c0.8 0 1.5 0.7 1.5 1.5 0 0.8-0.7 1.4-1.5 1.4h-41.9c-0.8 0-1.5-0.6-1.5-1.4 0-0.8 0.7-1.5 1.5-1.5z"/><path fill-rule="evenodd" class="E" d="m103.6 260h50.5c0.8 0 1.5 0.7 1.5 1.5 0 0.8-0.7 1.5-1.5 1.5h-50.5c-0.8 0-1.5-0.7-1.5-1.5 0-0.8 0.7-1.5 1.5-1.5z"/><path fill-rule="evenodd" class="E" d="m103.6 267.3h50.5c0.8 0 1.5 0.6 1.5 1.4 0 0.8-0.7 1.5-1.5 1.5h-50.5c-0.8 0-1.5-0.7-1.5-1.5 0-0.8 0.7-1.4 1.5-1.4z"/><path fill-rule="evenodd" class="E" d="m103.6 274.5h50.5c0.8 0 1.5 0.6 1.5 1.4 0 0.8-0.7 1.5-1.5 1.5h-50.5c-0.8 0-1.5-0.7-1.5-1.5 0-0.8 0.7-1.4 1.5-1.4z"/><path fill-rule="evenodd" class="E" d="m103.6 281.7h50.5c0.8 0 1.5 0.6 1.5 1.4 0 0.8-0.7 1.5-1.5 1.5h-50.5c-0.8 0-1.5-0.7-1.5-1.5 0-0.8 0.7-1.4 1.5-1.4z"/><path fill-rule="evenodd" class="E" d="m103.6 288.9h50.5c0.8 0 1.5 0.6 1.5 1.4 0 0.8-0.7 1.5-1.5 1.5h-50.5c-0.8 0-1.5-0.7-1.5-1.5 0-0.8 0.7-1.4 1.5-1.4z"/><path fill-rule="evenodd" class="E" d="m103.6 296.1h50.5c0.8 0 1.5 0.6 1.5 1.4 0 0.8-0.7 1.5-1.5 1.5h-50.5c-0.8 0-1.5-0.7-1.5-1.5 0-0.8 0.7-1.4 1.5-1.4z"/><path class="K" d="m165.9 348.4h51.7v29.3h-51.7z"/><path class="L" d="m192.6 380.5h25v29.3h-25z"/><path class="w" d="m165.9 380.5h23.3v29.3h-23.3z"/><path fill-rule="evenodd" class="E" d="m206.6 384q0.4 0 0.6 0.2 0.2 0.3 0.2 0.6v2.4q1 0.2 1.8 0.7 0.9 0.5 1.6 1.2l2-1.2q0.3-0.1 0.6-0.1 0.3 0.1 0.5 0.4l1.6 2.7q0.1 0.3 0 0.6 0 0.3-0.3 0.5l-2.1 1.2q0.1 0.4 0.2 0.8 0.1 0.6 0.1 1.1 0 0.6-0.1 1.1-0.1 0.4-0.2 0.8l2.1 1.2q0.3 0.2 0.3 0.5 0.1 0.3 0 0.6l-1.6 2.7q-0.2 0.3-0.5 0.4-0.3 0.1-0.6-0.1l-2-1.2q-0.7 0.7-1.6 1.2-0.8 0.5-1.8 0.8v2.3q0 0.4-0.2 0.6-0.2 0.2-0.6 0.2h-3.1q-0.3 0-0.6-0.2-0.2-0.2-0.2-0.6v-2.3q-0.9-0.3-1.8-0.8-0.8-0.5-1.5-1.2l-2.1 1.2q-0.3 0.2-0.6 0.1-0.3-0.1-0.5-0.4l-1.5-2.7q-0.2-0.3-0.1-0.6 0.1-0.3 0.3-0.5l2.1-1.2q-0.1-0.4-0.2-0.8 0-0.5 0-1.1 0-0.5 0-1.1 0.1-0.4 0.2-0.8l-2.1-1.2q-0.2-0.2-0.3-0.5-0.1-0.3 0.1-0.6l1.5-2.7q0.2-0.3 0.5-0.4 0.3 0 0.6 0.1l2.1 1.2q0.7-0.7 1.5-1.2 0.9-0.5 1.8-0.7v-2.4q0-0.3 0.2-0.6 0.2-0.2 0.6-0.2zm0.1 3.4v-2.6q0-0.1 0-0.1-0.1 0-0.1 0h-3.2q0 0-0.1 0 0 0 0 0.1v2.6c0 0.2-0.1 0.3-0.2 0.3q-1 0.3-1.9 0.8-0.9 0.5-1.6 1.2c-0.1 0.1-0.3 0.2-0.4 0.1l-2.3-1.3q0 0-0.1 0 0 0-0.1 0l-1.5 2.8q-0.1 0 0 0.1 0 0 0 0l2.3 1.3c0.1 0.1 0.2 0.3 0.1 0.4q-0.1 0.5-0.2 1 0 0.5 0 1 0 0.5 0 1 0.1 0.5 0.2 1c0.1 0.2 0 0.3-0.1 0.4l-2.3 1.3q0 0 0 0.1-0.1 0 0 0.1l1.5 2.7q0.1 0 0.1 0.1 0.1 0 0.1-0.1l2.3-1.3c0.1 0 0.3 0 0.4 0.1q0.7 0.7 1.6 1.2 0.8 0.5 1.8 0.8c0.2 0 0.3 0.2 0.3 0.3v2.6q0 0.1 0 0.1 0.1 0 0.1 0h3.2q0 0 0.1 0 0 0 0-0.1v-2.6c0-0.1 0.1-0.3 0.2-0.3q1-0.3 1.9-0.8 0.9-0.5 1.6-1.2c0.1-0.1 0.3-0.1 0.4-0.1l2.3 1.3q0 0.1 0.1 0.1 0-0.1 0.1-0.1l1.5-2.7q0.1-0.1 0-0.1 0-0.1 0-0.1l-2.3-1.3c-0.1-0.1-0.2-0.2-0.1-0.4q0.1-0.5 0.2-1 0-0.5 0-1 0-0.5 0-1-0.1-0.5-0.2-1c-0.1-0.1 0-0.3 0.1-0.4l2.3-1.3q0 0 0 0 0.1-0.1 0-0.1l-1.5-2.8q-0.1 0-0.1 0-0.1 0-0.1 0l-2.3 1.3c-0.1 0.1-0.3 0-0.4-0.1q-0.7-0.7-1.6-1.2-0.8-0.5-1.8-0.8c-0.2 0-0.3-0.1-0.3-0.3zm2.3 7.7c0 1.1-0.5 2.1-1.2 2.8-0.7 0.7-1.7 1.2-2.8 1.2-1.1 0-2.1-0.5-2.8-1.2-0.7-0.7-1.2-1.7-1.2-2.8 0-1.1 0.5-2.1 1.2-2.8 0.7-0.7 1.7-1.2 2.8-1.2 1.1 0 2.1 0.5 2.8 1.2 0.7 0.7 1.2 1.7 1.2 2.8zm-6.3-2.3c-0.6 0.6-1 1.4-1 2.3 0 0.9 0.4 1.8 1 2.4 0.6 0.6 1.4 0.9 2.3 0.9 0.9 0 1.7-0.3 2.3-0.9 0.6-0.6 1-1.5 1-2.4 0-0.9-0.4-1.7-1-2.3-0.6-0.6-1.4-1-2.3-1-0.9 0-1.7 0.4-2.3 1z"/><path fill-rule="evenodd" class="E" d="m181.7 260.9h20.1c1.1 0 2 1 2 2.1v11.4 1 6.5c0 0.3-0.1 0.5-0.3 0.5-0.2 0.1-0.5 0.1-0.6-0.1l-4.3-4.9h-16.9c-1.1 0-2-0.9-2-2v-12.4c0-1.1 0.9-2.1 2-2.1z"/><path fill-rule="evenodd" class="M" d="m169.8 350.7h2.6c0.3 0 0.5 0.2 0.5 0.5v2.7c0 0.2-0.2 0.5-0.5 0.5h-2.6c-0.3 0-0.5-0.3-0.5-0.5v-2.7c0-0.3 0.2-0.5 0.5-0.5z"/><path fill-rule="evenodd" class="M" d="m169.8 357.7h2.6c0.3 0 0.5 0.2 0.5 0.5v2.7c0 0.2-0.2 0.4-0.5 0.4h-2.6c-0.3 0-0.5-0.2-0.5-0.4v-2.7c0-0.3 0.2-0.5 0.5-0.5z"/><path fill-rule="evenodd" class="M" d="m169.8 364.7h2.6c0.3 0 0.5 0.2 0.5 0.5v2.7c0 0.2-0.2 0.4-0.5 0.4h-2.6c-0.3 0-0.5-0.2-0.5-0.4v-2.7c0-0.3 0.2-0.5 0.5-0.5z"/><path fill-rule="evenodd" class="M" d="m169.8 371.7h2.6c0.3 0 0.5 0.2 0.5 0.5v2.7c0 0.2-0.2 0.4-0.5 0.4h-2.6c-0.3 0-0.5-0.2-0.5-0.4v-2.7c0-0.3 0.2-0.5 0.5-0.5z"/><path fill-rule="evenodd" class="E" d="m177.9 351.8h6.1c0.4 0 0.7 0.3 0.7 0.7 0 0.4-0.3 0.7-0.7 0.7h-6.1c-0.4 0-0.7-0.3-0.7-0.7 0-0.4 0.3-0.7 0.7-0.7zm11.1 0h25.1c0.4 0 0.7 0.3 0.7 0.7 0 0.4-0.3 0.7-0.7 0.7h-25.1c-0.4 0-0.7-0.3-0.7-0.7 0-0.4 0.3-0.7 0.7-0.7zm-2.6 0h0.2c0.4 0 0.7 0.3 0.7 0.7 0 0.4-0.3 0.7-0.7 0.7h-0.2c-0.4 0-0.7-0.3-0.7-0.7 0-0.4 0.3-0.7 0.7-0.7z"/><path fill-rule="evenodd" class="E" d="m214.8 359.5c0 0.4-0.3 0.7-0.7 0.7h-6.1c-0.4 0-0.7-0.3-0.7-0.7 0-0.4 0.3-0.7 0.7-0.7h6.1c0.4 0 0.7 0.3 0.7 0.7zm-11.1 0c0 0.4-0.3 0.7-0.7 0.7h-25.1c-0.4 0-0.7-0.3-0.7-0.7 0-0.4 0.3-0.7 0.7-0.7h25.1c0.4 0 0.7 0.3 0.7 0.7zm2.6 0c0 0.4-0.3 0.7-0.7 0.7h-0.2c-0.4 0-0.7-0.3-0.7-0.7 0-0.4 0.3-0.7 0.7-0.7h0.2c0.4 0 0.7 0.3 0.7 0.7z"/><path fill-rule="evenodd" class="E" d="m177.9 365.8h6.1c0.4 0 0.7 0.3 0.7 0.7 0 0.4-0.3 0.7-0.7 0.7h-6.1c-0.4 0-0.7-0.3-0.7-0.7 0-0.4 0.3-0.7 0.7-0.7zm11.1 0h25.1c0.4 0 0.7 0.3 0.7 0.7 0 0.4-0.3 0.7-0.7 0.7h-25.1c-0.4 0-0.7-0.3-0.7-0.7 0-0.4 0.3-0.7 0.7-0.7zm-2.6 0h0.2c0.4 0 0.7 0.3 0.7 0.7 0 0.4-0.3 0.7-0.7 0.7h-0.2c-0.4 0-0.7-0.3-0.7-0.7 0-0.4 0.3-0.7 0.7-0.7z"/><path fill-rule="evenodd" class="E" d="m203.7 373.5c0 0.4-0.3 0.7-0.7 0.7h-25.1c-0.4 0-0.7-0.3-0.7-0.7 0-0.4 0.3-0.7 0.7-0.7h25.1c0.4 0 0.7 0.3 0.7 0.7zm2.6 0c0 0.4-0.3 0.7-0.7 0.7h-0.2c-0.4 0-0.7-0.3-0.7-0.7 0-0.4 0.3-0.7 0.7-0.7h0.2c0.4 0 0.7 0.3 0.7 0.7z"/><path fill-rule="evenodd" class="c" d="m470.1 432.8c0.5 0.6 1 0.1 1.5-1.3 2.2-47.3-34.7-107.9-34.9-108-0.2-0.4-0.6-0.5-0.9-0.3-0.4 0.2-0.5 0.6-0.3 1 0.1 0.2 37.6 61.6 34.6 108.6z"/><path fill-rule="evenodd" class="N" d="m535.6 213.2q0.1 0 0.2 0 0.1 0 0.1 0 0.1 0 0.2 0 0.1 0 0.2 0 0.1 0 0.2 0 0.1 0 0.1 0 0.1 0 0.2 0 0.1 0 0.2 0 0.1 0 0.2 0c0.3 0 0.7-0.2 1-0.5l6.1-6c0.5-0.5 0.5-1.4 0-2l-4-3.9q1.3-2.2 1.9-4.6h0.1 0.1 0.1 0.1 0.1 0.1 0.1 0.1 0.1 0.1 0.1 0.1 0.1 0.1 0.1 0.1 0.1 0.1 0.1 0.1 0.1 0.1 0.1 0.1 0.1 0.1 0.1 0.1 0.1 0.1 0.1 0.1 0.1 0.1 0.1 0.1 0.1 0.1 0.1 0.1 0.1 0.1 0.1 0.1 0.1 0.1 0.1 0.1 0.1 0.6 0.1c0.8 0 1.4-0.7 1.4-1.4v-8.6c0-0.8-0.6-1.4-1.4-1.4h-0.1-0.6-0.1-0.1-0.1-0.1-0.1-0.1-0.1-0.1-0.1-0.1-0.1-0.1-0.1-0.1-0.1-0.1-0.1-0.1-0.1-0.1-0.1-0.1-0.1-0.1-0.1-0.1-0.1-0.1-0.1-0.1-0.1-0.1-0.1-0.1-0.1-0.1-0.1-0.1-0.1-0.1-0.1-0.1-0.1-0.1-0.1-0.1-0.1-0.1-0.1q-0.6-2.4-1.9-4.6l4-4c0.5-0.5 0.5-1.4 0-1.9l-6.1-6.1c-0.3-0.3-0.7-0.4-1-0.4q-0.1 0-0.2 0-0.1 0-0.2 0-0.1 0-0.2 0-0.1 0-0.1 0-0.1 0-0.2 0-0.1 0-0.2 0-0.1 0-0.2 0 0 0-0.1 0-0.1 0-0.2 0-0.1 0-0.2 0-0.1 0-0.2 0 0 0-0.1 0-0.1 0-0.2 0-0.1 0-0.2 0-0.1 0-0.1 0-0.1 0-0.2 0-0.1 0-0.2 0-0.1 0-0.2 0-0.1 0-0.1 0-0.1 0-0.2 0c-0.4 0-0.8 0.1-1.1 0.4l-2.8 2.8q-1-0.4-2.1-0.8v-5.5c0-0.8-0.6-1.4-1.4-1.4h-0.2-0.5-0.2-0.1-0.1-0.1-0.1-0.1-0.1-0.1-0.1-0.1-0.1-0.1-0.1-0.1-0.1-0.1-0.1-0.1-0.1-0.1-0.1-0.1-0.1-0.1-0.1-0.1-0.1-0.1-0.1-0.1-0.1-0.1-0.1-0.1-0.1-0.1-0.1-0.1-0.1-0.1-0.1-0.1-0.1-0.1-0.1-0.1-0.1-0.1-0.1-0.1-0.1-0.1-0.1-0.1-0.1-0.1-0.1-0.1-0.1-0.1-0.1-0.1-0.1-0.1-0.1-0.1-0.1-0.1-0.1-0.1-0.1-0.1-0.1-0.1-0.1-0.1-0.1-0.1-0.1-0.1-0.1-0.1-0.1-0.1-0.1-0.1-0.1-0.1-0.1-0.1-0.1-0.1-0.1-0.1-0.1-0.1-0.1-0.1-0.1-0.1-0.1-0.1-0.1-0.1-0.1-0.1-0.1-0.1-0.1-0.2-0.1-0.2c-0.8 0-1.4 0.6-1.4 1.4v5.5q-1.1 0.4-2.2 0.8l-2.7-2.8c-0.3-0.3-0.7-0.4-1.1-0.4q-0.1 0-0.2 0-0.1 0-0.2 0-0.1 0-0.1 0-0.1 0-0.2 0-0.1 0-0.2 0-0.1 0-0.2 0 0 0-0.1 0-0.1 0-0.2 0-0.1 0-0.2 0-0.1 0-0.1 0-0.1 0-0.2 0-0.1 0-0.2 0-0.1 0-0.2 0-0.1 0-0.1 0-0.1 0-0.2 0-0.1 0-0.2 0-0.1 0-0.2 0 0 0-0.1 0-0.1 0-0.2 0-0.1 0-0.2 0c-0.4 0-0.8 0.1-1.1 0.4l-6 6.1c-0.5 0.5-0.5 1.4 0 1.9l3.9 4q-1.2 2.2-1.9 4.6h-0.1-0.1-0.1-0.1-0.1-0.1-0.1-0.1-0.1-0.1-0.1-0.1-0.1-0.1-0.1-0.1-0.1-0.1-0.1-0.1-0.1-0.1-0.1-0.1-0.1-0.1-0.1-0.1-0.1-0.1-0.1-0.1-0.1-0.1-0.1-0.1-0.1-0.1-0.1-0.1-0.1-0.1-0.1-0.1-0.1-0.1-0.1-0.1-0.1-0.1-0.2-0.2-0.1c-0.8 0-1.4 0.6-1.4 1.4v8.6c0 0.7 0.6 1.4 1.4 1.4h0.1 0.2 0.2 0.1 0.1 0.1 0.1 0.1 0.1 0.1 0.1 0.1 0.1 0.1 0.1 0.1 0.1 0.1 0.1 0.1 0.1 0.1 0.1 0.1 0.1 0.1 0.1 0.1 0.1 0.1 0.1 0.1 0.1 0.1 0.1 0.1 0.1 0.1 0.1 0.1 0.1 0.1 0.1 0.1 0.1 0.1 0.1 0.1 0.1 0.1 0.1 0.1 0.1q0.7 2.4 2 4.6l-4 3.9c-0.5 0.6-0.5 1.5 0 2l6.1 6c0.3 0.3 0.6 0.5 1 0.5q0.1 0 0.2 0 0.1 0 0.2 0 0.1 0 0.2 0 0 0 0.1 0 0.1 0 0.2 0 0.1 0 0.2 0 0.1 0 0.1 0 0.1 0 0.2 0 0.1 0 0.2 0 0.1 0 0.2 0 0.1 0 0.1 0 0.1 0 0.2 0 0.1 0 0.2 0 0.1 0 0.2 0 0 0 0.1 0 0.1 0 0.2 0 0.1 0 0.2 0 0.1 0 0.2 0 0 0 0.1 0 0.1 0 0.2 0c0.4 0 0.8-0.2 1.1-0.5l2.7-2.7q1.1 0.4 2.2 0.7v5.6c0 0.8 0.6 1.4 1.4 1.4h0.2 0.2 0.1 0.1 0.1 0.1 0.1 0.1 0.1 0.1 0.1 0.1 0.1 0.1 0.1 0.1 0.1 0.1 0.1 0.1 0.1 0.1 0.1 0.1 0.1 0.1 0.1 0.1 0.1 0.1 0.1 0.1 0.1 0.1 0.1 0.1 0.1 0.1 0.1 0.1 0.1 0.1 0.1 0.1 0.1 0.1 0.1 0.1 0.1 0.1 0.1 0.1 0.1 0.1 0.1 0.1 0.1 0.1 0.1 0.1 0.1 0.1 0.1 0.1 0.1 0.1 0.1 0.1 0.1 0.1 0.1 0.1 0.1 0.1 0.1 0.1 0.1 0.1 0.1-0.2 0.1 0.1 0.1 0.1 0.1 0.1 0.1 0.1 0.1 0.1 0.1 0.1 0.1 0.1 0.1 0.1 0.1 0.1 0.1 0.1 0.1 0.1 0.1 0.1 0.1 0.1 0.1 0.1 0.1 0.1 0.1 0.1 0.1 0.1 0.1 0.1 0.6 0.1c0.8 0 1.4-0.6 1.4-1.4v-5.6q1.1-0.3 2.2-0.7l2.8 2.7c0.3 0.3 0.7 0.5 1 0.5q0.1 0 0.2 0 0.1 0 0.2 0 0.1 0 0.2 0 0.1 0 0.1 0 0.1 0 0.2 0 0.1 0 0.2 0 0.1 0 0.2 0 0 0 0.1 0 0.1 0 0.2 0 0.1 0 0.2 0 0 0 0.1 0zm-15.4-33.5c5.2 0.8 9.1 5.3 9.1 10.8 0 5.4-3.9 9.9-9.1 10.8-5.2-0.9-9.1-5.4-9.1-10.8 0-5.4 3.9-10 9.1-10.8z"/><path fill-rule="evenodd" class="O" d="m524 216.3c0 0.8-0.6 1.4-1.3 1.4h-8.6c-0.8 0-1.4-0.6-1.4-1.4v-5.6q-2.5-0.7-4.6-1.9l-4 3.9c-0.5 0.6-1.4 0.6-1.9 0l-6.1-6c-0.5-0.5-0.5-1.4 0-2l4-3.9q-1.3-2.2-2-4.6h-5.5c-0.8 0-1.4-0.7-1.4-1.4v-8.6c0-0.8 0.6-1.4 1.4-1.4h5.5q0.7-2.4 2-4.6l-4-4c-0.5-0.5-0.5-1.4 0-1.9l6.1-6.1c0.5-0.5 1.4-0.5 1.9 0l4 4q2.1-1.3 4.6-2v-5.5c0-0.8 0.6-1.4 1.4-1.4h8.6c0.7 0 1.3 0.6 1.3 1.4v5.5q2.5 0.7 4.7 2l3.9-4c0.6-0.5 1.5-0.5 2 0l6 6.1c0.6 0.5 0.6 1.4 0 1.9l-3.9 4q1.2 2.2 1.9 4.6h5.6c0.8 0 1.4 0.6 1.4 1.4v8.6c0 0.7-0.6 1.4-1.4 1.4h-5.6q-0.7 2.4-1.9 4.6l3.9 3.9c0.6 0.6 0.6 1.5 0 2l-6 6c-0.5 0.6-1.4 0.6-2 0l-3.9-3.9q-2.2 1.2-4.7 1.9zm5.3-25.8c0-6.1-4.9-11-10.9-11-6.1 0-11 4.9-11 11 0 6 4.9 10.9 11 10.9 6 0 10.9-4.9 10.9-10.9z"/><path fill-rule="evenodd" class="E" d="m527.7 199.8c-2.4 2.4-5.7 3.9-9.3 3.9-3.7 0-7-1.5-9.4-3.9-2.4-2.4-3.8-5.7-3.8-9.3 0-3.7 1.4-7 3.8-9.4 2.4-2.4 5.7-3.8 9.4-3.8 3.6 0 6.9 1.4 9.3 3.8 2.4 2.4 3.9 5.7 3.9 9.4 0 3.6-1.5 6.9-3.9 9.3zm-9.3 3.2c3.4 0 6.5-1.4 8.8-3.7 2.3-2.3 3.7-5.4 3.7-8.8 0-3.5-1.4-6.6-3.7-8.9-2.3-2.2-5.4-3.6-8.8-3.6-3.5 0-6.6 1.4-8.9 3.6-2.2 2.3-3.6 5.4-3.6 8.9 0 3.4 1.4 6.5 3.6 8.8 2.3 2.3 5.4 3.7 8.9 3.7z"/><path fill-rule="evenodd" class="E" d="m532.2 204.3c-3.5 3.6-8.4 5.8-13.8 5.8-5.4 0-10.3-2.2-13.9-5.8-3.5-3.5-5.7-8.4-5.7-13.8 0-5.4 2.2-10.3 5.7-13.9 3.6-3.5 8.5-5.7 13.9-5.7 5.4 0 10.3 2.2 13.8 5.7 3.6 3.6 5.8 8.5 5.8 13.9 0 5.4-2.2 10.3-5.8 13.8zm-13.8 5.1c5.2 0 9.9-2.2 13.3-5.6 3.4-3.4 5.6-8.1 5.6-13.3 0-5.2-2.2-10-5.6-13.4-3.4-3.4-8.1-5.5-13.3-5.5-5.2 0-10 2.1-13.4 5.5-3.4 3.4-5.5 8.2-5.5 13.4 0 5.2 2.1 9.9 5.5 13.3 3.4 3.4 8.2 5.6 13.4 5.6z"/><path class="I" d="m247.4 105l5.1 14.9 42.4-54.1-49.1 33.1z"/><path class="P" d="m252.5 119.9l11.8-10.1 1.7-6.4-8.8 5.2z"/><path class="E" d="m247.4 105l-17-5.6 64.5-33.6z"/><path class="E" d="m294.9 65.8l-18.1 57.6-19.6-14.8z"/><path fill-rule="evenodd" class="p" d="m725 460h-7.9c-4.3 0-7.9-3.5-7.9-7.9 0-4.3 3.6-7.9 7.9-7.9h7.9c4.4 0 7.9 3.6 7.9 7.9 0 4.4-3.5 7.9-7.9 7.9z"/><path fill-rule="evenodd" class="Q" d="m443.9 318.2c-15.5-8.3-19.5 9.7-13.4 24.6 6 14.8 36.9 64.8 38.6 84.6 0.6 7.7 2 6.9 3.3 1.5 6.1-26.9-7.2-99.4-28.5-110.7z"/><path fill-rule="evenodd" class="R" d="m476.7 250.1c17.8-16 29 6.4 25.9 28-3.1 21.7-27.5 98-23.1 124.7 1.7 10.4-0.5 9.7-3.9 3-16.9-33.5-23.4-133.6 1.1-155.7z"/><path fill-rule="evenodd" class="f" d="m479.8 410.2c-0.3 1-1.2 0.5-2.3-1.1-18.6-61.8 10.3-154.1 10.4-154.4 0.2-0.5 0.7-0.8 1.2-0.6 0.5 0.1 0.8 0.7 0.7 1.2-0.1 0.3-29.4 93.8-10 154.9z"/><path fill-rule="evenodd" class="S" d="m515.6 301.4c17.2-7.5 20 12 12.3 27.4-7.7 15.3-44.9 66-48.3 87.1-1.3 8.1-2.7 7.1-3.6 1.2-4.3-29.1 15.9-105.3 39.6-115.7z"/><path fill-rule="evenodd" class="i" d="m478.1 421.5c-0.6 0.6-1.1 0-1.5-1.5 1.6-50.6 46-112.2 46.2-112.4 0.2-0.3 0.7-0.4 1-0.1 0.4 0.2 0.5 0.7 0.2 1-0.1 0.2-45.2 62.6-45.9 113z"/><path class="T" d="m491.3 410.3h-33.1l-8.6 7.8 7 27.2h18.2 18.1l7.1-27.2z"/><path fill-rule="evenodd" class="J" d="m500 400.1h-50.4c-1.6 0-2.8 1.3-2.8 2.8v12.4c0 1.5 1.2 2.8 2.8 2.8h50.4c1.5 0 2.7-1.3 2.7-2.8v-12.4c0-1.5-1.2-2.8-2.7-2.8z"/><path class="P" d="m449.6 418.1l1.4 5.6h47.5l1.5-5.6z"/><path fill-rule="evenodd" class="p" d="m73.2 460h620.8c4.4 0 7.9-3.5 7.9-7.9 0-4.3-3.5-7.9-7.9-7.9h-620.8c-4.3 0-7.8 3.6-7.8 7.9 0 4.4 3.5 7.9 7.8 7.9z"/><path fill-rule="evenodd" class="U" d="m568.6 291.6q0.1 0 0.2 0 0.2 0 0.3 0 0.1 0 0.2 0 0.2 0 0.3 0 0.1 0 0.2 0 0.1 0 0.3 0 0.1 0 0.2 0 0.1 0 0.3 0 0.1 0 0.2 0c0.6 0 1.1-0.2 1.5-0.6l8.7-8.6c0.8-0.8 0.8-2.1 0-2.9l-5.7-5.6q1.8-3.1 2.8-6.6h0.1 0.1 0.1 0.1 0.1 0.1 0.1 0.1 0.1 0.1 0.1 0.1 0.1 0.1 0.1 0.1 0.1 0.1 0.1 0.1 0.1 0.1 0.1 0.1 0.1 0.1 0.1 0.1 0.1 0.1 0.1 0.1 0.1 0.1 0.1 0.1 0.1 0.1 0.1 0.1 0.1 0.1 0.1 0.1 0.1 0.1 0.1 0.1 0.1 0.1 0.1 0.1 0.1 0.1 0.1 0.1 0.2 0.1 0.1 0.1 0.2 0.1 0.1 0.1 0.2 0.2 0.8 0.2c1.1 0 2-0.9 2-2v-12.2c0-1.1-0.9-2-2-2h-0.2-0.8-0.2-0.2-0.1-0.1-0.1-0.2-0.1-0.1-0.1-0.2-0.1-0.1-0.1-0.1-0.1-0.1-0.1-0.1-0.1-0.1-0.1-0.1-0.1-0.1-0.1-0.1-0.1-0.1-0.1-0.1-0.1-0.1-0.1-0.1-0.1-0.1-0.1-0.1-0.1-0.1-0.1-0.1-0.1-0.1-0.1-0.1-0.1-0.1-0.1-0.1-0.1-0.1-0.1-0.1-0.1-0.1-0.1-0.1-0.1-0.1-0.1-0.1-0.1-0.1-0.1-0.1q-1-3.5-2.8-6.6l5.7-5.7c0.8-0.8 0.8-2 0-2.8l-8.7-8.7c-0.4-0.4-0.9-0.6-1.5-0.5q-0.1 0-0.2 0-0.2 0-0.3 0-0.1 0-0.2 0-0.2 0-0.3 0-0.1 0-0.2 0-0.2 0-0.3 0-0.1 0-0.2 0-0.1 0-0.3 0-0.1 0-0.2 0-0.1 0-0.3 0-0.1 0-0.2 0-0.1 0-0.3 0-0.1 0-0.2 0-0.1 0-0.3 0-0.1 0-0.2 0-0.1 0-0.3 0-0.1 0-0.2 0-0.1 0-0.2 0-0.2 0-0.3 0-0.1 0-0.2 0c-0.6-0.1-1.2 0.1-1.6 0.5l-3.9 4q-1.5-0.6-3.1-1.1v-7.9c0-1.1-0.9-2-2-2h-0.3-0.7-0.3-0.1-0.1-0.1-0.1-0.1-0.1-0.1-0.1-0.1-0.1-0.1-0.1-0.1-0.1-0.1-0.1-0.1-0.1-0.1-0.1-0.1-0.1-0.1-0.1-0.1-0.1-0.1-0.1-0.1-0.1-0.1-0.1-0.1-0.1-0.1-0.1-0.1-0.1-0.1-0.1-0.1-0.1-0.1-0.1-0.1-0.1-0.1-0.1-0.1-0.1-0.1-0.1-0.1-0.1-0.1-0.1-0.1-0.1-0.1-0.1-0.1-0.1-0.1-0.1-0.1-0.1-0.1-0.1-0.1-0.1-0.1-0.1-0.1-0.1-0.1-0.1-0.1-0.1-0.1-0.1-0.1-0.1-0.1-0.1-0.1-0.1-0.1-0.1-0.1-0.1-0.1-0.1-0.1-0.1-0.1-0.1-0.1-0.1-0.1-0.1-0.1-0.1-0.1-0.1-0.1-0.1-0.1-0.1-0.1-0.1-0.1-0.1-0.1-0.1-0.1-0.1-0.1-0.1-0.1-0.1-0.1-0.1-0.1-0.1-0.1-0.1-0.1-0.1-0.1-0.1-0.1-0.1-0.1-0.1-0.1-0.1-0.1-0.1-0.1-0.1-0.1-0.1-0.1-0.1-0.1-0.1-0.1-0.1-0.1-0.1-0.1-0.1-0.1-0.1-0.1-0.1-0.3-0.2c-1.1 0-2 0.9-2 2v7.9q-1.6 0.5-3.1 1.1l-4-4c-0.4-0.4-1-0.6-1.5-0.5q-0.2 0-0.3 0-0.1 0-0.2 0-0.2 0-0.3 0-0.1 0-0.2 0-0.1 0-0.3 0-0.1 0-0.2 0-0.1 0-0.3 0-0.1 0-0.2 0-0.1 0-0.3 0-0.1 0-0.2 0-0.1 0-0.3 0-0.1 0-0.2 0-0.1 0-0.3 0-0.1 0-0.2 0-0.1 0-0.2 0-0.2 0-0.3 0-0.1 0-0.2 0-0.2 0-0.3 0-0.1 0-0.2 0-0.2 0-0.3 0c-0.5-0.1-1.1 0.1-1.5 0.5l-8.7 8.7c-0.7 0.8-0.7 2 0 2.8l5.7 5.7q-1.8 3.1-2.8 6.6h-0.1-0.1-0.1-0.1-0.1-0.1-0.1-0.1-0.1-0.1-0.1-0.1-0.1-0.1-0.1-0.1-0.1-0.1-0.1-0.1-0.1-0.1-0.1-0.1-0.1-0.1-0.1-0.1-0.1-0.1-0.1-0.1-0.1-0.1-0.1-0.1-0.1-0.1-0.1-0.1-0.1-0.1-0.1-0.1-0.1-0.1-0.1-0.1-0.1-0.1-0.1-0.1-0.1-0.2-0.1-0.1-0.1-0.2-0.1-0.1-0.1-0.2-0.1-0.1-0.1-0.2-0.2-0.3-0.2-0.2c-1.1 0-2 0.9-2 2v12.2c0 1.1 0.9 2 2 2h0.2 0.2 0.3 0.2 0.2 0.1 0.1 0.1 0.2 0.1 0.1 0.1 0.2 0.1 0.1 0.1 0.2 0.1 0.1 0.1 0.1 0.1 0.1 0.1 0.1 0.1 0.1 0.1 0.1 0.1 0.1 0.1 0.1 0.1 0.1 0.1 0.1 0.1 0.1 0.1 0.1 0.1 0.1 0.1 0.1 0.1 0.1 0.1 0.1 0.1 0.1 0.1 0.1 0.1 0.1 0.1 0.1 0.1 0.1 0.1 0.1 0.1 0.1 0.1 0.1 0.1 0.1 0.1 0.1 0.1 0.1q1 3.5 2.7 6.6l-5.6 5.6c-0.8 0.8-0.8 2.1 0 2.9l8.6 8.6c0.4 0.4 1 0.6 1.5 0.6q0.2 0 0.3 0 0.1 0 0.2 0 0.2 0 0.3 0 0.1 0 0.2 0 0.2 0 0.3 0 0.1 0 0.2 0 0.2 0 0.3 0 0.1 0 0.2 0 0.2 0 0.3 0 0.1 0 0.2 0 0.1 0 0.3 0 0.1 0 0.2 0 0.1 0 0.3 0 0.1 0 0.2 0 0.1 0 0.3 0 0.1 0 0.2 0 0.1 0 0.3 0 0.1 0 0.2 0 0.1 0 0.2 0 0.2 0 0.3 0c0.5 0 1.1-0.2 1.5-0.6l4-4q1.5 0.7 3.1 1.1v8c0 1.1 0.9 2 2 2h0.2 0.3 0.2 0.2 0.1 0.1 0.1 0.1 0.1 0.1 0.1 0.1 0.1 0.1 0.1 0.1 0.1 0.1 0.1 0.1 0.1 0.1 0.1 0.1 0.1 0.1 0.1 0.1 0.1 0.1 0.1 0.1 0.1 0.1 0.1 0.1 0.1 0.1 0.1 0.1 0.1 0.1 0.1 0.1 0.1 0.1 0.1 0.1 0.1 0.1 0.1 0.1 0.1 0.1 0.1 0.1 0.1 0.1 0.1 0.1 0.1 0.1 0.1 0.1 0.1 0.1 0.1 0.1 0.1 0.1 0.1 0.1 0.1 0.1 0.1 0.1 0.1 0.1 0.1 0.1 0.1 0.1 0.1 0.1 0.1 0.1 0.1 0.1 0.1 0.1 0.1 0.1 0.1 0.1 0.1 0.1 0.1 0.1 0.1 0.1 0.1 0.1 0.1 0.1 0.1 0.1 0.1 0.1 0.1 0.1 0.1 0.1 0.1 0.1 0.1 0.1 0.1 0.1 0.1 0.1 0.1 0.1 0.1 0.1 0.1 0.1 0.1 0.1 0.1 0.1 0.1 0.1 0.1 0.1 0.1 0.1 0.1 0.1 0.1 0.1 0.1 0.1 0.1 0.1 0.1 0.1 0.1 0.1 0.1 0.1 0.1 0.1 0.1 0.1 0.1 0.1 0.1 0.1 0.3 0.7 0.3c1.1 0 2-0.9 2-2v-8q1.6-0.4 3.1-1.1l3.9 4c0.4 0.4 1 0.6 1.6 0.6q0.1 0 0.2 0 0.1 0 0.3 0 0.1 0 0.2 0 0.1 0 0.3 0 0.1 0 0.2 0 0.1 0 0.2 0 0.2 0 0.3 0 0.1 0 0.2 0 0.2 0 0.3 0 0.1 0 0.2 0c-0.1 0 0 0 0.1 0zm-22-47.9c7.4 1.3 13 7.7 13 15.5 0 7.7-5.6 14.2-13 15.4-7.4-1.2-13.1-7.7-13.1-15.4 0-7.8 5.7-14.2 13.1-15.5z"/><path fill-rule="evenodd" class="V" d="m552.1 296.1c0 1.1-0.9 2-2 2h-12.2c-1.1 0-2-0.9-2-2v-8q-3.5-1-6.7-2.7l-5.6 5.6c-0.8 0.8-2 0.8-2.8 0l-8.7-8.6c-0.7-0.8-0.7-2.1 0-2.9l5.7-5.6q-1.8-3.1-2.8-6.6h-7.9c-1.1 0-2-0.9-2-2v-12.2c0-1.1 0.9-2 2-2h7.9q1-3.5 2.8-6.6l-5.7-5.7c-0.7-0.8-0.7-2 0-2.8l8.7-8.7c0.8-0.7 2-0.7 2.8 0l5.6 5.7q3.2-1.8 6.7-2.8v-7.9c0-1.1 0.9-2 2-2h12.2c1.1 0 2 0.9 2 2v7.9q3.5 1 6.6 2.8l5.6-5.7c0.8-0.7 2.1-0.7 2.9 0l8.6 8.7c0.8 0.8 0.8 2 0 2.8l-5.6 5.7q1.7 3.1 2.7 6.6h8c1.1 0 2 0.9 2 2v12.2c0 1.1-0.9 2-2 2h-8q-1 3.5-2.7 6.6l5.6 5.6c0.8 0.8 0.8 2.1 0 2.9l-8.6 8.6c-0.8 0.8-2.1 0.8-2.9 0l-5.6-5.6q-3.1 1.7-6.6 2.7zm-23.8-36.9c0 8.6 7 15.6 15.7 15.6 8.6 0 15.6-7 15.6-15.6 0-8.7-7-15.7-15.6-15.7-8.7 0-15.7 7-15.7 15.7z"/><path fill-rule="evenodd" class="E" d="m563.8 279c-5.1 5.1-12.1 8.2-19.8 8.2-7.8 0-14.8-3.1-19.9-8.2-5-5.1-8.2-12.1-8.2-19.8 0-7.8 3.2-14.8 8.2-19.9 5.1-5 12.1-8.2 19.9-8.2 7.7 0 14.7 3.2 19.8 8.2 5.1 5.1 8.2 12.1 8.2 19.9 0 7.7-3.1 14.7-8.2 19.8zm-19.8 7.2c7.4 0 14.2-3.1 19-7.9 4.9-4.9 8-11.7 8-19.1 0-7.5-3.1-14.2-8-19.1-4.8-4.9-11.6-7.9-19-7.9-7.5 0-14.2 3-19.1 7.9-4.9 4.9-7.9 11.6-7.9 19.1 0 7.4 3 14.2 7.9 19.1 4.9 4.8 11.6 7.9 19.1 7.9z"/><path fill-rule="evenodd" class="E" d="m557.3 272.5c-3.4 3.4-8.1 5.6-13.3 5.6-5.2 0-10-2.2-13.4-5.6-3.4-3.4-5.5-8.1-5.5-13.3 0-5.2 2.1-10 5.5-13.4 3.4-3.4 8.2-5.5 13.4-5.5 5.2 0 9.9 2.1 13.3 5.5 3.4 3.4 5.6 8.2 5.6 13.4 0 5.2-2.2 9.9-5.6 13.3zm-13.3 4.5c4.9 0 9.4-2 12.6-5.2 3.2-3.2 5.2-7.7 5.2-12.6 0-5-2-9.4-5.2-12.6-3.2-3.3-7.7-5.3-12.6-5.3-5 0-9.4 2-12.7 5.3-3.2 3.2-5.2 7.6-5.2 12.6 0 4.9 2 9.4 5.2 12.6 3.3 3.2 7.7 5.2 12.7 5.2z"/><path fill-rule="evenodd" class="E" d="m547.3 384.1c1.8 0 3.3-1.5 3.3-3.3 0-1.9-1.5-3.3-3.3-3.3-1.8 0-3.3 1.4-3.3 3.3 0 1.8 1.5 3.3 3.3 3.3z"/><path fill-rule="evenodd" class="E" d="m560.7 384.1c1.8 0 3.3-1.5 3.3-3.3 0-1.9-1.5-3.3-3.3-3.3-1.8 0-3.3 1.4-3.3 3.3 0 1.8 1.5 3.3 3.3 3.3z"/><path fill-rule="evenodd" class="E" d="m574.1 384.1c1.8 0 3.3-1.5 3.3-3.3 0-1.9-1.4-3.3-3.3-3.3-1.8 0-3.3 1.4-3.3 3.3 0 1.8 1.5 3.3 3.3 3.3z"/><path fill-rule="evenodd" class="E" d="m587.5 384.1c1.9 0 3.4-1.5 3.4-3.3 0-1.9-1.5-3.3-3.4-3.3-1.8 0-3.3 1.4-3.3 3.3 0 1.8 1.5 3.3 3.3 3.3z"/><path fill-rule="evenodd" class="E" d="m614.4 384.1c1.8 0 3.3-1.5 3.3-3.3 0-1.9-1.5-3.3-3.3-3.3-1.9 0-3.3 1.4-3.3 3.3 0 1.8 1.4 3.3 3.3 3.3z"/><path fill-rule="evenodd" class="E" d="m627.8 384.1c1.8 0 3.3-1.5 3.3-3.3 0-1.9-1.5-3.3-3.3-3.3-1.8 0-3.3 1.4-3.3 3.3 0 1.8 1.5 3.3 3.3 3.3z"/><path fill-rule="evenodd" class="E" d="m641.2 384.1c1.8 0 3.3-1.5 3.3-3.3 0-1.9-1.5-3.3-3.3-3.3-1.8 0-3.3 1.4-3.3 3.3 0 1.8 1.5 3.3 3.3 3.3z"/><path fill-rule="evenodd" class="E" d="m533.9 397.5c1.8 0 3.3-1.5 3.3-3.3 0-1.8-1.5-3.3-3.3-3.3-1.8 0-3.3 1.5-3.3 3.3 0 1.8 1.5 3.3 3.3 3.3z"/><path fill-rule="evenodd" class="E" d="m560.7 397.5c1.8 0 3.3-1.5 3.3-3.3 0-1.8-1.5-3.3-3.3-3.3-1.8 0-3.3 1.5-3.3 3.3 0 1.8 1.5 3.3 3.3 3.3z"/><path fill-rule="evenodd" class="E" d="m587.5 397.5c1.9 0 3.4-1.5 3.4-3.3 0-1.8-1.5-3.3-3.4-3.3-1.8 0-3.3 1.5-3.3 3.3 0 1.8 1.5 3.3 3.3 3.3z"/><path fill-rule="evenodd" class="E" d="m601 397.5c1.8 0 3.3-1.5 3.3-3.3 0-1.8-1.5-3.3-3.3-3.3-1.9 0-3.4 1.5-3.4 3.3 0 1.8 1.5 3.3 3.4 3.3z"/><path fill-rule="evenodd" class="E" d="m614.4 397.5c1.8 0 3.3-1.5 3.3-3.3 0-1.8-1.5-3.3-3.3-3.3-1.9 0-3.3 1.5-3.3 3.3 0 1.8 1.4 3.3 3.3 3.3z"/><path fill-rule="evenodd" class="E" d="m627.8 397.5c1.8 0 3.3-1.5 3.3-3.3 0-1.8-1.5-3.3-3.3-3.3-1.8 0-3.3 1.5-3.3 3.3 0 1.8 1.5 3.3 3.3 3.3z"/><path fill-rule="evenodd" class="E" d="m560.7 410.9c1.8 0 3.3-1.5 3.3-3.3 0-1.8-1.5-3.3-3.3-3.3-1.8 0-3.3 1.5-3.3 3.3 0 1.8 1.5 3.3 3.3 3.3z"/><path fill-rule="evenodd" class="E" d="m574.1 410.9c1.8 0 3.3-1.5 3.3-3.3 0-1.8-1.4-3.3-3.3-3.3-1.8 0-3.3 1.5-3.3 3.3 0 1.8 1.5 3.3 3.3 3.3z"/><path fill-rule="evenodd" class="E" d="m587.5 410.9c1.9 0 3.4-1.5 3.4-3.3 0-1.8-1.5-3.3-3.4-3.3-1.8 0-3.3 1.5-3.3 3.3 0 1.8 1.5 3.3 3.3 3.3z"/><path fill-rule="evenodd" class="E" d="m601 410.9c1.8 0 3.3-1.5 3.3-3.3 0-1.8-1.5-3.3-3.3-3.3-1.9 0-3.4 1.5-3.4 3.3 0 1.8 1.5 3.3 3.4 3.3z"/><path fill-rule="evenodd" class="E" d="m614.4 410.9c1.8 0 3.3-1.5 3.3-3.3 0-1.8-1.5-3.3-3.3-3.3-1.9 0-3.3 1.5-3.3 3.3 0 1.8 1.4 3.3 3.3 3.3z"/><path fill-rule="evenodd" class="E" d="m641.2 410.9c1.8 0 3.3-1.5 3.3-3.3 0-1.8-1.5-3.3-3.3-3.3-1.8 0-3.3 1.5-3.3 3.3 0 1.8 1.5 3.3 3.3 3.3z"/><path fill-rule="evenodd" class="E" d="m654.6 410.9c1.8 0 3.3-1.5 3.3-3.3 0-1.8-1.5-3.3-3.3-3.3-1.8 0-3.3 1.5-3.3 3.3 0 1.8 1.5 3.3 3.3 3.3z"/><path fill-rule="evenodd" class="E" d="m189.8 122.9c-0.4 0-0.7-0.3-0.7-0.7 0-0.5 0.3-0.8 0.7-0.8q0.8 0 1.4-0.4 0.6-0.4 0.8-1.3c0.2-0.8 0.7-1.5 1.3-2 0.7-0.5 1.5-0.8 2.3-0.8 0.9 0 1.7 0.3 2.4 0.8 0.6 0.5 1.1 1.2 1.3 2q0.2 0.9 0.8 1.3c0.3 0.3 0.8 0.4 1.4 0.4q0.8 0 1.4-0.4 0.5-0.4 0.7-1.3c0.3-0.8 0.7-1.5 1.4-2 0.6-0.5 1.4-0.8 2.3-0.8 0.8 0 1.6 0.3 2.3 0.8 0.6 0.5 1.1 1.2 1.3 2q0.3 0.9 0.8 1.3 0.6 0.4 1.4 0.4 0.8 0 1.4-0.4 0.5-0.4 0.8-1.3c0.2-0.8 0.7-1.5 1.3-2 0.6-0.5 1.4-0.8 2.3-0.8 0.9 0 1.7 0.3 2.3 0.8 0.6 0.5 1.1 1.2 1.4 2q0.2 0.9 0.7 1.3 0.6 0.4 1.4 0.4 0.8 0 1.4-0.4 0.6-0.4 0.8-1.3c0.2-0.8 0.7-1.5 1.3-2 0.7-0.5 1.5-0.8 2.3-0.8 0.9 0 1.7 0.3 2.4 0.8 0.6 0.5 1.1 1.2 1.3 2q0.2 0.9 0.8 1.3c0.3 0.3 0.8 0.4 1.4 0.4q0.8 0 1.4-0.4 0.5-0.4 0.7-1.3c0.3-0.8 0.7-1.5 1.4-2 0.6-0.5 1.4-0.8 2.3-0.8 0.8 0 1.6 0.3 2.3 0.8 0.6 0.5 1.1 1.2 1.3 2q0.3 0.9 0.8 1.3 0.6 0.4 1.4 0.4c0.4 0 0.8 0.3 0.8 0.8 0 0.4-0.4 0.7-0.8 0.7-0.9 0-1.7-0.2-2.3-0.7-0.6-0.5-1.1-1.2-1.4-2.1q-0.2-0.8-0.7-1.2-0.6-0.4-1.4-0.4-0.8 0-1.4 0.4-0.6 0.4-0.8 1.2c-0.2 0.9-0.7 1.6-1.3 2.1-0.7 0.5-1.5 0.7-2.3 0.7-0.9 0-1.7-0.2-2.4-0.7-0.6-0.5-1.1-1.2-1.3-2.1q-0.2-0.8-0.8-1.2-0.6-0.4-1.4-0.4-0.8 0-1.4 0.4-0.5 0.4-0.7 1.2c-0.3 0.9-0.7 1.6-1.4 2.1-0.6 0.5-1.4 0.7-2.3 0.7-0.8 0-1.6-0.2-2.3-0.7-0.6-0.5-1.1-1.2-1.3-2.1q-0.3-0.8-0.8-1.2-0.6-0.4-1.4-0.4-0.8 0-1.4 0.4-0.5 0.4-0.8 1.2c-0.2 0.9-0.7 1.6-1.3 2.1-0.6 0.5-1.5 0.7-2.3 0.7-0.9 0-1.7-0.2-2.3-0.7-0.7-0.5-1.1-1.2-1.4-2.1q-0.2-0.8-0.7-1.2-0.6-0.4-1.4-0.4c-0.6 0-1 0.1-1.4 0.4q-0.6 0.4-0.8 1.2c-0.2 0.9-0.7 1.6-1.3 2.1-0.7 0.5-1.5 0.7-2.3 0.7-0.9 0-1.7-0.2-2.4-0.7-0.6-0.5-1.1-1.2-1.3-2.1q-0.2-0.8-0.8-1.2-0.6-0.4-1.4-0.4-0.8 0-1.4 0.4-0.5 0.4-0.7 1.2c-0.3 0.9-0.7 1.6-1.4 2.1-0.6 0.5-1.4 0.7-2.3 0.7z"/><path fill-rule="evenodd" class="E" d="m233.3 61.4c0.4 0 0.8 0.2 1.1 0.5 0.3 0.3 0.4 0.7 0.4 1.1 0 0.4-0.1 0.8-0.4 1.1-0.3 0.3-0.7 0.4-1.1 0.4-0.5 0-0.8-0.1-1.1-0.4-0.3-0.3-0.5-0.7-0.5-1.1 0-0.4 0.2-0.8 0.5-1.1 0.3-0.3 0.6-0.5 1.1-0.5z"/><path fill-rule="evenodd" class="E" d="m325.7 77.2c0.4 0 0.8 0.2 1.1 0.5 0.3 0.3 0.4 0.7 0.4 1.1 0 0.4-0.1 0.8-0.4 1.1-0.3 0.3-0.7 0.4-1.1 0.4-0.5 0-0.8-0.1-1.1-0.4-0.3-0.3-0.5-0.7-0.5-1.1 0-0.4 0.2-0.8 0.5-1.1 0.3-0.3 0.6-0.5 1.1-0.5z"/><path fill-rule="evenodd" class="E" d="m68.1 322.7c0.4 0 0.8 0.2 1.1 0.5 0.3 0.3 0.5 0.6 0.5 1.1 0 0.4-0.2 0.8-0.5 1.1-0.3 0.3-0.7 0.4-1.1 0.4-0.4 0-0.8-0.1-1.1-0.4-0.3-0.3-0.5-0.7-0.5-1.1 0-0.5 0.2-0.8 0.5-1.1 0.3-0.3 0.7-0.5 1.1-0.5z"/><path fill-rule="evenodd" class="E" d="m556.3 137.7c0.4 0 0.8 0.1 1.1 0.4 0.3 0.3 0.4 0.7 0.4 1.1 0 0.5-0.1 0.9-0.4 1.1-0.3 0.3-0.7 0.5-1.1 0.5-0.4 0-0.8-0.2-1.1-0.5-0.3-0.2-0.5-0.6-0.5-1.1 0-0.4 0.2-0.8 0.5-1.1 0.3-0.3 0.7-0.4 1.1-0.4z"/><path fill-rule="evenodd" class="E" d="m548.8 348.8c0.5 0 0.9 0.1 1.1 0.4 0.3 0.3 0.5 0.7 0.5 1.1 0 0.4-0.2 0.8-0.5 1.1-0.2 0.3-0.6 0.5-1.1 0.5-0.4 0-0.8-0.2-1.1-0.5-0.2-0.3-0.4-0.7-0.4-1.1 0-0.4 0.2-0.8 0.4-1.1 0.3-0.3 0.7-0.4 1.1-0.4z"/><path fill-rule="evenodd" class="E" d="m427 415.7c0.5 0 0.9 0.2 1.1 0.5 0.3 0.2 0.5 0.6 0.5 1.1 0 0.4-0.2 0.8-0.5 1.1-0.2 0.2-0.6 0.4-1.1 0.4-0.4 0-0.8-0.2-1.1-0.4-0.2-0.3-0.4-0.7-0.4-1.1 0-0.5 0.2-0.9 0.4-1.1 0.3-0.3 0.7-0.5 1.1-0.5z"/><path fill-rule="evenodd" class="E" d="m336.8 96.8c0.5 0 0.9 0.1 1.1 0.4 0.3 0.3 0.5 0.7 0.5 1.1 0 0.4-0.2 0.8-0.5 1.1-0.2 0.3-0.6 0.5-1.1 0.5-0.4 0-0.8-0.2-1.1-0.5-0.2-0.3-0.4-0.7-0.4-1.1 0-0.4 0.2-0.8 0.4-1.1 0.3-0.3 0.7-0.4 1.1-0.4z"/><path fill-rule="evenodd" class="L" d="m646 268v-4.1q0-0.4 0.3-0.6 0.2-0.3 0.6-0.3h5.1q0.4 0 0.6 0.3 0.3 0.2 0.3 0.6v4.1c0 0.3 0.1 0.4 0.3 0.5q1.7 0.5 3.1 1.3 1.4 0.8 2.6 2c0.2 0.1 0.4 0.2 0.6 0.1l3.6-2.1q0.3-0.2 0.7-0.1 0.3 0.1 0.5 0.4l2.5 4.4h0.1q0.1 0.4 0.1 0.7-0.1 0.4-0.5 0.5l-3.5 2.1c-0.2 0.1-0.3 0.3-0.3 0.5q0.2 0.8 0.3 1.7 0.1 0.8 0.1 1.6 0 0.9-0.1 1.7-0.1 0.8-0.3 1.6c0 0.2 0.1 0.5 0.3 0.6l3.5 2q0.4 0.2 0.5 0.6 0 0.3-0.1 0.7l-2.6 4.3v0.1q-0.2 0.3-0.5 0.4-0.4 0.1-0.7-0.1l-3.6-2.1c-0.1-0.1-0.4-0.1-0.6 0.1q-1.2 1.1-2.6 2-1.4 0.8-3 1.3c-0.3 0-0.4 0.2-0.4 0.4v4.2q0 0.4-0.3 0.6-0.2 0.3-0.6 0.3h-5.1q-0.4 0-0.6-0.3-0.3-0.2-0.3-0.6v-4.2c0-0.2-0.1-0.4-0.3-0.4q-1.6-0.5-3.1-1.3-1.4-0.9-2.6-2c-0.2-0.2-0.4-0.2-0.6-0.1l-3.6 2.1q-0.3 0.2-0.7 0.1-0.3-0.1-0.5-0.4l-2.5-4.4q-0.2-0.4-0.1-0.7 0.1-0.4 0.4-0.6l3.5-2c0.2-0.1 0.3-0.3 0.3-0.6q-0.2-0.8-0.3-1.6-0.1-0.8-0.1-1.7 0-0.8 0.1-1.6 0.1-0.9 0.3-1.7c0-0.2 0-0.4-0.2-0.5l-3.6-2v-0.1q-0.3-0.1-0.4-0.5-0.1-0.3 0.1-0.7l2.5-4.3v-0.1q0.2-0.3 0.5-0.4 0.4-0.1 0.7 0.1l3.6 2.1c0.2 0.1 0.4 0.1 0.6-0.1q1.2-1.2 2.6-2 1.5-0.8 3.1-1.3c0.2 0 0.3-0.2 0.3-0.5zm-4.3 13.6c0 2.2 0.9 4.1 2.3 5.5 1.4 1.4 3.3 2.3 5.5 2.3 2.1 0 4-0.9 5.4-2.3 1.4-1.4 2.3-3.3 2.3-5.5 0-2.1-0.9-4-2.3-5.4-1.4-1.4-3.3-2.3-5.4-2.3-2.2 0-4.1 0.9-5.5 2.3-1.4 1.4-2.3 3.3-2.3 5.4z"/><path fill-rule="evenodd" class="L" d="m677 186.7v-0.1q0.1 0 0.1 0 0.1-0.1 0.1-0.2v-9.3c0-0.8 0.3-1.5 0.8-2q0.4-0.4 1-0.6 0.5-0.2 1-0.2h11.5q0.5 0 1 0.2 0.6 0.2 1 0.6 0.4 0.4 0.6 0.9 0.2 0.5 0.2 1.1v9.3q0 0.1 0.1 0.2 0 0 0.1 0 1.8 0.6 3.6 1.3 1.8 0.8 3.4 1.7 1.7 1 3.2 2.1 1.6 1.2 2.9 2.5v0.1q0.1 0 0.2 0 0 0 0.1 0l7.5-4.3 0.6-0.4q0.5-0.3 1-0.3 0.6-0.1 1.1 0 0.6 0.2 1 0.5 0.1 0.1 0.2 0.2l0.1-0.1c2.1 3.5 4.3 7.1 6.2 10.7q0.3 0.5 0.3 1 0.1 0.6 0 1.1-0.2 0.6-0.5 1-0.3 0.5-0.9 0.7l-8 4.7q-0.1 0-0.1 0.1 0 0.1 0 0.2 0.2 0.9 0.4 1.8 0.2 1 0.3 1.9 0.1 1 0.1 1.9 0.1 1 0.1 2 0 0.9-0.1 1.9 0 1-0.1 1.9-0.1 0.9-0.3 1.9-0.1 0.5-0.2 1l-0.2 0.9q0 0.1 0 0.1 0 0.1 0.1 0.1l8 4.7q0.5 0.3 0.9 0.7 0.3 0.5 0.5 1 0.1 0.6 0 1.1 0 0.2 0 0.3l0.1 0.1c-2 3.5-4 7.2-6.1 10.6q-0.3 0.5-0.8 0.8-0.4 0.3-1 0.5-0.5 0.1-1.1 0.1-0.5-0.1-1-0.4l-8.1-4.6q0-0.1-0.1-0.1-0.1 0-0.2 0.1-1.3 1.3-2.9 2.5-1.5 1.1-3.2 2.1-1.6 1-3.4 1.7-1.7 0.7-3.6 1.3-0.1 0-0.2 0.1 0 0 0 0.1v9.3q0 0.6-0.2 1.1-0.2 0.5-0.6 0.9-0.4 0.4-1 0.7-0.5 0.2-1 0.2h-11.5q-0.5 0-1-0.2-0.6-0.3-1-0.7-0.4-0.4-0.6-0.9-0.2-0.5-0.2-1.1v-9.3q0-0.1-0.1-0.1 0-0.1-0.1-0.1-1.8-0.5-3.6-1.3-1.8-0.7-3.4-1.7-1.7-1-3.2-2.1-1.6-1.2-2.9-2.5-0.1-0.1-0.2-0.1-0.1 0-0.1 0c-2.7 1.6-5.4 3.3-8.1 4.7q-0.5 0.3-1 0.4-0.6 0-1.1-0.1-0.6-0.2-1-0.5-0.1-0.1-0.2-0.2l-0.1 0.1-6.2-10.6q-0.3-0.5-0.3-1.1-0.1-0.5 0-1.1 0.2-0.5 0.5-1l0.1-0.1-0.1-0.1c2.9-1.7 5.9-3.6 8.9-5.2q0.1 0 0.1-0.1 0 0 0-0.1-0.2-0.9-0.4-1.9-0.2-1-0.3-1.9-0.1-0.9-0.1-1.9-0.1-1-0.1-1.9 0-1 0.1-2 0-0.9 0.1-1.9 0.1-0.9 0.3-1.9 0.1-0.5 0.2-1.1l0.2-0.7q0-0.1 0-0.2 0-0.1-0.1-0.1c-2.6-1.5-5.5-3-8-4.7q-0.5-0.2-0.9-0.7-0.3-0.4-0.5-1-0.1-0.5 0-1.1 0-0.5 0.3-1c1.9-3.3 3.8-6.7 5.7-9.9q0.3-0.5 0.8-0.9 0.4-0.3 1-0.5 0.5-0.1 1 0 0.6 0 1 0.3 4.1 2.3 8.2 4.7 0 0 0.1 0 0.1 0 0.1 0 1.4-1.4 3-2.5 1.5-1.2 3.2-2.2 1.6-0.9 3.4-1.7 1.7-0.7 3.6-1.2zm0.4 1.6q-1.7 0.5-3.3 1.2-1.7 0.7-3.3 1.6-1.5 0.9-3 2-1.5 1.1-2.8 2.4-0.5 0.4-1.1 0.5c-0.4 0-0.8 0-1.2-0.3-2.6-1.5-5.5-3-8.1-4.6q-0.2-0.1-0.4-0.2-0.2 0-0.4 0.1-0.2 0-0.4 0.2-0.2 0.1-0.3 0.3c-2 3-3.9 6.8-5.7 9.9q-0.1 0.2-0.2 0.4 0 0.3 0.1 0.5 0 0.2 0.2 0.4 0.1 0.2 0.3 0.3c2.4 1.6 5.5 3.2 8.1 4.6 0.3 0.3 0.6 0.6 0.8 1q0 0.1 0.1 0.3l0.1 0.1-0.1 0.8q-0.3 0.8-0.4 1.7-0.2 0.9-0.3 1.8-0.1 0.9-0.2 1.8 0 0.9 0 1.9 0 0.9 0 1.8 0.1 0.9 0.2 1.8 0.1 0.9 0.3 1.8 0.1 0.9 0.4 1.8c0.1 0.4 0 0.9-0.2 1.2-0.1 0.4-0.4 0.7-0.8 0.9l-7.2 4.2-0.8 0.4q-0.2 0.2-0.3 0.3-0.2 0.2-0.2 0.5-0.1 0.2-0.1 0.4 0.1 0.2 0.2 0.4l5.3 9.2 0.4 0.7q0.1 0.2 0.3 0.4 0.2 0.1 0.4 0.2 0.2 0 0.4 0 0.3 0 0.5-0.2c2.5-1.6 5.4-3.1 8-4.6q0.6-0.3 1.2-0.3c0.4 0.1 0.8 0.3 1.1 0.6q1.3 1.2 2.8 2.3 1.4 1.1 3 2 1.6 1 3.3 1.7 1.6 0.7 3.4 1.2c0.4 0.1 0.8 0.3 1 0.7 0.2 0.3 0.4 0.7 0.4 1.1v9.3q0 0.3 0.1 0.5 0.1 0.2 0.2 0.3 0.2 0.2 0.4 0.3 0.2 0.1 0.4 0.1h11.5q0.2 0 0.4-0.1 0.2-0.1 0.4-0.3 0.1-0.1 0.2-0.3 0.1-0.2 0.1-0.5v-9.3c0-0.4 0.2-0.8 0.4-1.2 0.3-0.3 0.7-0.5 1.1-0.6q1.7-0.5 3.3-1.2 1.7-0.8 3.3-1.7 1.6-0.9 3-2 1.5-1.1 2.8-2.3c0.3-0.3 0.7-0.5 1.1-0.6 0.5 0 0.9 0.1 1.3 0.3l7.9 4.7q0.2 0.1 0.5 0.1 0.2 0 0.4 0 0.2-0.1 0.4-0.2 0.2-0.2 0.3-0.4 2.9-4.9 5.7-9.9 0.1-0.2 0.2-0.4 0-0.2-0.1-0.4 0-0.3-0.2-0.5-0.1-0.1-0.3-0.3l-8.1-4.6q-0.5-0.3-0.8-0.9 0-0.2-0.1-0.3l-0.2-0.1 0.2-0.8q0.3-0.9 0.4-1.8 0.2-0.8 0.3-1.8 0.1-0.9 0.2-1.8 0-0.9 0-1.8 0-1 0-1.9-0.1-0.9-0.2-1.8-0.1-0.9-0.3-1.8-0.1-0.9-0.4-1.7c-0.1-0.5 0-0.9 0.2-1.3 0.1-0.4 0.4-0.7 0.8-0.9l8-4.6q0.2-0.1 0.3-0.3 0.2-0.2 0.2-0.4 0.1-0.2 0.1-0.5-0.1-0.2-0.2-0.4c-1.9-2.9-3.9-6.8-5.7-9.9q-0.1-0.2-0.3-0.3-0.2-0.2-0.4-0.2-0.2-0.1-0.4-0.1-0.3 0.1-0.5 0.2l-8 4.6c-0.4 0.3-0.8 0.3-1.3 0.3-0.4-0.1-0.7-0.3-1-0.5q-1.4-1.3-2.8-2.4-1.4-1.1-3-2-1.6-0.9-3.3-1.6-1.6-0.7-3.4-1.2c-0.4-0.2-0.8-0.4-1-0.7-0.2-0.3-0.4-0.8-0.4-1.2v-9.3q0-0.2-0.1-0.4-0.1-0.2-0.2-0.4-0.2-0.2-0.4-0.3-0.2 0-0.4 0h-11.5q-0.2 0-0.4 0-0.2 0.1-0.4 0.3c-0.2 0.2-0.3 0.5-0.3 0.8v9.3c0 0.5-0.2 0.9-0.4 1.2-0.3 0.3-0.7 0.6-1.1 0.7zm-4.5 15.8c1.6-1.7 3.7-3 5.9-4 2.1-0.9 4.5-1.4 7-1.4 2.4 0 4.8 0.5 6.9 1.4 2.2 1 4.3 2.3 5.9 4 1.7 1.7 3.1 3.7 4 5.9 0.9 2.2 1.4 4.5 1.4 7 0 2.4-0.5 4.8-1.4 6.9-0.9 2.3-2.3 4.3-4 5.9-1.6 1.7-3.6 3.1-5.9 4-2.1 0.9-4.5 1.4-6.9 1.4-2.5 0-4.9-0.5-7-1.4-2.2-0.9-4.3-2.3-5.9-4-1.7-1.6-3.1-3.6-4-5.9-0.9-2.1-1.4-4.5-1.4-6.9 0-2.5 0.5-4.8 1.4-7 0.9-2.2 2.3-4.2 4-5.9zm6.5-2.4c-2 0.8-3.8 2.1-5.3 3.6-1.6 1.5-2.8 3.3-3.6 5.3-0.8 2-1.3 4.1-1.3 6.4 0 2.2 0.5 4.3 1.3 6.3 0.8 2 2 3.8 3.6 5.4 1.5 1.5 3.3 2.7 5.3 3.5 2 0.9 4.1 1.3 6.3 1.3 2.3 0 4.4-0.4 6.4-1.3 2-0.8 3.8-2 5.3-3.5 1.6-1.6 2.8-3.4 3.6-5.4 0.8-2 1.3-4.1 1.3-6.3 0-2.3-0.5-4.4-1.3-6.4-0.8-2-2-3.8-3.6-5.3-1.5-1.5-3.3-2.8-5.3-3.6-2-0.8-4.1-1.3-6.4-1.3-2.2 0-4.3 0.5-6.3 1.3z"/><path fill-rule="evenodd" class="W" d="m353.9 289.5c0.2-3.7 3-25.8 3-25.8 0 0 0-15.7-4.7-14.7 0 0-4 0.6-3.5 10.7 0.4 10.2-3.1 24.1-2.7 31.1v0.1c3.2-0.6 5.8-1 7.9-1.4z"/><path fill-rule="evenodd" class="W" d="m347.3 320.3c-0.3 1.4-3.1 3.7-3 5 0.1 1 0 3.8 0.1 4.4 0.1 0.7 0.8 1.1 0.8 1.1 0.9 0.5 2.7 1.8 3 1.9 0.3 0.1 0.6-0.4 0.6-0.4 0-1.3-2-2.7-2-2.9-0.1-0.2-0.1-2.2 0.3-2.8 0.4-0.5 1.5-0.8 1.6-0.2 0.2 0.5 0.1 1.9 0 2.9 0 1-0.4 1.9 0 2.3 0.5 0.4 1.4-0.2 1.4-0.2 0.2-0.6 0.5-1.5 0.7-2.9 0.2-1.4 0.6-1.5 1.1-3.1 0.4-1.6-0.4-3.4-0.5-3.8q0-0.1 0.1-0.5c0 0 1-9 1.7-18.6 0.5-5.8 0.9-10.6 0.9-11.2 0-0.1-0.1-2.5-0.1-2.7-2.2-0.1-6.4-2-7.8 2.2-0.7 6.1 1.2 27 1.1 29.5z"/><path fill-rule="evenodd" class="X" d="m357.9 244.1c0 0-10.7-0.5-9.7 18.5l6.8 2.8c0 0 9.2-9.5 8.8-11.7-0.5-2.3-5.2-9.4-5.2-9.4z"/><path fill-rule="evenodd" class="Y" d="m381.7 208c0 0 3.7 0.3 5.3 4.7 1.6 4.4-3.6 16.2 0 22.2 3.6 6 7.9 10.8-2 17.8-8.5 6.1-24.6 2.6-28.9 1.5l-0.8-1.5c-1.6-1-2.7-2.4-3.4-3.7-1.4-3.1-2.3-7.4-0.3-12.4 3.8-9.9 5.7-8.9 3.6-17-2.1-8.1 2.3-13.8 6.6-16.6 4.3-2.8 18-7.4 19.9 5z"/><path fill-rule="evenodd" class="p" d="m389.2 248.9c-0.9 1.2-2.3 2.5-4.2 3.8-3.6 2.6-8.6 3.4-13.4 3.5-6.1-3-16-7.9-14.9-15.1 1.3-9 8.6-11.6 8.6-11.6l5.5-1.5 12.4-5.5c0 0-2 9.1 2.8 14.1 4.7 5 3 10 3 10l-2.3 1.9c0 0 1.1 0.1 2.5 0.4z"/><path fill-rule="evenodd" class="W" d="m389.8 245.4c0 0 4.1 1.7 9 12.2 5 10.5 5.8 22.9 5.9 25.8 0.1 2.9-1.3 5.1-5 0.9-3.8-4.2-9.4-18.9-9.4-18.9l-3.3-6.9c0 0 0.5-10.8 2.8-13.1z"/><path fill-rule="evenodd" class="Z" d="m347.1 264.2c0 0 5.3 1.8 9.3 4.9 0 0 0.5 0.2 0.7-0.1 0.2-0.4 0.7-1.2 0.7-1.2 0 0 0.1-0.3-0.1-0.7-0.3-0.4-10-5.5-10-5.5 0 0-0.3-0.2-0.5 0.1-0.2 0.3-0.5 1.6-0.5 1.6 0 0-0.1 0.5 0.4 0.9z"/><path fill-rule="evenodd" class="a0" d="m354.4 438l0.8 0.2-0.5 5.3c0 0 0 0.7-0.4 0.7-0.3 0-1.4 0-1.4 0 0 0-0.4-0.1-0.4-0.7 0-0.6 0-3.5 0-3.5z"/><path fill-rule="evenodd" class="M" d="m395.4 434c0 0 0.7 0.2 1 0.6 0.4 0.3 1.1 6.3 1.2 6.8 0.2 0.4-0.1 2.7-2.7 2.7-2.5 0-5.6 0.3-6 0-0.5-0.2-2-1.4-1.4-3.9 0.6-2.5 2.4-6.1 2.4-6.1 0 0 0.7-0.7 1.9-0.7 1.1 0 3.6 0.6 3.6 0.6z"/><path fill-rule="evenodd" class="a1" d="m352.3 430.5l1.8 1.6c0 0-0.1 1.9 0.2 3 0 0 0.6 2.3-1 3.5-1.6 1.1-6.1 3.7-7.6 4.3-1.4 0.5-5 0.3-6.9 0.3l2.5-2.3c0 0 0.3-0.4 1.4-0.7 1-0.3 6.2-3.8 7-4.8 0.9-0.9 0.8-3.3 0.8-3.3z"/><path fill-rule="evenodd" class="M" d="m354.2 434.6c0 0-6.1 6-12.5 6 0 0-1.2 0-1.8 0-0.5 0-3.2 0.9-3.2 3 0 0 0 0.6 1.3 0.6 1.4 0 8 0 8.9 0 0.8 0 1.8-0.6 2.3-1 0.4-0.4 6-5 6-5 0 0 0.4-0.3 0.3-1.2-0.1-0.9 0-2.5-1.3-2.4z"/><path fill-rule="evenodd" class="a2" d="m386.1 245.7l3.7-0.3c0 0 10 0.9 10.7 17.5l-8.6 5.8c0 0-1.8-1.1-2.2-4.4-0.4-3.3-3.6-18.6-3.6-18.6z"/><path fill-rule="evenodd" class="a1" d="m394.9 430c0 0 0 1.8 0.2 3 0.1 1.2 0.7 3.6 0.7 4.9 0 1.2 0 2.9-1.1 2.9-1.2 0-3.1 0-3.8 0-0.6 0-1.4-0.8-1.2-2.4 0.1-1.7 2.1-5.9 2.1-8.4 0-2.5 2.8-2.1 3.1 0z"/><path fill-rule="evenodd" class="a3" d="m381.4 288.1l6.2 5.2c0 0 8.5 28.8 7.7 58.6 0 0-0.4 14.6-0.3 19.9 0.1 5.2 1.9 42.5 0.8 60.5 0 0 0 0.5-0.6 0.5-0.6 0-4.6 0-4.6 0 0 0-0.4-0.2-0.4-0.8 0-0.7-6.4-52.1-7-55.8-0.5-3.7-9.2-40.3-10.6-55.4-1.3 15.1-10.1 51.7-10.6 55.4-0.5 3.7-6.9 55.1-6.9 55.8-0.1 0.6-0.4 0.8-0.4 0.8 0 0-4 0-4.6 0-0.6 0-0.7-0.5-0.7-0.5-1-18 0.8-55.3 0.9-60.5 0.1-5.3-0.3-19.9-0.3-19.9-0.9-29.8 7.6-58.6 7.6-58.6l6.3-5.2 8.7 2.9z"/><path fill-rule="evenodd" class="a1" d="m382.3 220.1c1.5-1 1.6 1.1 1.5 2.3-0.1 1.3-0.9 2.9-2.1 3.1-1.2 0.1-0.3-4.9 0.6-5.4z"/><path fill-rule="evenodd" class="a4" d="m379.5 242.3c0 0 7.8 2 10.3 3.1 0 0 0.1 17.6 0.5 20 0.3 2.4-2.2 14.7-2.6 20.7 0 0 2.3 13.3 1.6 13.7-10.9 5.7-29.3 4.3-33.9 2.2-0.7-0.3-0.8-1-0.8-1-0.1-3.2 1.6-12.5 1.7-20.8 0.1-7.2-1.5-13.6-1.3-14.8 0.3-2.4 0.4-20 0.4-20 2.6-1.1 10.3-3.1 10.3-3.1l4.9-1.9h4.1z"/><path fill-rule="evenodd" class="E" d="m379.5 242.3c0 0 1.5 0.4 3.4 0.9l-0.9 1.1c-3.9 5-14.8 5-18.8 0l-0.9-1.1c1.9-0.5 3.4-0.9 3.4-0.9l4.9-1.9h4.1z"/><path fill-rule="evenodd" class="W" d="m380 273.2c0 0 19.7 3.6 22.2 4.7 2.4 1 5.7 12.3-3.6 9.3-6.4-2-20-9.4-20-9.4z"/><path fill-rule="evenodd" class="a1" d="m379.5 242.3c0 0-2.3-2-2.3-4.3 0-2.4 0-5 0-5l-4.6 0.9-4.5-0.9c0 0 0 2.6 0 5 0 2.3-2.4 4.3-2.4 4.3 2.7 3.3 11.2 3.3 13.8 0z"/><path fill-rule="evenodd" class="W" d="m377.1 234c1.1-1.2 4.5-6.6 5-11.1 0.5-4.6 0-13.1-9.5-12.5-9.5-0.6-10 7.9-9.5 12.5 0.5 4.5 4 9.9 5.1 11.1 2.3 2.6 6.5 2.6 8.9 0z"/><path fill-rule="evenodd" class="a5" d="m380.3 228.7c0.9-1.8 1.6-3.9 1.8-5.8 0.4-3.8 0.1-10.4-5.6-12.1-2 0.3-4.1 1.1-5.9 2.8-6.6 5.9-7.3 10.3-7.3 10.3l3.2 1.5c0 0 0.1-3 4.7-3.9 4.5-0.8 5.7-2.1 6.3-3.2 0 0 5.9 3.7 2.8 10.4z"/><path fill-rule="evenodd" class="Y" d="m382.2 221.3c0 0-0.3 0-0.3-0.5 0-0.4 0-0.9 0-0.9 0 0-3.4-2.1-3.9-5.8 0 0-1.2 4.7-6.1 5.9-4.8 1.2-5.4 3.5-5.4 5.4 0 2 0.5 5.6-6.3 5.2-6.7-0.4 1.3-19.2 2.6-20.5 1.2-1.2 14.6-5.3 15.3-4.9 0.6 0.4 5.2 12.5 5.2 12.5l-0.6 2.2c0 0-0.5 0.3-0.5 1.4z"/><path fill-rule="evenodd" class="Y" d="m354 240.5l-1.9 9c0 0 1.9 2.9 5.2 4.3 2.2 0.9 4.4 3 4.7 6.7 0.6 5.7-3 12.5 7.6 14.5 6.4 1.3 15.2-8 10.5-15.9-4.7-7.9-12-3.7-12-21.1v-4.1q-0.3-0.3-0.8-1z"/><path fill-rule="evenodd" class="p" d="m380.6 267.3c1.1-2.5 1.2-5.3-0.5-8.2-4.7-7.9-12-3.7-12-21.1v-4.1q-0.3-0.3-0.8-1l-10.1 5.8q-0.3 1.1-0.5 2.4c-1.3 8.9 14 14.3 18.3 16.8 2.7 1.6 5.7 5.5 5.6 9.4z"/><path fill-rule="evenodd" class="Z" d="m401.1 264.6c0 0-4.6 2-8.7 5.1 0 0-0.4 0.2-0.7-0.1-0.2-0.3-0.6-1.2-0.6-1.2 0 0-0.2-0.3 0.1-0.7 0.2-0.3 9.3-5.8 9.3-5.8 0 0 0.2-0.2 0.5 0.1 0.2 0.4 0.5 1.6 0.5 1.6 0 0 0 0.6-0.4 1z"/><path fill-rule="evenodd" class="a6" d="m374.3 270.9l-1.3 0.7-1.2 7c-0.1 0.4 0.2 0.6 0.6 0.7 0.4 0 0.8 0 0.9-0.4l1.8-6.9z"/><path fill-rule="evenodd" class="a7" d="m376 261.9l1.3 2.3-3.5 13.4c-0.2 0.8-0.8 0.8-1.4 0.6-0.6-0.1-1.1-0.4-1-1.2l2.5-13.6z"/><path fill-rule="evenodd" class="a8" d="m376 261.9l1.3 2.3-3.5 13.4c-0.1 0.6-0.5 0.7-0.9 0.7 0.9-2.2 2.8-11.2 2.9-12.1 0.2-0.9-0.8-1-2.2-1.3l0.3-1.5z"/><path fill-rule="evenodd" class="a9" d="m375.3 257l3.6 0.7c1 0.2 1.6 1.2 1.4 2.2l-0.7 3.7c-0.2 1-1.2 1.6-2.2 1.4l-3.5-0.7c-1-0.2-1.7-1.2-1.5-2.2l0.7-3.7c0.2-1 1.2-1.6 2.2-1.4z"/><path fill-rule="evenodd" class="aa" d="m375.3 257l3.2 0.7q0.4 0.7 0.4 1.6c0 2.2-1.7 3.9-3.8 3.9-1.1 0-2-0.4-2.7-1.1l0.7-3.7c0.2-1 1.2-1.6 2.2-1.4z"/><path fill-rule="evenodd" class="W" d="m380.1 273.1c0 0-0.4-0.1-1-1-0.7-1-0.4-1.5-0.9-2.2-0.6-0.7-1.3-1.4-1.5-2.1-0.2-0.7-1.5 0.2-0.8 1.5 1.3 1.9-1.9 1.5-3.2 0.9-0.5-0.1-0.1-1.2 0-1.6 0 0-1.3 0.3-1.8 1.5-0.4 1.1-0.8 4.7-0.5 5.8 0.3 1 2.6 1.7 3.1 1.8 0.6 0.2 4.5-0.2 5.6 0.4z"/><path fill-rule="evenodd" class="Y" d="m375.2 210.6c-0.1-0.1-0.1-0.2 0-0.2 0.1-0.1 0.2-0.1 0.3 0l2.7 3.6q0 0 0 0.1c0 0-0.5 7.9-11.9 8.3-0.1 0-0.1-0.1-0.1-0.2 0-0.1 0-0.1 0.1-0.1 10.5-0.4 11.5-7.2 11.5-8z"/><path fill-rule="evenodd" class="Y" d="m356.2 219.5c0-0.1 0-0.2 0.1-0.2 0.1 0 0.2 0.1 0.2 0.2 0 0 1 4.8-2.7 10.6-1.8 2.8-3.4 6-4 9.1-0.6 3.1-0.2 6.2 1.8 8.8 4.2 5.2 10 4.1 10 4.1 0.1 0 0.2 0.1 0.2 0.2 0 0.1 0 0.2-0.1 0.2-0.1 0-6 1.1-10.3-4.3-2.2-2.7-2.5-5.8-1.9-9 0.6-3.2 2.2-6.4 4-9.3 3.7-5.7 2.7-10.4 2.7-10.4z"/><path fill-rule="evenodd" class="Y" d="m385.3 225.5c0.1-0.1 0.2-0.2 0.2-0.2 0.1 0.1 0.2 0.1 0.2 0.2 0 0-0.9 4 1.8 8.3 1.3 2.2 2.4 3.9 3 5.4 0.6 1.6 0.8 3 0.5 4.6 0 0.1-0.1 0.2-0.2 0.2-0.1 0-0.2-0.1-0.1-0.2 0.2-1.6 0-2.9-0.5-4.5-0.7-1.5-1.7-3.2-3-5.3-2.7-4.4-1.9-8.5-1.9-8.5z"/><path fill-rule="evenodd" class="a1" d="m395.4 270.2c0.2-1.1 4.3-3.4 6.3-4.7q-0.1-0.7-0.3-1.3-0.1 0.2-0.3 0.4c0 0-4.6 2-8.7 5.1 0 0-0.2 0.1-0.4 0.1 0.8 1.8 1.8 4.1 2.8 6.3q1.5 0.3 2.8 0.6c-1-2.2-2.4-5.6-2.2-6.5z"/><path fill-rule="evenodd" class="a1" d="m348.5 266.4c4.6 1.3 6 2.4 5.9 6 0 3.8-2.3 13.4-2.3 13.4 0 0 0.1 0.9 0.1 2.5 0.7 0.1 1.3 0.3 1.8 0.3 0.2-3.1 1.1-10.5 1.9-16.4-0.2-1.5-0.4-2.8-0.6-3.9-2.4-1.6-5.1-2.8-6.7-3.5q0 0.8-0.1 1.6z"/><path fill-rule="evenodd" class="a1" d="m354 288.6c-0.5 0-1.1-0.2-1.8-0.3q0 0.7 0.1 1.5c0.1 4.8 0.4 13.2 0.2 20.6 0.3-2.5 0.5-5.2 0.7-7.9 0.5-5.8 0.9-10.6 0.9-11.2 0-0.1-0.1-2.5-0.1-2.7q0 0 0 0z"/></svg>