<svg version="1.2" xmlns="http://www.w3.org/2000/svg" viewBox="0 0 750 500" width="750" height="500"><defs><linearGradient id="P" gradientUnits="userSpaceOnUse"/><linearGradient id="g1" x1="486.6" y1="304.8" x2="486.6" y2="347" href="#P"><stop stop-color="#c0e2e8"/><stop offset=".04" stop-color="#b9d9e5"/><stop offset=".28" stop-color="#89a1d3"/><stop offset=".51" stop-color="#6375c5"/><stop offset=".71" stop-color="#4855bb"/><stop offset=".88" stop-color="#3842b5"/><stop offset="1" stop-color="#323bb3"/></linearGradient><linearGradient id="g2" x1="421.6" y1="196.9" x2="477.8" y2="196.9" href="#P"><stop offset=".07" stop-color="#f5f5f5"/><stop offset=".16" stop-color="#eef0f0"/><stop offset=".29" stop-color="#dae2e4"/><stop offset=".45" stop-color="#b9cccf"/><stop offset=".64" stop-color="#8cacb3"/><stop offset=".83" stop-color="#52858e"/><stop offset="1" stop-color="#1a5e6b"/></linearGradient><linearGradient id="g3" x1="331" y1="288.1" x2="331" y2="190.8" href="#P"><stop stop-color="#344dbf" stop-opacity="0"/><stop offset="1" stop-color="#344dbf" stop-opacity="1"/></linearGradient><linearGradient id="g4" x1="555.1" y1="381.5" x2="555.1" y2="303.2" href="#P"><stop stop-color="#1a5e6b"/><stop offset=".96" stop-color="#20853e"/></linearGradient><linearGradient id="g5" x1="622.1" y1="374.4" x2="662.8" y2="302.1" href="#P"><stop stop-color="#1a5e6b"/><stop offset=".96" stop-color="#20853e"/></linearGradient><linearGradient id="g6" x1="194.9" y1="381.5" x2="194.9" y2="303.2" href="#P"><stop stop-color="#1a5e6b"/><stop offset=".96" stop-color="#20853e"/></linearGradient><linearGradient id="g7" x1="127.9" y1="374.4" x2="87.2" y2="302.1" href="#P"><stop stop-color="#1a5e6b"/><stop offset=".96" stop-color="#20853e"/></linearGradient><linearGradient id="g8" x1="248.3" y1="395.6" x2="248.3" y2="378.9" href="#P"><stop stop-color="#344dbf" stop-opacity="0"/><stop offset="1" stop-color="#344dbf" stop-opacity="1"/></linearGradient><linearGradient id="g9" x1="279.4" y1="395.6" x2="279.4" y2="378.9" href="#P"><stop stop-color="#344dbf" stop-opacity="0"/><stop offset="1" stop-color="#344dbf" stop-opacity="1"/></linearGradient><linearGradient id="g10" x1="337.8" y1="395.6" x2="337.8" y2="378.9" href="#P"><stop stop-color="#344dbf" stop-opacity="0"/><stop offset="1" stop-color="#344dbf" stop-opacity="1"/></linearGradient><linearGradient id="g11" x1="383.3" y1="395.6" x2="383.3" y2="378.9" href="#P"><stop stop-color="#344dbf" stop-opacity="0"/><stop offset="1" stop-color="#344dbf" stop-opacity="1"/></linearGradient><linearGradient id="g12" x1="100.2" y1="238.8" x2="100.2" y2="179.6" href="#P"><stop stop-color="#344dbf" stop-opacity="0"/><stop offset=".97" stop-color="#344dbf" stop-opacity="1"/></linearGradient><linearGradient id="g13" x1="638.9" y1="173.8" x2="638.9" y2="225" href="#P"><stop stop-color="#42866f" stop-opacity="0"/><stop offset="1" stop-color="#479d4f" stop-opacity="1"/></linearGradient><linearGradient id="g14" x1="237" y1="200.1" x2="239.3" y2="180.7" href="#P"><stop stop-color="#344dbf" stop-opacity="0"/><stop offset="1" stop-color="#344dbf" stop-opacity="1"/></linearGradient></defs><style>tspan{white-space:pre}.a{fill:#c0e2e8}.b{fill:none;stroke:#a0d0d9}.c{fill:#a0d0d9}.d{fill:url(#g1)}.e{opacity:.1}.f{fill:url(#g2)}.g{fill:url(#g3)}.h{fill:#f5f5f5}.i{fill:#405ad4}.j{fill:#152d94}.k{fill:#758fff}.l{fill:#1e3fd1}.m{fill:#244dff}.n{fill:#479d4f}.o{fill:#344dbf}.p{font-size: 6px;fill: #f5f5f5;font-weight: bold;font-family: "' Open Sans"}.q{fill:none;stroke:#adadad;stroke-width:.4}.r{fill:#e05150}.s{fill:url(#g4)}.t{fill:none;stroke:#f5f5f5;stroke-width:.5}.u{fill:url(#g5)}.v{fill:url(#g6)}.w{fill:url(#g7)}.x{fill:url(#g8)}.y{fill:url(#g9)}.z{fill:url(#g10)}.A{fill:url(#g11)}.B{fill:#5d9fe8}.C{fill:url(#g12)}.D{fill:url(#g13)}.E{fill:none;stroke:#0e1d61;stroke-width:.4}.F{fill:url(#g14)}.G{fill:#e87a71}.H{fill:#e0c180}.I{fill:#0b184f}.J{fill:#12257a}.K{fill:#0e1d61}.L{fill:none;stroke:#0b184f;stroke-width:.5}.M{fill:#c2392d}.N{fill:none;stroke:#0b184f;stroke-width:.4}.O{fill:none;stroke:#a0d0d9;stroke-width:1}
/* .up{    
    animation: up 10s linear infinite;
}

@keyframes up{
	0%{
		transform: translateY(0);

	}
	100%{
		transform: translateY(-30px);
		opacity:0;
	}    
}

.down{
animation: down 10s linear infinite;    
}

@keyframes down{
	0%{
		transform: translateY(0);
	}
	100%{
		transform: translateY(30px);
		opacity:0;

	}    
}

.profit{    
    animation: profit 2s linear infinite;
}

@keyframes profit{
	0%{
		transform: translateY(0);

	}
	50%{
		transform: translateY(-10px);
	}
	100%{
		transform: translateY(0);
	}    
}

.loss{    
    animation: loss 2s linear infinite;
}

@keyframes loss{
	0%{
		transform: translateY(0);

	}
	50%{
		transform: translateY(10px);
	}
	100%{
		transform: translateY(0);
	}    
} */
</style><path class="a" d="m628.5 387.3h-499v-286.9c0-14.9 12.1-26.9 26.9-26.9h445.3c14.8 0 26.8 12 26.8 26.9 0 0 0 286.9 0 286.9z"/><path fill-rule="evenodd" class="b" d="m457 143.3h-202.1c-4.4 0-8-3.6-8-8v-62.5c0-4.4 3.6-8 8-8h202.1c4.4 0 8 3.6 8 8v62.5c0 4.4-3.6 8-8 8z"/><path class="c" d="m228.2 255.7h-118.9c-5 0-9.1-4.1-9.1-9.1v-102.5c0-5 4.1-9.1 9.1-9.1h118.9c5 0 9.1 4.1 9.1 9.1v102.5c0 5-4.1 9.1-9.1 9.1z"/><path class="c" d="m575.1 206.5h-66.2c-4.1 0-7.5-3.4-7.5-7.5v-124.4c0-4.2 3.4-7.5 7.5-7.5h66.2c4.2 0 7.6 3.3 7.6 7.5v124.4c0 4.2-3.4 7.5-7.6 7.5z"/><path fill-rule="evenodd" class="d" d="m514.1 313.7q-0.5 2.7-1.4 5.2l7.4 4.3c-1.2 2.8-2.7 5.5-4.6 7.9l-7.4-4.3q-1.7 2.1-3.8 3.9l4.3 7.3c-2.4 1.9-5.1 3.4-7.9 4.6l-4.3-7.4q-2.5 1-5.2 1.4v8.6q-2.3 0.2-4.6 0.3-2.3-0.1-4.6-0.3v-8.6q-2.7-0.4-5.2-1.4l-4.3 7.4c-2.8-1.2-5.5-2.7-7.9-4.6l4.3-7.3q-2.1-1.8-3.8-3.9l-7.4 4.3c-1.9-2.4-3.4-5.1-4.6-7.9l7.4-4.3q-0.9-2.5-1.4-5.2h-8.5q-0.3-2.2-0.3-4.6 0-2.3 0.3-4.6h8.5q0.5-2.7 1.4-5.2l-7.4-4.2c1.2-2.9 2.7-5.5 4.6-8l7.4 4.3q1.7-2.1 3.8-3.8l-4.3-7.4c2.4-1.8 5.1-3.4 7.9-4.6l4.3 7.4q2.5-0.9 5.2-1.4v-8.5q2.3-0.3 4.6-0.3 2.3 0 4.6 0.3v8.5q2.7 0.5 5.2 1.4l4.3-7.4c2.8 1.2 5.5 2.8 7.9 4.6l-4.3 7.4q2.1 1.7 3.8 3.8l7.4-4.3c1.9 2.5 3.4 5.1 4.6 8l-7.4 4.2q0.9 2.5 1.4 5.2h8.5q0.3 2.3 0.3 4.6 0 2.4-0.3 4.6zm-14.9-4.6c0-6.9-5.6-12.5-12.5-12.5-7 0-12.6 5.6-12.6 12.5 0 7 5.6 12.6 12.6 12.6 6.9 0 12.5-5.6 12.5-12.6z"/><path class="e" d="m538 303.2h-317.9c-4.4 0-8-3.5-8-8v-189.9c0-4.5 3.6-8 8-8h317.9c4.4 0 8 3.5 8 8v189.9c0 4.5-3.6 8-8 8z"/><path class="f" d="m535.6 299.9h-318c-4.4 0-8-3.6-8-8v-190c0-4.4 3.6-8 8-8h318c4.4 0 8 3.6 8 8v190c0 4.4-3.6 8-8 8z"/><path class="g" d="m452.3 159.5c0 0-37.8 14.9-56.6 44.8-13.6 21.4-24.4 31.5-42.8 31.2-18.4-0.3-31.5 0.1-41.2 8.7-9.8 8.7-15.4 32.7-35.3 27.6-18.6-4.7-48.5-18.1-66.8-10.4v30.5c0 4.4 3.6 8 8 8h234.7z"/><path class="h" d="m535.6 93.9h-96.8v206h96.8c4.4 0 8-3.6 8-8v-190c0-4.4-3.6-8-8-8z"/><path class="i" d="m255.7 269.3v10.6c-13.5 0-24.5-11-24.5-24.6 0-5.2 1.6-10 4.4-14l8.7 6c-1.6 2.3-2.6 5.1-2.6 8 0 7.8 6.3 14 14 14z"/><path class="j" d="m280.2 253.3q0.1 1 0.1 2c0 13.6-11 24.6-24.6 24.6v-10.6c7.8 0 14-6.2 14-14q0-0.5 0-1.1z"/><path class="k" d="m280.2 253.3l-10.5 0.9c-0.3-3.1-1.5-5.9-3.4-8.1l7.9-7c3.4 3.9 5.6 8.8 6 14.2z"/><path class="l" d="m255.7 230.8v10.5c-4.7 0-8.9 2.4-11.4 6l-8.7-6c4.5-6.4 11.8-10.5 20.1-10.5z"/><path class="m" d="m274.2 239.1l-7.9 7c-2.6-2.9-6.4-4.8-10.6-4.8v-10.5c7.4 0 14 3.2 18.5 8.3z"/><path class="l" d="m323.9 230.8v10.5c-7.7 0-14 6.3-14 14q0 1.3 0.2 2.5l-10.3 1.9q-0.4-2.1-0.4-4.4c0-13.5 11-24.5 24.5-24.5z"/><path class="i" d="m312.9 263.9l-8.3 6.5c-2.4-3.1-4.1-6.7-4.8-10.7l10.3-1.9c0.5 2.3 1.4 4.4 2.8 6.1z"/><path class="j" d="m335.8 262.7l9 5.6c-4.4 7-12.1 11.6-20.9 11.6-7.9 0-14.9-3.7-19.3-9.5l8.3-6.5c2.5 3.3 6.5 5.4 11 5.4 5 0 9.4-2.6 11.9-6.6z"/><path class="k" d="m337.8 257.2l10.4 1.4c-0.4 3.5-1.6 6.8-3.4 9.7l-9-5.6c1.1-1.6 1.8-3.5 2-5.5z"/><path class="m" d="m348.5 255.3q0 1.7-0.3 3.3l-10.4-1.4q0.1-0.9 0.1-1.9c0-7.7-6.2-14-14-14v-10.5c13.6 0 24.6 11 24.6 24.5z"/><path class="i" d="m392.1 269.3v10.6c-6.8 0-12.9-2.8-17.3-7.2-4.5-4.5-7.2-10.6-7.2-17.4 0-4 1-7.9 2.7-11.2l9.4 4.8c-1 1.9-1.6 4.1-1.6 6.4 0 7.8 6.3 14 14 14z"/><path class="j" d="m405.9 257.9l10.3 2c-2.1 11.4-12.1 20-24.1 20v-10.6c6.9 0 12.6-4.9 13.8-11.4z"/><path class="k" d="m416.7 255.3q-0.1 2.4-0.5 4.6l-10.3-2q0.2-1.2 0.2-2.6c0-5-2.6-9.3-6.5-11.8l5.6-8.9c6.9 4.3 11.5 12 11.5 20.7z"/><path class="m" d="m392.1 230.8c4.8 0 9.3 1.4 13.1 3.8l-5.6 8.9c-2.2-1.4-4.8-2.2-7.5-2.2z"/><path class="l" d="m392.1 230.8v10.5c-5.4 0-10.1 3.1-12.4 7.6l-9.4-4.8c4.1-7.9 12.3-13.3 21.8-13.3z"/><path class="n" d="m476.4 138.7h42v10.6h-42z"/><path class="o" d="m507.8 138.7h10.6v10.6h-10.6z"/><text style="transform:matrix(1,0,0,1,479.873,146.197)" ><tspan x="0" y="0" class="p">+0.234
</tspan></text><path class="n" d="m472.9 134.3l-3.9-5.6-4 5.6h2.2v15h3.5v-15z"/><path class="o" d="m476.6 136.2v-7h0.8v6.3h3.1v0.7c0 0-3.9 0-3.9 0z"/><path fill-rule="evenodd" class="o" d="m487.8 132.7q0 0.8-0.2 1.5-0.2 0.6-0.6 1.1-0.4 0.5-1 0.7-0.6 0.3-1.4 0.3-0.8 0-1.4-0.3-0.6-0.2-1-0.7-0.4-0.5-0.6-1.1-0.2-0.7-0.2-1.5 0-1.1 0.3-1.9 0.4-0.8 1.1-1.3 0.7-0.4 1.8-0.4 1.1 0 1.8 0.4 0.7 0.5 1 1.3 0.4 0.8 0.4 1.9zm-5.6 0q0 0.9 0.3 1.5 0.2 0.7 0.8 1 0.5 0.4 1.3 0.4 0.8 0 1.3-0.4 0.6-0.3 0.8-1 0.3-0.6 0.3-1.5 0-1.4-0.6-2.1-0.6-0.8-1.8-0.8-0.8 0-1.3 0.3-0.6 0.4-0.8 1-0.3 0.7-0.3 1.6z"/><path fill-rule="evenodd" class="o" d="m491.3 129.2q0.8 0 1.4 0.2 0.6 0.2 0.9 0.6 0.2 0.5 0.2 1.2 0 0.5-0.2 0.9-0.2 0.4-0.5 0.6-0.3 0.2-0.7 0.4l1.9 3.1h-0.9l-1.7-2.9h-1.5v2.9h-0.8v-7zm-0.1 0.7h-1v2.7h1.1q0.9 0 1.3-0.4 0.4-0.3 0.4-1 0-0.7-0.4-1-0.5-0.3-1.4-0.3z"/><path class="o" d="m499.4 136.2h-3.9v-7h3.9v0.7h-3.1v2.3h2.9v0.7h-2.9v2.6h3.1z"/><path class="o" d="m504 136.2l-2.3-6.2h-0.1q0 0.2 0 0.5 0.1 0.3 0.1 0.6 0 0.3 0 0.7v4.4h-0.8v-7h1.2l2.3 5.8 2.2-5.8h1.3v7h-0.9v-4.5q0-0.3 0.1-0.6 0-0.3 0-0.6 0-0.3 0-0.5l-2.4 6.2c0 0-0.7 0-0.7 0z"/><path class="q" d="m464 153.1h54.4"/><path class="r" d="m476.4 166.9h42v10.6h-42z"/><path class="o" d="m507.8 166.9h10.6v10.6h-10.6z"/><text style="transform:matrix(1,0,0,1,479.873,174.433)" ><tspan x="0" y="0" class="p">-0.234
</tspan></text><path class="r" d="m465 171.9l4 5.6 3.9-5.6h-2.2v-14.9h-3.5v14.9z"/><path class="o" d="m476.6 164.4v-7h0.8v7z"/><path fill-rule="evenodd" class="o" d="m481.2 157.4q1.3 0 2 0.6 0.6 0.5 0.6 1.5 0 0.4-0.2 0.8-0.1 0.4-0.4 0.7-0.4 0.3-0.9 0.5-0.5 0.2-1.3 0.2h-0.8v2.7h-0.9v-7c0 0 1.9 0 1.9 0zm-0.1 0.7h-0.9v2.9h0.7q0.7 0 1.1-0.2 0.5-0.1 0.7-0.4 0.2-0.4 0.2-0.9 0-0.7-0.4-1-0.5-0.4-1.4-0.4z"/><path class="o" d="m489.2 162.6q0 0.6-0.3 1-0.3 0.5-0.9 0.7-0.5 0.2-1.3 0.2-0.4 0-0.7 0-0.4 0-0.7-0.1-0.3-0.1-0.5-0.2v-0.8q0.4 0.2 0.9 0.3 0.5 0.1 1.1 0.1 0.5 0 0.9-0.1 0.3-0.2 0.5-0.4 0.2-0.3 0.2-0.7 0-0.3-0.2-0.6-0.1-0.2-0.5-0.4-0.4-0.2-1-0.4-0.4-0.2-0.8-0.4-0.3-0.2-0.5-0.4-0.3-0.2-0.4-0.6-0.1-0.3-0.1-0.7 0-0.6 0.3-1 0.3-0.4 0.8-0.6 0.5-0.2 1.1-0.2 0.6 0 1.1 0.1 0.5 0.1 0.9 0.3l-0.3 0.7q-0.4-0.2-0.8-0.3-0.4-0.1-0.9-0.1-0.4 0-0.7 0.2-0.4 0.1-0.5 0.3-0.2 0.3-0.2 0.6 0 0.4 0.2 0.6 0.1 0.3 0.5 0.5 0.3 0.2 0.9 0.4 0.6 0.2 1 0.4 0.5 0.3 0.7 0.7 0.2 0.3 0.2 0.9z"/><path class="o" d="m496 157.4v4.6q0 0.7-0.3 1.3-0.3 0.6-0.9 0.9-0.6 0.3-1.6 0.3-1.3 0-1.9-0.7-0.7-0.7-0.7-1.9v-4.5h0.8v4.6q0 0.9 0.5 1.3 0.4 0.5 1.4 0.5 0.6 0 1-0.2 0.5-0.2 0.7-0.7 0.2-0.4 0.2-0.9v-4.6c0 0 0.8 0 0.8 0z"/><path class="o" d="m500.9 164.4l-2.3-6.2h-0.1q0 0.2 0.1 0.5 0 0.3 0 0.6 0 0.4 0 0.7v4.4h-0.8v-7h1.2l2.3 5.9 2.3-5.9h1.2v7h-0.9v-4.5q0-0.3 0.1-0.6 0-0.3 0-0.6 0-0.3 0-0.5l-2.4 6.2c0 0-0.7 0-0.7 0z"/><path class="q" d="m464 181.3h54.4"/><path class="r" d="m476.4 195.2h42v10.5h-42z"/><path class="o" d="m507.8 195.2h10.6v10.5h-10.6z"/><text style="transform:matrix(1,0,0,1,479.873,202.668)" ><tspan x="0" y="0" class="p">-1.234
</tspan></text><path class="r" d="m465 200.2l4 5.5 3.9-5.5h-2.2v-15h-3.5v15z"/><path fill-rule="evenodd" class="o" d="m482.2 189.1q0 1.2-0.5 2-0.4 0.8-1.2 1.2-0.8 0.4-2 0.4h-1.9v-7h2.1q1.1 0 1.8 0.3 0.8 0.4 1.2 1.2 0.5 0.8 0.5 1.9zm-0.9 0q0-0.9-0.3-1.5-0.3-0.6-0.9-0.9-0.6-0.3-1.5-0.3h-1.2v5.6h1q1.4 0 2.2-0.7 0.7-0.8 0.7-2.2z"/><path fill-rule="evenodd" class="o" d="m489.8 189.2q0 0.8-0.2 1.4-0.2 0.7-0.6 1.2-0.4 0.5-1 0.7-0.6 0.3-1.4 0.3-0.8 0-1.4-0.3-0.6-0.2-1-0.7-0.4-0.5-0.6-1.2-0.2-0.6-0.2-1.5 0-1 0.3-1.8 0.4-0.9 1.1-1.3 0.7-0.5 1.8-0.5 1.1 0 1.8 0.5 0.7 0.4 1.1 1.2 0.3 0.9 0.3 2zm-5.6 0q0 0.9 0.3 1.5 0.2 0.7 0.8 1 0.5 0.4 1.3 0.4 0.8 0 1.3-0.4 0.6-0.3 0.8-1 0.3-0.6 0.3-1.5 0-1.4-0.6-2.2-0.6-0.7-1.8-0.7-0.8 0-1.3 0.3-0.6 0.4-0.8 1-0.3 0.7-0.3 1.6z"/><path class="o" d="m491.4 192.7v-7h0.8v6.3h3.1v0.7c0 0-3.9 0-3.9 0z"/><path fill-rule="evenodd" class="o" d="m502.6 189.2q0 0.8-0.2 1.4-0.2 0.7-0.6 1.2-0.4 0.5-1 0.7-0.6 0.3-1.4 0.3-0.8 0-1.4-0.3-0.6-0.2-1-0.7-0.4-0.5-0.6-1.2-0.2-0.6-0.2-1.5 0-1 0.3-1.8 0.4-0.9 1.1-1.3 0.7-0.5 1.8-0.5 1 0 1.8 0.5 0.7 0.4 1 1.2 0.4 0.9 0.4 2zm-5.6 0q0 0.9 0.3 1.5 0.2 0.7 0.8 1 0.5 0.4 1.3 0.4 0.8 0 1.3-0.4 0.6-0.3 0.8-1 0.3-0.6 0.3-1.5 0-1.4-0.6-2.2-0.6-0.7-1.8-0.7-0.8 0-1.3 0.3-0.6 0.4-0.8 1-0.3 0.7-0.3 1.6z"/><path fill-rule="evenodd" class="o" d="m506.1 185.7q0.8 0 1.4 0.2 0.6 0.2 0.8 0.6 0.3 0.5 0.3 1.1 0 0.6-0.2 1-0.2 0.3-0.5 0.6-0.3 0.2-0.7 0.3l1.9 3.2h-0.9l-1.7-2.9h-1.5v2.9h-0.8v-7zm-0.1 0.7h-1v2.7h1.1q0.9 0 1.3-0.4 0.4-0.3 0.4-1 0-0.7-0.4-1-0.5-0.3-1.4-0.3z"/><path class="q" d="m464 209.6h54.4"/><path class="n" d="m476.4 223.4h42v10.6h-42z"/><path class="o" d="m507.8 223.4h10.6v10.6h-10.6z"/><text style="transform:matrix(1,0,0,1,479.873,230.904)" ><tspan x="0" y="0" class="p">+0.234
</tspan></text><path class="n" d="m472.9 219l-3.9-5.6-4 5.6h2.2v15h3.5v-15z"/><path fill-rule="evenodd" class="o" d="m481 220.9l-0.9-2.2h-2.8l-0.8 2.2h-0.9l2.8-7h0.7l2.7 7zm-1.1-2.9l-0.8-2.3q0 0-0.1-0.2-0.1-0.2-0.1-0.4-0.1-0.3-0.1-0.4-0.1 0.2-0.1 0.4-0.1 0.2-0.1 0.4-0.1 0.1-0.1 0.2l-0.9 2.3z"/><path class="o" d="m485.9 220.9l-2.4-6.2q0 0.2 0 0.5 0 0.3 0.1 0.6 0 0.3 0 0.7v4.4h-0.8v-7h1.2l2.2 5.8h0.1l2.2-5.8h1.2v7h-0.8v-4.5q0-0.3 0-0.6 0.1-0.3 0.1-0.6 0-0.3 0-0.5l-2.4 6.2c0 0-0.7 0-0.7 0z"/><path class="o" d="m495.6 220.9h-3.9v-7h3.9v0.7h-3.1v2.3h2.9v0.7h-2.9v2.6h3.1z"/><path class="o" d="m499.3 220.9h-0.8v-6.3h-2.2v-0.7h5.2v0.7h-2.2z"/><path class="q" d="m464 237.8h54.4"/><path class="n" d="m476.4 251.6h42v10.6h-42z"/><path class="o" d="m507.8 251.6h10.6v10.6h-10.6z"/><text style="transform:matrix(1,0,0,1,479.873,259.14)" ><tspan x="0" y="0" class="p">+0.234
</tspan></text><path class="n" d="m472.9 247.2l-3.9-5.5-4 5.5h2.2v15h3.5v-15z"/><path class="o" d="m481.5 242.1l-2.5 7.1h-0.9l-2.5-7.1h0.9l1.6 4.7q0.1 0.2 0.2 0.5 0.1 0.2 0.1 0.5 0.1 0.2 0.2 0.4 0-0.2 0.1-0.4 0-0.3 0.1-0.5 0.1-0.3 0.2-0.6l1.6-4.6z"/><path class="o" d="m486.4 249.2h-3.9v-7.1h3.9v0.8h-3.1v2.2h2.9v0.7h-2.9v2.6h3.1z"/><path class="o" d="m493.4 249.2h-0.9l-3.9-5.9q0 0.2 0 0.5 0.1 0.3 0.1 0.6 0 0.4 0 0.7v4.1h-0.8v-7.1h1l3.8 5.9q0-0.2 0-0.5 0-0.3 0-0.6-0.1-0.4-0.1-0.7v-4.1h0.8c0 0 0 7.1 0 7.1z"/><path class="o" d="m495.3 249.2v-7.1h0.8v7.1z"/><path fill-rule="evenodd" class="o" d="m502.5 249.2l-0.9-2.3h-2.8l-0.9 2.3h-0.8l2.8-7.1h0.7l2.7 7.1zm-1.1-3l-0.8-2.2q0-0.1-0.1-0.3-0.1-0.2-0.1-0.4-0.1-0.2-0.1-0.3-0.1 0.1-0.1 0.3-0.1 0.2-0.1 0.4-0.1 0.2-0.1 0.3l-0.9 2.2z"/><path class="o" d="m507.4 249.2l-2.4-6.3q0 0.2 0 0.5 0 0.3 0.1 0.6 0 0.4 0 0.7v4.5h-0.8v-7.1h1.2l2.2 5.9h0.1l2.2-5.9h1.2v7.1h-0.8v-4.5q0-0.4 0-0.7 0-0.3 0.1-0.6 0-0.3 0-0.5h-0.1l-2.3 6.3c0 0-0.7 0-0.7 0z"/><path class="q" d="m464 266.1h54.4"/><path class="o" d="m112.7 159.3c-13.9 0-25.1-11.1-25.1-25 0-13.8 11.2-25 25.1-25 13.8 0 25 11.2 25 25 0 13.9-11.2 25-25 25z"/><path class="o" d="m134.1 140.2l13.2 11.5-17.3-3.5z"/><path fill-rule="evenodd" class="h" d="m97.7 129.1h3.2q2.1 0 3.1 0.6 1.1 0.6 1.1 2.1 0 0.7-0.3 1.2-0.2 0.5-0.7 0.8-0.5 0.4-1.2 0.5v0.1q0.8 0.1 1.3 0.4 0.6 0.3 0.9 0.9 0.3 0.5 0.3 1.4 0 1-0.4 1.7-0.5 0.7-1.4 1.1-0.9 0.3-2.1 0.3h-3.8zm1.3 4.8h2.1q1.5 0 2.1-0.4 0.5-0.5 0.5-1.5 0-0.9-0.6-1.3-0.7-0.5-2.2-0.5h-1.9zm0 5.3h2.3q1.5 0 2.1-0.6 0.7-0.5 0.7-1.5 0-0.7-0.3-1.1-0.3-0.5-0.9-0.7-0.7-0.3-1.7-0.3c0 0-2.2 0-2.2 0z"/><path class="h" d="m116.3 129.1v7.2q0 1.2-0.5 2.1-0.5 0.9-1.4 1.5-1 0.5-2.5 0.5-2 0-3.1-1.1-1.1-1.2-1.1-3v-7.2h1.3v7.2q0 1.4 0.8 2.2 0.7 0.8 2.2 0.8 1 0 1.7-0.4 0.6-0.4 1-1 0.3-0.7 0.3-1.6v-7.2c0 0 1.3 0 1.3 0z"/><path class="h" d="m122.1 134.7l3-5.6h1.4l-3.8 6.8v4.3h-1.3v-4.2l-3.7-6.9h1.4z"/><path class="n" d="m623.6 163.2c-15.4 0-27.9-12.5-27.9-28 0-15.4 12.5-27.9 27.9-27.9 15.5 0 28 12.5 28 27.9 0 15.5-12.5 28-28 28z"/><path class="n" d="m599.7 141.8l-19.3 12.7 23.9-3.7z"/><path class="h" d="m613.7 136.7q0 1-0.5 1.7-0.5 0.8-1.4 1.1-0.9 0.4-2.1 0.4-0.7 0-1.3 0-0.6-0.1-1-0.2-0.5-0.1-0.9-0.3v-1.3q0.6 0.3 1.4 0.5 0.9 0.2 1.8 0.2 0.9 0 1.5-0.3 0.6-0.2 0.9-0.6 0.3-0.5 0.3-1.1 0-0.6-0.3-1-0.2-0.4-0.8-0.7-0.6-0.3-1.7-0.7-0.7-0.2-1.2-0.5-0.6-0.3-1-0.7-0.4-0.4-0.5-0.9-0.2-0.6-0.2-1.2 0-0.9 0.4-1.6 0.5-0.6 1.3-1 0.8-0.3 1.9-0.3 0.9 0 1.7 0.1 0.8 0.2 1.4 0.5l-0.4 1.1q-0.6-0.2-1.3-0.4-0.7-0.2-1.4-0.2-0.8 0-1.3 0.2-0.5 0.3-0.7 0.6-0.3 0.4-0.3 1 0 0.6 0.3 1 0.2 0.4 0.8 0.7 0.5 0.3 1.5 0.6 1 0.4 1.7 0.8 0.7 0.4 1 1 0.4 0.6 0.4 1.5z"/><path class="h" d="m622.4 139.8h-6.4v-11.5h6.4v1.2h-5v3.7h4.7v1.2h-4.7v4.2h5z"/><path class="h" d="m625 139.8v-11.5h1.3v10.3h5.1v1.2z"/><path class="h" d="m633.3 139.8v-11.5h1.3v10.3h5.1v1.2z"/><path class="s" d="m578.8 267.1c0 4.9-6.2 10.8-14.4 14.7-8.1 3.9-14.1 12-13.6 26.6 0.4 14.7-2.5 20.8-11.1 25.6-8.7 4.8-12.4 15.8-10 24.2 2.4 8.5-8.8 19.8-6 29.1h61.9c0 0 3.3-11.6 0-22.6-3.4-11-7.4-11.5-7.9-22.8-0.6-11.2 7.3-16.3 6.5-24.7-0.9-8.5-4-7.3-4-15.2 0-7.9 2-6.1 4-11.6 1.9-5.5-1.2-17.4-5.4-23.3z"/><path class="t" d="m579.1 272.4c0.3 9.6-10.7 20-13.2 30.8-2.6 10.9 3 20.2-1.2 29.9-4.2 9.7-10.7 16.4-10.9 26-0.3 9.5 1.9 21.5 0 28.2"/><path class="u" d="m598.3 387.3c0 0-4.1-8.8-1.9-25.5 2.3-16.7 16.9-16.1 22.7-18 5.8-1.9 9-5.8 9-13.3 0-7.5 3.8-10.9 11.6-11.3 7.9-0.3 15.4 0.6 18-5.6 2.7-6.2 14.5-12.4 24.4-9.7-7.5 3.7-5.6 13.1-5.4 17.4 0.2 4.3-0.2 9.9-9.2 11.6-9 1.7-7.9 9.4-5.3 13.7 2.7 4.3 6.4 12.4-3.7 15-10.1 2.6-16.5 14.4-9 25.7z"/><path class="t" d="m677.8 304.2c-9.5 1.9-10.6 11.5-16.6 17.8-6 6.4-13.1 5.9-16.8 15-3.7 9.2-0.6 15.6-5.5 20.2-4.8 4.6-22.6 17.9-21.2 30.1"/><path class="n" d="m649.9 263.4c0 0 7.5 7.1 6.5 16.1-0.9 9-8.1 15.2-9.7 22.5-1.5 6.9 1.5 13.3 2.4 17.4 1 4.1 1.1 10-10.5 14.1-11.6 4.1-12.5 12.5-7.3 18 5.3 5.4 5.6 12-6.6 18.9-12.1 7-11.2 16.9-11.2 16.9h-53.3c0 0-2.2-1.5 3.6-9.8 5.8-8.2 9-11.8 9-19.3 0-7.5-1.9-12.5 3-19.3 4.9-6.7 16.1-6.7 20.3-11.2 4.2-4.5 1-18.2 1.8-24.6 0.9-6.4 6.6-6.9 15-8.4 8.5-1.5 11.1-3.8 11.8-10.2 0.8-6.3 4.7-12 11.1-13.7 6.4-1.8 15.2-2.2 14.1-7.4z"/><path class="t" d="m650.7 267.1c1.1 5.1-5.3 8.7-11.5 14.3-6.2 5.7-11.3 15.2-13 22.5-1.6 7.4-8.1 14.1-12.9 21.4-4.8 7.3-10.5 18.8-12.4 29.3-3.3 19-18.2 32.7-18.2 32.7"/><path class="v" d="m171.2 267.1c0 4.9 6.2 10.8 14.4 14.7 8.1 3.9 14.1 12 13.6 26.6-0.4 14.7 2.5 20.8 11.1 25.6 8.7 4.8 12.4 15.8 10 24.2-2.4 8.5 8.8 19.8 6 29.1h-61.9c0 0-3.3-11.6 0-22.6 3.4-11 7.4-11.5 7.9-22.8 0.6-11.2-7.3-16.3-6.5-24.7 0.9-8.5 4-7.3 4-15.2 0-7.9-2-6.1-4-11.6-1.9-5.5 1.2-17.4 5.4-23.3z"/><path class="t" d="m170.9 272.4c-0.3 9.6 10.7 20 13.2 30.8 2.6 10.9-3 20.2 1.2 29.9 4.2 9.7 10.6 16.4 10.9 26 0.3 9.5-1.9 21.5 0 28.2"/><path class="w" d="m151.7 387.3c0 0 4.1-8.8 1.9-25.5-2.3-16.7-16.9-16.1-22.7-18-5.8-1.9-9-5.8-9-13.3 0-7.5-3.8-10.9-11.6-11.3-7.9-0.3-15.4 0.6-18-5.6-2.7-6.2-14.5-12.4-24.4-9.7 7.5 3.7 5.6 13.1 5.4 17.4-0.2 4.3 0.2 9.9 9.2 11.6 9 1.7 7.9 9.4 5.3 13.7-2.7 4.3-6.4 12.4 3.7 15 10.1 2.6 16.5 14.4 9 25.7z"/><path class="t" d="m72.2 304.2c9.5 1.9 10.6 11.5 16.6 17.8 6 6.4 13.1 5.9 16.8 15 3.7 9.2 0.6 15.6 5.5 20.2 4.8 4.6 22.6 17.9 21.2 30.1"/><path class="n" d="m100.1 263.4c0 0-7.5 7.1-6.5 16.1 0.9 9 8.1 15.2 9.7 22.5 1.5 6.9-1.5 13.3-2.4 17.4-1 4.1-1.1 10 10.5 14.1 11.6 4.1 12.5 12.5 7.3 18-5.3 5.4-5.6 12 6.6 18.9 12.1 7 11.2 16.9 11.2 16.9h53.3c0 0 2.2-1.5-3.6-9.8-5.8-8.2-9-11.8-9-19.3 0-7.5 1.9-12.5-3-19.3-4.9-6.7-16.1-6.7-20.3-11.2-4.2-4.5-1-18.2-1.8-24.6-0.9-6.4-6.6-6.9-15-8.4-8.5-1.5-11.1-3.8-11.8-10.2-0.8-6.3-4.7-12-11.1-13.7-6.4-1.8-15.2-2.2-14.1-7.4z"/><path class="t" d="m99.3 267.1c-1.1 5.1 5.3 8.7 11.5 14.3 6.2 5.7 11.3 15.2 13 22.5 1.6 7.4 8.1 14.1 12.9 21.4 4.8 7.3 10.5 18.8 12.4 29.3 3.3 19 18.2 32.7 18.2 32.7"/><path class="a" d="m178.5 442.1c-40.8 0-73.8-9.7-73.8-21.7 0-12.1 33-21.8 73.8-21.8 40.9 0 73.9 9.7 73.9 21.8 0 12-33 21.7-73.9 21.7z"/><path class="e" d="m433.1 400.9h-179.8c-4.5 0-8.2-3.6-8.2-8.1v-69.7c0-4.5 3.7-8.1 8.2-8.1h179.8c4.5 0 8.2 3.6 8.2 8.1v69.7c0 4.5-3.7 8.1-8.2 8.1z"/><path class="h" d="m430.7 398.7h-179.8c-4.5 0-8.2-3.6-8.2-8.1v-69.6c0-4.6 3.7-8.2 8.2-8.2h179.8c4.5 0 8.1 3.6 8.1 8.2v69.6c0 4.5-3.6 8.1-8.1 8.1z"/><path class="r" d="m418.8 330.4h-24.7c-0.7 0-1.2-0.6-1.2-1.3v-3.8c0-0.7 0.5-1.2 1.2-1.2h24.7c0.7 0 1.3 0.5 1.3 1.2v3.8c0 0.7-0.6 1.3-1.3 1.3z"/><path class="n" d="m386 330.4h-24.7c-0.7 0-1.3-0.6-1.3-1.3v-3.8c0-0.7 0.6-1.2 1.3-1.2h24.7c0.7 0 1.2 0.5 1.2 1.2v3.8c0 0.7-0.5 1.3-1.2 1.3z"/><path class="k" d="m250.9 398.7h179.8c4.5 0 8.1-3.6 8.1-8.1v-64.4l-45.9 46.9-19.3-15.2-22.6 16.1-26.3-34.6-38.4 34.3-13.8-13.2-18.6 21.6-11.2-13.6v22.1c0 4.5 3.7 8.1 8.2 8.1z"/><path class="x" d="m242.7 390.6c0 4.5 3.7 8.1 8.2 8.1h3v-16.6l-11.2-13.6c0 0 0 22.1 0 22.1z"/><path class="y" d="m272.5 360.5l13.8 13.2v25h-13.8z"/><path class="z" d="m324.7 339.4l26.3 34.6v24.7h-26.3z"/><path class="A" d="m373.6 357.9l19.3 15.2v25.6h-19.3z"/><path class="r" d="m255.6 382c0 0.9-0.8 1.6-1.7 1.6-0.9 0-1.6-0.7-1.6-1.6 0-0.9 0.7-1.7 1.6-1.7 0.9 0 1.7 0.8 1.7 1.7z"/><path class="r" d="m287.9 373.5c0 0.9-0.7 1.6-1.6 1.6-0.9 0-1.7-0.7-1.7-1.6 0-0.9 0.8-1.7 1.7-1.7 0.9 0 1.6 0.8 1.6 1.7z"/><path class="r" d="m351 375.6c-1 0-1.7-0.7-1.7-1.6 0-0.9 0.7-1.7 1.7-1.7 0.9 0 1.6 0.8 1.6 1.7 0 0.9-0.7 1.6-1.6 1.6z"/><path class="r" d="m394.5 373.1c0 0.9-0.7 1.7-1.6 1.7-0.9 0-1.7-0.8-1.7-1.7 0-0.9 0.8-1.6 1.7-1.6 0.9 0 1.6 0.7 1.6 1.6z"/><path class="n" d="m375.3 357.9c0 1-0.8 1.7-1.7 1.7-0.9 0-1.6-0.7-1.6-1.7 0-0.9 0.7-1.6 1.6-1.6 0.9 0 1.7 0.7 1.7 1.6z"/><path class="n" d="m324.7 341c-1 0-1.7-0.7-1.7-1.6 0-0.9 0.7-1.7 1.7-1.7 0.9 0 1.6 0.8 1.6 1.7 0 0.9-0.7 1.6-1.6 1.6z"/><path class="n" d="m274.1 360.5c0 0.9-0.7 1.6-1.6 1.6-0.9 0-1.7-0.7-1.7-1.6 0-0.9 0.8-1.7 1.7-1.7 0.9 0 1.6 0.8 1.6 1.7z"/><path class="e" d="m411.3 214.3h-213c-4.9 0-8.8-3.9-8.8-8.8v-111c0-4.8 3.9-8.8 8.8-8.8h213c4.8 0 8.8 4 8.8 8.8v111c0 4.9-4 8.8-8.8 8.8z"/><path class="B" d="m409.7 212h-214.6c-4.5 0-8-3.5-8-8v-112.6c0-4.4 3.5-8 8-8h214.6c4.4 0 8 3.6 8 8v112.6c0 4.5-3.6 8-8 8z"/><path class="t" d="m203.5 101.5v110.5"/><path class="l" d="m202.4 137.5h2.2v46.3h-2.2z"/><path class="t" d="m208.3 101.5v110.5"/><path class="l" d="m207.2 128.2h2.3v23.6h-2.3z"/><path class="t" d="m213.2 101.5v110.5"/><path class="l" d="m212 111.6h2.3v46.3h-2.3z"/><path class="t" d="m218 101.5v110.5"/><path class="l" d="m216.9 125.3h2.2v46.3h-2.2z"/><path class="t" d="m222.8 101.5v110.5"/><path class="l profit" d="m221.7 122.7h2.2v26.9h-2.2z"/><path class="t" d="m227.6 101.5v110.5"/><path class="l" d="m226.5 129.9h2.3v24.5h-2.3z"/><path class="t" d="m232.4 101.5v110.5"/><path class="l loss" d="m231.2 135h2.3v24h-2.3z"/><path class="t" d="m237.3 101.5v110.5"/><path class="l" d="m236.1 152.2h2.3v31.6h-2.3z"/><path class="t" d="m242.1 101.5v110.5"/><path class="t" d="m246.9 101.5v110.5"/><path class="l profit" d="m245.8 160.6h2.2v23.2h-2.2z"/><path class="t" d="m251.7 101.5v110.5"/><path class="l" d="m250.6 137.5h2.3v38h-2.3z"/><path class="t" d="m256.6 101.5v110.5"/><path class="l" d="m255.4 121.7h2.3v38.9h-2.3z"/><path class="t" d="m261.4 101.5v110.5"/><path class="l" d="m260.3 119h2.2v19.8h-2.2z"/><path class="t" d="m266.2 101.5v110.5"/><path class="l loss" d="m265.1 124.7h2.2v28.4h-2.2z"/><path class="t" d="m271 101.5v110.5"/><path class="l" d="m269.9 137.5h2.3v29.5h-2.3z"/><path class="t" d="m275.9 101.5v110.5"/><path class="l" d="m274.7 128.9h2.3v30.1h-2.3z"/><path class="t" d="m280.7 101.5v110.5"/><path class="l profit" d="m279.5 125.1h2.3v19.3h-2.3z"/><path class="t" d="m285.5 101.5v110.5"/><path class="l" d="m284.4 128.7h2.2v40.8h-2.2z"/><path class="t" d="m290.3 101.5v110.5"/><path class="l" d="m289.2 127.3h2.3v37.8h-2.3z"/><path class="t" d="m295.1 101.5v110.5"/><path class="l" d="m294 120.8h2.3v10.4h-2.3z"/><path class="t" d="m300 101.5v110.5"/><path class="l profit" d="m298.8 126h2.3v19.9h-2.3z"/><path class="t" d="m304.8 101.5v110.5"/><path class="l" d="m303.7 129.7h2.2v15.6h-2.2z"/><path class="t" d="m309.6 101.5v110.5"/><path class="l" d="m308.5 136.9h2.2v16.9h-2.2z"/><path class="t" d="m314.4 101.5v110.5"/><path class="l loss" d="m313.3 135.8h2.3v21h-2.3z"/><path class="t" d="m319.3 101.5v110.5"/><path class="l" d="m318.1 134.4h2.3v20.3h-2.3z"/><path class="t" d="m324.1 101.5v110.5"/><path class="l" d="m322.9 137.5h2.3v11.6h-2.3z"/><path class="t" d="m328.9 101.5v110.5"/><path class="l" d="m327.8 140.2h2.2v22.2h-2.2z"/><path class="t" d="m333.7 101.5v110.5"/><path class="l" d="m332.6 146.5h2.3v39.8h-2.3z"/><path class="t" d="m338.5 101.5v110.5"/><path class="l" d="m337.4 149.1h2.3v32.2h-2.3z"/><path class="t" d="m343.4 101.5v110.5"/><path class="l profit" d="m342.2 147.7h2.3v11.3h-2.3z"/><path class="t" d="m348.2 101.5v110.5"/><path class="l" d="m347.1 138.9h2.2v13.3h-2.2z"/><path class="t" d="m353 101.5v110.5"/><path class="l" d="m351.9 141.2h2.2v35.1h-2.2z"/><path class="t" d="m357.8 101.5v110.5"/><path class="l" d="m356.7 159.7h2.3v32.9h-2.3z"/><path class="t" d="m362.7 101.5v110.5"/><path class="t" d="m367.5 101.5v110.5"/><path class="l loss" d="m366.3 163.5h2.3v21.9h-2.3z"/><path class="t" d="m372.3 101.5v110.5"/><path class="l loss" d="m371.2 151.9h2.2v26.5h-2.2z"/><path class="t" d="m377.1 101.5v110.5"/><path class="l" d="m376 122.5h2.3v37.2h-2.3z"/><path class="t" d="m381.9 101.5v110.5"/><path class="l" d="m380.8 115.8h2.3v29.7h-2.3z"/><path class="t" d="m386.8 101.5v110.5"/><path class="l profit" d="m385.6 116.1h2.3v13.1h-2.3z"/><path class="t" d="m391.6 101.5v110.5"/><path class="l" d="m390.5 122.6h2.2v16.1h-2.2z"/><path class="t" d="m396.4 101.5v110.5"/><path class="l" d="m395.3 112.9h2.2v19.2h-2.2z"/><path class="t" d="m401.2 101.5v110.5"/><path class="l" d="m400.1 118h2.3v22.2h-2.3z"/><path class="l loss" d="m361.5 169.5h2.3v25.8h-2.3z"/><path class="h" d="m409.7 83.4h-214.6c-4.5 0-8 3.6-8 8v14.5h230.6v-14.5c0-4.4-3.6-8-8-8z"/><path class="o" d="m202.3 95.8q0 0.7-0.4 1.3-0.4 0.5-1.1 0.8-0.7 0.3-1.6 0.3-0.5 0-0.9-0.1-0.4 0-0.8-0.1-0.4-0.1-0.6-0.2v-1q0.4 0.2 1 0.3 0.7 0.2 1.4 0.2 0.6 0 1.1-0.2 0.4-0.1 0.6-0.5 0.3-0.3 0.3-0.8 0-0.4-0.2-0.7-0.2-0.3-0.7-0.5-0.4-0.3-1.2-0.5-0.5-0.2-1-0.5-0.4-0.2-0.7-0.5-0.2-0.3-0.4-0.7-0.1-0.4-0.1-0.9 0-0.6 0.3-1.1 0.4-0.5 1-0.8 0.6-0.2 1.4-0.2 0.7 0 1.3 0.1 0.6 0.1 1 0.3l-0.3 0.9q-0.4-0.2-0.9-0.3-0.6-0.2-1.1-0.2-0.6 0-0.9 0.2-0.4 0.2-0.6 0.4-0.2 0.3-0.2 0.7 0 0.5 0.2 0.8 0.2 0.3 0.6 0.5 0.4 0.3 1.1 0.5 0.7 0.3 1.3 0.6 0.5 0.3 0.8 0.7 0.3 0.5 0.3 1.2z"/><path class="o" d="m206.6 98h-1v-7.6h-2.7v-0.9h6.4v0.9h-2.7z"/><path fill-rule="evenodd" class="o" d="m218 93.8q0 0.9-0.2 1.8-0.3 0.8-0.8 1.4-0.5 0.5-1.2 0.8-0.7 0.4-1.7 0.4-1 0-1.7-0.4-0.8-0.3-1.3-0.9-0.4-0.5-0.7-1.4-0.2-0.8-0.2-1.8 0-1.3 0.4-2.3 0.4-1 1.3-1.5 0.9-0.6 2.2-0.6 1.3 0 2.2 0.6 0.8 0.5 1.3 1.5 0.4 1 0.4 2.4zm-6.8 0q0 1 0.3 1.8 0.3 0.8 1 1.3 0.6 0.4 1.6 0.4 1 0 1.6-0.4 0.7-0.5 1-1.3 0.3-0.8 0.3-1.8 0-1.7-0.7-2.6-0.7-1-2.2-1-1 0-1.6 0.5-0.7 0.4-1 1.2-0.3 0.8-0.3 1.9z"/><path class="o" d="m223.6 90.2q-0.7 0-1.3 0.3-0.5 0.2-0.9 0.7-0.4 0.4-0.6 1.1-0.2 0.6-0.2 1.5 0 1 0.3 1.8 0.3 0.8 1 1.3 0.7 0.4 1.7 0.4 0.6 0 1.1-0.1 0.5-0.1 0.9-0.2v0.8q-0.4 0.2-0.9 0.3-0.6 0.1-1.3 0.1-1.3 0-2.1-0.6-0.9-0.5-1.4-1.5-0.4-1-0.4-2.3 0-1 0.3-1.8 0.2-0.8 0.8-1.4 0.5-0.6 1.3-0.9 0.7-0.3 1.7-0.3 0.7 0 1.3 0.1 0.6 0.1 1.1 0.4l-0.4 0.8q-0.4-0.2-0.9-0.3-0.5-0.2-1.1-0.2z"/><path class="o" d="m233.7 98h-1.2l-3.1-4.1-0.9 0.8v3.3h-1v-8.5h1v4.3q0.3-0.4 0.7-0.8 0.3-0.4 0.7-0.8l2.5-2.7h1.2l-3.5 3.7z"/><path class="o" d="m239.7 95.8q0 0.7-0.4 1.3-0.4 0.5-1 0.8-0.7 0.3-1.6 0.3-0.5 0-1-0.1-0.4 0-0.8-0.1-0.3-0.1-0.6-0.2v-1q0.4 0.2 1.1 0.3 0.6 0.2 1.3 0.2 0.6 0 1.1-0.2 0.4-0.1 0.7-0.5 0.2-0.3 0.2-0.8 0-0.4-0.2-0.7-0.2-0.3-0.6-0.5-0.5-0.3-1.3-0.5-0.5-0.2-0.9-0.5-0.4-0.2-0.7-0.5-0.3-0.3-0.5-0.7-0.1-0.4-0.1-0.9 0-0.6 0.4-1.1 0.3-0.5 0.9-0.8 0.6-0.2 1.4-0.2 0.7 0 1.3 0.1 0.6 0.1 1.1 0.3l-0.3 0.9q-0.5-0.2-1-0.3-0.5-0.2-1.1-0.2-0.5 0-0.9 0.2-0.4 0.2-0.6 0.4-0.2 0.3-0.2 0.7 0 0.5 0.2 0.8 0.2 0.3 0.6 0.5 0.4 0.3 1.1 0.5 0.8 0.3 1.3 0.6 0.5 0.3 0.8 0.7 0.3 0.5 0.3 1.2z"/><path class="l" d="m240.9 173.9h2.2v24.8h-2.2z"/><path class="C up" d="m124.8 197.4l-24.6-34.6-24.6 34.6h13.7v46.4h21.8v-46.4z"/><path class="D down" d="m614.3 223.3l24.6 34.6 24.7-34.6h-13.7v-46.6h-21.9v46.6z"/><path class="l" d="m254.5 205h-40.9c-1.4 0-2.2-1.1-1.8-2.5l8-29.4c0.3-1.4 1.8-2.5 3.2-2.5h40.8c1.4 0 2.2 1.1 1.8 2.5l-7.9 29.4c-0.4 1.4-1.8 2.5-3.2 2.5z"/><path fill-rule="evenodd" class="E" d="m254.1 203.2h-39.1c-0.7 0-1.2-0.6-1-1.4l7.6-28c0.2-0.8 1-1.4 1.8-1.4h39c0.8 0 1.2 0.6 1 1.4l-7.6 28c-0.2 0.8-1 1.4-1.7 1.4z"/><path class="a" d="m254.1 203.2h-39.1c-0.7 0-1.2-0.6-1-1.4l7.6-28c0.2-0.8 1-1.4 1.8-1.4h39c0.8 0 1.2 0.6 1 1.4l-7.6 28c-0.2 0.8-1 1.4-1.7 1.4z"/><path class="F" d="m255.8 201.8l6.7-24.5-10.4 10.4-0.5-3-10.6 12.2-0.2-2.8-1.9 1.8-0.4-11.6-9.2 7.8-1-3.7-8.5 6.1-0.7-3.1-2.8 2-2.3 8.4c-0.2 0.8 0.3 1.4 1 1.4h39.1c0.7 0 1.5-0.6 1.7-1.4z"/><path class="r" d="m258.2 176.8h-8.3c-0.5 0-0.8-0.4-0.6-0.9l0.1-0.6c0.2-0.5 0.7-0.9 1.2-0.9h8.2c0.5 0 0.8 0.4 0.7 0.9l-0.2 0.6c-0.1 0.5-0.6 0.9-1.1 0.9z"/><path class="n" d="m246.5 176.8h-8.2c-0.5 0-0.8-0.4-0.7-0.9l0.2-0.6c0.1-0.5 0.6-0.9 1.1-0.9h8.2c0.5 0 0.8 0.4 0.7 0.9l-0.2 0.6c-0.1 0.5-0.6 0.9-1.1 0.9z"/><path class="G" d="m265.5 199.1l0.9-4.7c0 0 1-8-3.5-10.7l-0.8 2.8c-0.2 0.9-1.2 1.4-2.1 1.1l-3.7-1.3-0.2 0.6c-0.2 0.6 0.1 1.2 0.7 1.4 0.8 0.3 1.8 0.8 2 1.4 0.3 1 0.3 2.7 2.4 3.8l-2.1 2.2z"/><path class="H" d="m257.4 196.3l2.8-2.2c0 0 5.5 0.7 6.2 6.3l-2.5 5z"/><path class="I" d="m128.3 404.9l-3.7 6.2c0 0 1.4 5.6 5.4 8.1 2 1.3 3.9 2.9 5.3 4.1 1.7 1.4 3.8 2.3 5.9 2.5 2.6 0.2 5.6 0.4 6.1-0.2 1-0.9-5.9-6.7-5.9-6.7l-3.2-7.1 0.3-6.1z"/><path class="I" d="m196.4 415.4l-1.6 8.7c-0.5 2.2 1 4.4 3.3 4.8 1 0.2 2.3 0.3 3.8 0.1 5.6-0.4 7.6-2.1 12.4-3 4.7-0.9 10.8-4.7 10.2-6.7-0.5-1.9-14.2-2.5-14.2-2.5l-2.2-3.1z"/><path class="J" d="m212.9 266.6l2.1 66.7-5.8 82.4c0 0-8.7 2.5-14.6 0 0 0-4-58-2-81l-13.8-64.7z"/><path class="J" d="m183.6 259.5l-16.5 71.9-26.6 78.2c0 0-5.5-2.9-14.2-3.8 0 0 11-57 18.8-78.8l3.9-69.1z"/><path class="I" d="m212.9 266.6l-31.6 3.2 2.3-10.3-34.6-1.6-2.4 41.8c7.5-2.9 18.8-6.6 30.1-10.3l3.3-14 2.6 12.1c12.2-3.8 23.9-7.4 30.6-9.4z"/><path class="J" d="m154.2 160.7c-8.7-0.5-13.5 3.7-17.2 13.2-4 10.1-9 29.8-12.9 40.8-4.2 11.6 3.7 28.7 29.4 20.3z"/><path class="I" d="m153.5 235l0.2-17.8-4.8-8.9c0 0-10.2 25.4-24.2 19.9 3.4 7.2 12.6 12.1 28.8 6.8z"/><path class="G" d="m177.5 137.2l1.6 5.2c0 0 2.8 3.2 2.8 6.8 0 1.5-0.3 2.8-0.6 3.8-0.4 1.2-1.6 2-2.9 1.8l-1.2-0.1-1.4 8.2h-13.3l3.6-12.3 6.4-12.4z"/><path class="K" d="m179.3 131.9c-2.1-0.8-3.2 1.5-8.9 1.2-6.4-0.5-10.3 3.1-8.8 7.1-4.1 5.1 0 9.8 1.9 11.5 0.6 0.6 0.9 1.3 1 2.1l0.1 1.9c0 0 5.9 0.4 9.7-4 0.7-0.8 1.1-1.7 1.3-2.7-0.4 0.4-1 0.7-1.6 0.7-1.3 0-2.4-1.2-2.4-2.6 0-1.4 1.1-2.5 2.4-2.5 0.8 0 1.4 0.3 1.9 0.9-0.3-3.4-1.6-6.5-1.6-6.5 6.6-0.1 7-6.2 4.9-7.1z"/><path class="J" d="m257.4 196.3l-21.3 15.5-22.5-35.6c-6.1-9.6-16.7-15.5-28.1-15.5h-17.4-13.9c-5.4 0-9.6 4.7-9.1 10.1l6.8 67.7-10.7 28.5c7.7 4 15.2 6.6 22.1 8.3l3.8-14.1 1.5 15.1c28.4 4.9 48.3-6.4 48.3-6.4l-4.9-25.9-2-19.4c0 0 4.2 6.7 6.9 10.5 7.5 10.6 24.2 8 29.6 1.1 5.3-6.8 19.2-29.1 19.2-29.1-0.2-8.7-8.3-10.8-8.3-10.8z"/><path class="I" d="m210 224.6l-14-29 19 63.9-3-15.5z"/><path class="L" d="m163.6 187.3l6.5 46.4-2 22.5"/><path class="L" d="m148.9 208.3l-2.7-27"/><path class="a" d="m566.4 443.2c-40.9 0-73.9-9.8-73.9-21.8 0-12 33-21.7 73.9-21.7 40.8 0 73.8 9.7 73.8 21.7 0 12-33 21.8-73.8 21.8z"/><path class="G" d="m532.9 288.1c0 0 7.1 83.9 7.3 95.4 0.3 11.6 0.4 20.2-1.7 23.9-1.5 2.8-4.9 8.3-4.9 8.3 0 0-7.1 4.7-7 6 0.2 1.3 6.1-0.1 9.9-0.8 3.7-0.6 10.5-8.7 10.5-8.7v9.7h2.2c0 0 0-5 1.3-7.7 1.4-2.7 1.5-8.1-1.3-10.7 0 0 5.3-33.2 7.5-48.4 2.3-15.1-1.6-31.6-1.6-37.8 0-6.1 2.3-28.7 2.3-28.7z"/><path class="G" d="m568.4 288.1c0 0 21.7 83.9 24 95.4 2.3 11.6 3.9 20.2 2.5 23.9-1 2.8-3.5 8.3-3.5 8.3 0 0-6.3 4.7-5.9 6 0.4 1.3 6.1-0.1 9.7-0.8 3.6-0.6 9-8.7 9-8.7l1.7 9.7h2.2c0 0-0.9-5 0-7.7 0.8-2.7 0-8.1-3.2-10.7 0 0-0.6-33.2-0.9-48.4-0.4-15.1-7.2-31.6-8.2-37.8-1.1-6.1-2.8-28.7-2.8-28.7z"/><path class="M" d="m595.8 317.3c-1.1-6.1-2.8-28.7-2.8-28.7l-24.6-0.5c0 0 3.4 13.2 7.7 29.9 7.3 3.2 15 6.8 22.9 11-1.5-5-2.8-9.2-3.2-11.7z"/><path class="M" d="m532.9 288.1c0 0 0.5 5.7 1.2 14.3 5.3 1.6 12.7 4 21.4 7.2 0.7-8.9 1.9-21 1.9-21z"/><path class="m" d="m540.7 177.2l-8.9-0.7c-0.7 0-1.2-0.6-1.3-1.2l-1.2-17.4c0-0.7 0.4-1.1 1.1-1.1l8.9 0.7c0.7 0.1 1.2 0.6 1.3 1.2l1.2 17.5c0 0.6-0.4 1.1-1.1 1z"/><path class="K" d="m532.5 158.8c0.1 0.4-0.2 0.7-0.6 0.7-0.4-0.1-0.7-0.4-0.7-0.8-0.1-0.3 0.2-0.6 0.6-0.6 0.4 0 0.7 0.4 0.7 0.7z"/><path class="K" d="m536.6 159.5l-3.5-0.3v-0.6l3.5 0.3z"/><path class="E" d="m539.2 159l1.3 16.8"/><path class="I" d="m554.4 144.7c0 0-5.3-0.7-7.9 3.6-2.5 4-0.7 8.2 0 11.1 0.4 1.7 0.2 4.5-0.1 6.5-0.2 1.1 0.8 2.2 2 2.1l14-0.9c0 0 10.3 0.4 11.4-3.5 1.1-3.9-4.9-5.8-4.9-10 0-4.6-2.9-13.6-14.5-8.9z"/><path class="G" d="m522.9 183.4l6.3-9.1 0.3-6.8c0 0 0.8-8.3 1.3-8.3 0.5-0.1 0.6 7.1 0.6 7.1 0 0 5-3.7 5.6-3.4 0.6 0.4-4.7 5.1-4.7 5.1 0 0 6-1.4 6.6-0.9 0.5 0.5-5.8 2.4-5.8 2.4 0 0 5 0 5.1 0.4 0 0.5-4.1 0.8-4.1 0.8 0 0 0.8 5.1-1.7 6.1l-1.5 9.2z"/><path class="m" d="m535.5 231.7c0 0-8.6 20.7-3.4 61.1h64.2c0 0-2.6-39.8-14.4-60l-22.7-19.8-11.7 5.5z"/><path fill-rule="evenodd" class="I" d="m598.7 280.2h-26.2l1.5-8.1c0.4-2.1 2.2-3.7 4.3-3.7h14.5c2.2 0 4 1.6 4.4 3.7zm-23.8-2h21.4l-1.1-5.8c-0.2-1.2-1.2-2-2.4-2h-14.5c-1.2 0-2.2 0.8-2.4 2z"/><path class="J" d="m555.1 276.2h60.9v42.9h-60.9z"/><path class="l" d="m603.4 312.7h-35.7c-4.9 0-9.1-3.7-9.6-8.6l-3-27.9h60.9l-3 27.9c-0.5 4.9-4.6 8.6-9.6 8.6z"/><path class="G" d="m583 258.9l-0.3 3.3-2.7 6.9c-0.3 0.8-0.3 1.7 0 2.5l0.1 0.4c0.4 1.1 1.5 1.8 2.7 1.8h3.1c1 0 2-0.6 2.4-1.5l0.8-1.5-0.8-1.4c0 0 2.3-4.8 0.3-6.9l0.8-3.8z"/><path class="J" d="m587.9 177c-5.7-6.7-20.6-10.1-20.6-10.1l-9.3 0.4c-13.8 4.6-24.4 18.5-24.4 18.5l-11.5-4.1c0 0-8.7 17.6-9.6 24.1-0.8 6.4 4.7 10 12.3 8.8 7.6-1.1 15.4-13.1 15.4-13.1l2 2.6-8.4 30.6c3 0.5 6.2 0.8 9.5 1.1 4.1 0.3 7.8-2.5 8.7-6.5l2-8.8 4.8 11.7c1 2.4 3.4 3.9 6 3.8 11.4-0.3 19.1-1.3 19.1-1.3l-10-21z"/><path class="m" d="m563.4 165.8c4.9-0.7 12.7 9.1 12.7 9.1l-12.9 7 4.3 3.2c0 0-11.7 3.7-13.2 6.8-1.7-5.1-5.4-8.1-5.4-8.1l4.1-2.8-5.5-6.6c0 0 7-7.1 15.9-8.6z"/><path class="I" d="m575.2 187.4l-1.3 26.3 7.3-19.2z"/><path class="G" d="m554.9 148.3c0 0 0 5.6 7.6 6.9 0 0 0.6-2.5 2.6-2 2.2 0.5 1.3 4.6-0.8 4.3l2 10c0 0-9.1 13.8-10.8 19.3-0.9-6.2 3.1-17.2 3.1-17.2l-0.6-4.4c0 0-2 0.9-4.3-0.4-2.2-1.3-2.1-4.2-2.5-5.9-0.3-1.6-1.6-4.7-1.6-4.7 0 0 2.6-5.1 5.3-5.9z"/><path class="M" d="m558 165.2c2-0.7 3.6-3.3 4.1-4.6 0 2.9-1.7 6.5-3.7 7.5z"/><path class="N" d="m554.3 191.9l-5.4 12.4 4.5 15.4"/><path class="N" d="m533.6 185.8l-5 18.7"/><path class="I" d="m533.2 209.8c4-3.7 7-8.3 7-8.3-1.4-1.9-1-8 1.6-13.1-5.4 5.7-5.6 16.1-8.6 21.4z"/><path class="J" d="m575.2 186.8l5.5 34v39.2h10.2c0 0 3.9-24.7 4.9-41.2 1-16.5-4.3-36.7-7.9-41.8 0 0-12.5 4.5-12.7 9.8z"/><path class="m" d="m552.7 205.5c0 0.6-0.5 1-1 1-0.6 0-1-0.4-1-1 0-0.5 0.4-1 1-1 0.5 0 1 0.5 1 1z"/><path class="m" d="m563 222.9h13v1.6h-13z"/><path class="m" d="m546.1 224.5h-9.4l0.3-1.6h9.1z"/><path class="J" d="m549.2 421.9c0 0 0-5 1.3-7.7 1.4-2.7 1.5-8.1-1.3-10.7-3.2-2-8.7 8.6-8.7 8.6 0 0-2.3-0.3-3.7-1.7-1.5 2.5-3.2 5.3-3.2 5.3 0 0-7.1 4.7-7 6 0.2 1.3 6.1-0.1 9.9-0.8 3.7-0.6 10.5-8.7 10.5-8.7v9.7c0 0 2.2 0 2.2 0z"/><path class="J" d="m608.1 421.9c0 0-0.9-5 0-7.7 0.8-2.7 0-8.1-3.2-10.7-3.6-2-7.2 8.6-7.2 8.6 0 0-2.4-0.3-4-1.7-1.1 2.5-2.3 5.3-2.3 5.3 0 0-6.3 4.7-5.9 6 0.4 1.3 6.1-0.1 9.7-0.8 3.6-0.6 9-8.7 9-8.7l1.7 9.7c0 0 2.2 0 2.2 0z"/><path class="O" d="m175 88.9c-8.5 3.5-18.2-0.6-21.7-9.1-3.5-8.6 0.6-18.3 9.2-21.7 8.5-3.5 18.2 0.6 21.7 9.1 3.4 8.6-0.7 18.3-9.2 21.7z"/></svg>